<svg width="149" height="31" viewBox="0 0 149 31" fill="none" xmlns="http://www.w3.org/2000/svg">
<path d="M6.45774 24.4891C7.4264 24.4891 8.37022 24.4891 9.31405 24.4891C10.6553 24.5139 11.9965 24.4642 13.288 24.1412C15.6724 23.5696 17.6346 22.4016 18.8516 20.1899C19.7955 18.4503 20.019 16.5368 19.8948 14.5985C19.6713 10.5975 17.3614 7.8142 13.4619 6.84502C11.1769 6.27345 8.84214 6.47226 6.53225 6.47226C6.50741 6.47226 6.48258 6.4971 6.45774 6.54681V24.4891V24.4891ZM0 30.9006V0.0110448H0.447074C3.70078 0.0110448 6.95449 -0.013806 10.2082 0.0110448C13.0893 0.0358956 15.896 0.532909 18.5039 1.82515C22.9001 4.03687 25.3839 7.66509 26.1787 12.4861C26.7003 15.6173 26.4767 18.7237 25.3094 21.7058C23.5459 26.2038 20.1432 28.9374 15.5483 30.2296C13.8096 30.7266 12.0462 30.9255 10.2579 30.9255C6.95449 30.9255 3.67594 30.9255 0.372562 30.9255C0.248375 30.9255 0.124187 30.9006 0 30.9006ZM142.741 15.4931C142.741 10.3987 138.568 6.24859 133.452 6.24859C128.31 6.24859 124.138 10.3987 124.138 15.5179C124.138 20.6372 128.335 24.7624 133.477 24.7624C138.593 24.7376 142.766 20.5875 142.741 15.4931ZM133.427 0.0110448C142.07 0.0110448 149.025 6.91956 149 15.5676C149 24.0915 142.021 31 133.377 31C124.783 31 117.829 24.0666 117.829 15.4931C117.879 6.91957 124.833 0.0110448 133.427 0.0110448ZM57.4242 18.5994H45.1048V12.1879H57.4242V0.0110448H63.9068V12.1631H76.2262V18.5746H63.9068V30.826H57.449V18.5994H57.4242ZM111.744 18.6243H99.4244V30.8757H92.9666V18.6243H80.6472V12.2128H92.9418V0.0358895H99.3995V12.1879H111.744V18.6243V18.6243ZM39.0197 30.8757H32.6364V0.0358895H39.0197V30.8757Z" fill="white"/>
</svg>
