<svg width="3" height="1899" viewBox="0 0 3 1899" fill="none" xmlns="http://www.w3.org/2000/svg">
<path d="M-1.31272e-07 3.01732C-1.67484e-07 3.84575 0.671573 4.51732 1.5 4.51732C2.32843 4.51732 3 3.84575 3 3.01732L-1.31272e-07 3.01732ZM3 9.02365C3 8.19523 2.32843 7.52365 1.5 7.52365C0.671573 7.52365 -3.57606e-07 8.19523 -3.93817e-07 9.02365L3 9.02365ZM-6.56362e-07 15.03C-6.92574e-07 15.8584 0.671572 16.53 1.5 16.53C2.32843 16.53 3 15.8584 3 15.03L-6.56362e-07 15.03ZM3 21.0363C3 20.2079 2.32843 19.5363 1.5 19.5363C0.671572 19.5363 -8.82696e-07 20.2079 -9.18907e-07 21.0363L3 21.0363ZM-1.18145e-06 27.0426C-1.21766e-06 27.8711 0.671572 28.5426 1.5 28.5426C2.32843 28.5426 3 27.8711 3 27.0426L-1.18145e-06 27.0426ZM3 33.049C3 32.2205 2.32843 31.549 1.5 31.549C0.671571 31.549 -1.40779e-06 32.2205 -1.444e-06 33.049L3 33.049ZM-1.70654e-06 39.0553C-1.74275e-06 39.8837 0.671571 40.5553 1.5 40.5553C2.32843 40.5553 3 39.8837 3 39.0553L-1.70654e-06 39.0553ZM3 45.0616C3 44.2332 2.32843 43.5616 1.5 43.5616C0.671571 43.5616 -1.93288e-06 44.2332 -1.96909e-06 45.0616L3 45.0616ZM-2.23163e-06 51.068C-2.26784e-06 51.8964 0.671571 52.568 1.5 52.568C2.32842 52.568 3 51.8964 3 51.068L-2.23163e-06 51.068ZM3 57.0743C3 56.2459 2.32842 55.5743 1.5 55.5743C0.67157 55.5743 -2.45797e-06 56.2459 -2.49418e-06 57.0743L3 57.0743ZM-2.75672e-06 63.0806C-2.79293e-06 63.909 0.67157 64.5806 1.5 64.5806C2.32842 64.5806 3 63.909 3 63.0806L-2.75672e-06 63.0806ZM3 69.0869C3 68.2585 2.32842 67.5869 1.5 67.5869C0.67157 67.5869 -2.98306e-06 68.2585 -3.01927e-06 69.0869L3 69.0869ZM-3.28181e-06 75.0933C-3.31802e-06 75.9217 0.67157 76.5933 1.5 76.5933C2.32842 76.5933 3 75.9217 3 75.0933L-3.28181e-06 75.0933ZM3 81.0996C3 80.2712 2.32842 79.5996 1.5 79.5996C0.671569 79.5996 -3.50815e-06 80.2712 -3.54436e-06 81.0996L3 81.0996ZM-3.8069e-06 87.1059C-3.84311e-06 87.9344 0.671569 88.6059 1.5 88.6059C2.32842 88.6059 3 87.9344 3 87.1059L-3.8069e-06 87.1059ZM3 93.1123C3 92.2839 2.32842 91.6123 1.5 91.6123C0.671569 91.6123 -4.03324e-06 92.2839 -4.06945e-06 93.1123L3 93.1123ZM-4.33199e-06 99.1186C-4.3682e-06 99.947 0.671568 100.619 1.5 100.619C2.32842 100.619 3 99.947 3 99.1186L-4.33199e-06 99.1186ZM3 105.125C3 104.297 2.32842 103.625 1.5 103.625C0.671568 103.625 -4.55833e-06 104.297 -4.59454e-06 105.125L3 105.125ZM-4.85708e-06 111.131C-4.8933e-06 111.96 0.671568 112.631 1.5 112.631C2.32842 112.631 3 111.96 3 111.131L-4.85708e-06 111.131ZM2.99999 117.138C2.99999 116.309 2.32842 115.638 1.49999 115.638C0.671568 115.638 -5.08342e-06 116.309 -5.11963e-06 117.138L2.99999 117.138ZM-5.38217e-06 123.144C-5.41839e-06 123.972 0.671567 124.644 1.49999 124.644C2.32842 124.644 2.99999 123.972 2.99999 123.144L-5.38217e-06 123.144ZM2.99999 129.15C2.99999 128.322 2.32842 127.65 1.49999 127.65C0.671567 127.65 -5.60851e-06 128.322 -5.64472e-06 129.15L2.99999 129.15ZM-5.90726e-06 135.157C-5.94348e-06 135.985 0.671567 136.657 1.49999 136.657C2.32842 136.657 2.99999 135.985 2.99999 135.157L-5.90726e-06 135.157ZM2.99999 141.163C2.99999 140.335 2.32842 139.663 1.49999 139.663C0.671567 139.663 -6.1336e-06 140.335 -6.16981e-06 141.163L2.99999 141.163ZM-6.43235e-06 147.169C-6.46857e-06 147.998 0.671566 148.669 1.49999 148.669C2.32842 148.669 2.99999 147.998 2.99999 147.169L-6.43235e-06 147.169ZM2.99999 153.176C2.99999 152.347 2.32842 151.676 1.49999 151.676C0.671566 151.676 -6.65869e-06 152.347 -6.6949e-06 153.176L2.99999 153.176ZM-6.95744e-06 159.182C-6.99366e-06 160.01 0.671566 160.682 1.49999 160.682C2.32842 160.682 2.99999 160.01 2.99999 159.182L-6.95744e-06 159.182ZM2.99999 165.188C2.99999 164.36 2.32842 163.688 1.49999 163.688C0.671566 163.688 -7.18378e-06 164.36 -7.21999e-06 165.188L2.99999 165.188ZM-7.48253e-06 171.195C-7.51875e-06 172.023 0.671565 172.695 1.49999 172.695C2.32842 172.695 2.99999 172.023 2.99999 171.195L-7.48253e-06 171.195ZM2.99999 177.201C2.99999 176.373 2.32842 175.701 1.49999 175.701C0.671565 175.701 -7.70887e-06 176.373 -7.74508e-06 177.201L2.99999 177.201ZM-8.00762e-06 183.207C-8.04384e-06 184.036 0.671565 184.707 1.49999 184.707C2.32842 184.707 2.99999 184.036 2.99999 183.207L-8.00762e-06 183.207ZM2.99999 189.214C2.99999 188.385 2.32842 187.714 1.49999 187.714C0.671565 187.714 -8.23396e-06 188.385 -8.27017e-06 189.214L2.99999 189.214ZM-8.53271e-06 195.22C-8.56893e-06 196.048 0.671564 196.72 1.49999 196.72C2.32842 196.72 2.99999 196.048 2.99999 195.22L-8.53271e-06 195.22ZM2.99999 201.226C2.99999 200.398 2.32842 199.726 1.49999 199.726C0.671564 199.726 -8.75905e-06 200.398 -8.79526e-06 201.226L2.99999 201.226ZM-9.05781e-06 207.233C-9.09402e-06 208.061 0.671564 208.733 1.49999 208.733C2.32842 208.733 2.99999 208.061 2.99999 207.233L-9.05781e-06 207.233ZM2.99999 213.239C2.99999 212.41 2.32842 211.739 1.49999 211.739C0.671564 211.739 -9.28414e-06 212.41 -9.32035e-06 213.239L2.99999 213.239ZM-9.5829e-06 219.245C-9.61911e-06 220.074 0.671563 220.745 1.49999 220.745C2.32842 220.745 2.99999 220.074 2.99999 219.245L-9.5829e-06 219.245ZM2.99999 225.252C2.99999 224.423 2.32842 223.752 1.49999 223.752C0.671563 223.752 -9.80923e-06 224.423 -9.84544e-06 225.252L2.99999 225.252ZM-1.0108e-05 231.258C-1.01442e-05 232.086 0.671563 232.758 1.49999 232.758C2.32842 232.758 2.99999 232.086 2.99999 231.258L-1.0108e-05 231.258ZM2.99999 237.264C2.99999 236.436 2.32842 235.764 1.49999 235.764C0.671563 235.764 -1.03343e-05 236.436 -1.03705e-05 237.264L2.99999 237.264ZM-1.06331e-05 243.271C-1.06693e-05 244.099 0.671562 244.771 1.49999 244.771C2.32842 244.771 2.99999 244.099 2.99999 243.271L-1.06331e-05 243.271ZM2.99999 249.277C2.99999 248.448 2.32842 247.777 1.49999 247.777C0.671562 247.777 -1.08594e-05 248.448 -1.08956e-05 249.277L2.99999 249.277ZM-1.11582e-05 255.283C-1.11944e-05 256.112 0.671562 256.783 1.49999 256.783C2.32842 256.783 2.99999 256.112 2.99999 255.283L-1.11582e-05 255.283ZM2.99999 261.29C2.99999 260.461 2.32842 259.79 1.49999 259.79C0.671562 259.79 -1.13845e-05 260.461 -1.14207e-05 261.29L2.99999 261.29ZM-1.16833e-05 267.296C-1.17195e-05 268.124 0.671561 268.796 1.49999 268.796C2.32842 268.796 2.99999 268.124 2.99999 267.296L-1.16833e-05 267.296ZM2.99999 273.302C2.99999 272.474 2.32842 271.802 1.49999 271.802C0.671561 271.802 -1.19096e-05 272.474 -1.19458e-05 273.302L2.99999 273.302ZM-1.22083e-05 279.309C-1.22446e-05 280.137 0.671561 280.809 1.49999 280.809C2.32841 280.809 2.99999 280.137 2.99999 279.309L-1.22083e-05 279.309ZM2.99999 285.315C2.99999 284.486 2.32841 283.815 1.49999 283.815C0.67156 283.815 -1.24347e-05 284.486 -1.24709e-05 285.315L2.99999 285.315ZM-1.27334e-05 291.321C-1.27696e-05 292.15 0.67156 292.821 1.49999 292.821C2.32841 292.821 2.99999 292.15 2.99999 291.321L-1.27334e-05 291.321ZM2.99999 297.327C2.99999 296.499 2.32841 295.827 1.49999 295.827C0.67156 295.827 -1.29598e-05 296.499 -1.2996e-05 297.327L2.99999 297.327ZM-1.32585e-05 303.334C-1.32947e-05 304.162 0.67156 304.834 1.49999 304.834C2.32841 304.834 2.99999 304.162 2.99999 303.334L-1.32585e-05 303.334ZM2.99999 309.34C2.99999 308.512 2.32841 307.84 1.49999 307.84C0.671559 307.84 -1.34849e-05 308.512 -1.35211e-05 309.34L2.99999 309.34ZM-1.37836e-05 315.346C-1.38198e-05 316.175 0.671559 316.846 1.49999 316.846C2.32841 316.846 2.99999 316.175 2.99999 315.346L-1.37836e-05 315.346ZM2.99999 321.353C2.99999 320.524 2.32841 319.853 1.49999 319.853C0.671559 319.853 -1.40099e-05 320.524 -1.40462e-05 321.353L2.99999 321.353ZM-1.43087e-05 327.359C-1.43449e-05 328.187 0.671558 328.859 1.49999 328.859C2.32841 328.859 2.99999 328.188 2.99999 327.359L-1.43087e-05 327.359ZM2.99999 333.365C2.99999 332.537 2.32841 331.865 1.49999 331.865C0.671558 331.865 -1.4535e-05 332.537 -1.45712e-05 333.365L2.99999 333.365ZM-1.48338e-05 339.372C-1.487e-05 340.2 0.671558 340.872 1.49999 340.872C2.32841 340.872 2.99999 340.2 2.99999 339.372L-1.48338e-05 339.372ZM2.99998 345.378C2.99998 344.55 2.32841 343.878 1.49998 343.878C0.671558 343.878 -1.50601e-05 344.55 -1.50963e-05 345.378L2.99998 345.378ZM-1.53589e-05 351.384C-1.53951e-05 352.213 0.671557 352.884 1.49998 352.884C2.32841 352.884 2.99998 352.213 2.99998 351.384L-1.53589e-05 351.384ZM2.99998 357.391C2.99998 356.562 2.32841 355.891 1.49998 355.891C0.671557 355.891 -1.55852e-05 356.562 -1.56214e-05 357.391L2.99998 357.391ZM-1.5884e-05 363.397C-1.59202e-05 364.225 0.671557 364.897 1.49998 364.897C2.32841 364.897 2.99998 364.225 2.99998 363.397L-1.5884e-05 363.397ZM2.99998 369.403C2.99998 368.575 2.32841 367.903 1.49998 367.903C0.671557 367.903 -1.61103e-05 368.575 -1.61465e-05 369.403L2.99998 369.403ZM-1.64091e-05 375.41C-1.64453e-05 376.238 0.671556 376.91 1.49998 376.91C2.32841 376.91 2.99998 376.238 2.99998 375.41L-1.64091e-05 375.41ZM2.99998 381.416C2.99998 380.587 2.32841 379.916 1.49998 379.916C0.671556 379.916 -1.66354e-05 380.587 -1.66716e-05 381.416L2.99998 381.416ZM-1.69341e-05 387.422C-1.69704e-05 388.251 0.671556 388.922 1.49998 388.922C2.32841 388.922 2.99998 388.251 2.99998 387.422L-1.69341e-05 387.422ZM2.99998 393.429C2.99998 392.6 2.32841 391.929 1.49998 391.929C0.671556 391.929 -1.71605e-05 392.6 -1.71967e-05 393.429L2.99998 393.429ZM-1.74592e-05 399.435C-1.74954e-05 400.263 0.671555 400.935 1.49998 400.935C2.32841 400.935 2.99998 400.263 2.99998 399.435L-1.74592e-05 399.435ZM2.99998 405.441C2.99998 404.613 2.32841 403.941 1.49998 403.941C0.671555 403.941 -1.76856e-05 404.613 -1.77218e-05 405.441L2.99998 405.441ZM-1.79843e-05 411.448C-1.80205e-05 412.276 0.671555 412.948 1.49998 412.948C2.32841 412.948 2.99998 412.276 2.99998 411.448L-1.79843e-05 411.448ZM2.99998 417.454C2.99998 416.625 2.32841 415.954 1.49998 415.954C0.671555 415.954 -1.82107e-05 416.625 -1.82469e-05 417.454L2.99998 417.454ZM-1.85094e-05 423.46C-1.85456e-05 424.289 0.671554 424.96 1.49998 424.96C2.32841 424.96 2.99998 424.289 2.99998 423.46L-1.85094e-05 423.46ZM2.99998 429.466C2.99998 428.638 2.32841 427.966 1.49998 427.966C0.671554 427.966 -1.87357e-05 428.638 -1.8772e-05 429.466L2.99998 429.466ZM-1.90345e-05 435.473C-1.90707e-05 436.301 0.671554 436.973 1.49998 436.973C2.32841 436.973 2.99998 436.301 2.99998 435.473L-1.90345e-05 435.473ZM2.99998 441.479C2.99998 440.651 2.32841 439.979 1.49998 439.979C0.671554 439.979 -1.92608e-05 440.651 -1.9297e-05 441.479L2.99998 441.479ZM-1.95596e-05 447.485C-1.95958e-05 448.314 0.671553 448.985 1.49998 448.985C2.32841 448.985 2.99998 448.314 2.99998 447.485L-1.95596e-05 447.485ZM2.99998 453.492C2.99998 452.663 2.32841 451.992 1.49998 451.992C0.671553 451.992 -1.97859e-05 452.663 -1.98221e-05 453.492L2.99998 453.492ZM-2.00847e-05 459.498C-2.01209e-05 460.326 0.671553 460.998 1.49998 460.998C2.32841 460.998 2.99998 460.326 2.99998 459.498L-2.00847e-05 459.498ZM2.99998 465.504C2.99998 464.676 2.32841 464.004 1.49998 464.004C0.671553 464.004 -2.0311e-05 464.676 -2.03472e-05 465.504L2.99998 465.504ZM-2.06098e-05 471.511C-2.0646e-05 472.339 0.671552 473.011 1.49998 473.011C2.32841 473.011 2.99998 472.339 2.99998 471.511L-2.06098e-05 471.511ZM2.99998 477.517C2.99998 476.689 2.32841 476.017 1.49998 476.017C0.671552 476.017 -2.08361e-05 476.689 -2.08723e-05 477.517L2.99998 477.517ZM-2.11349e-05 483.523C-2.11711e-05 484.352 0.671552 485.023 1.49998 485.023C2.32841 485.023 2.99998 484.352 2.99998 483.523L-2.11349e-05 483.523ZM2.99998 489.53C2.99998 488.701 2.32841 488.03 1.49998 488.03C0.671552 488.03 -2.13612e-05 488.701 -2.13974e-05 489.53L2.99998 489.53ZM-2.16599e-05 495.536C-2.16962e-05 496.364 0.671551 497.036 1.49998 497.036C2.32841 497.036 2.99998 496.364 2.99998 495.536L-2.16599e-05 495.536ZM2.99998 501.542C2.99998 500.714 2.32841 500.042 1.49998 500.042C0.671551 500.042 -2.18863e-05 500.714 -2.19225e-05 501.542L2.99998 501.542ZM-2.2185e-05 507.549C-2.22212e-05 508.377 0.671551 509.049 1.49998 509.049C2.3284 509.049 2.99998 508.377 2.99998 507.549L-2.2185e-05 507.549ZM2.99998 513.555C2.99998 512.727 2.3284 512.055 1.49998 512.055C0.67155 512.055 -2.24114e-05 512.727 -2.24476e-05 513.555L2.99998 513.555ZM-2.27101e-05 519.561C-2.27463e-05 520.39 0.67155 521.061 1.49998 521.061C2.3284 521.061 2.99998 520.39 2.99998 519.561L-2.27101e-05 519.561ZM2.99998 525.568C2.99998 524.739 2.3284 524.068 1.49998 524.068C0.67155 524.068 -2.29365e-05 524.739 -2.29727e-05 525.568L2.99998 525.568ZM-2.32352e-05 531.574C-2.32714e-05 532.402 0.67155 533.074 1.49998 533.074C2.3284 533.074 2.99998 532.402 2.99998 531.574L-2.32352e-05 531.574ZM2.99998 537.58C2.99998 536.752 2.3284 536.08 1.49998 536.08C0.671549 536.08 -2.34616e-05 536.752 -2.34978e-05 537.58L2.99998 537.58ZM-2.37603e-05 543.587C-2.37965e-05 544.415 0.671549 545.087 1.49998 545.087C2.3284 545.087 2.99998 544.415 2.99998 543.587L-2.37603e-05 543.587ZM2.99998 549.593C2.99998 548.765 2.3284 548.093 1.49998 548.093C0.671549 548.093 -2.39866e-05 548.765 -2.40229e-05 549.593L2.99998 549.593ZM-2.42854e-05 555.599C-2.43216e-05 556.428 0.671549 557.099 1.49998 557.099C2.3284 557.099 2.99998 556.428 2.99998 555.599L-2.42854e-05 555.599ZM2.99998 561.606C2.99998 560.777 2.3284 560.106 1.49998 560.106C0.671548 560.106 -2.45117e-05 560.777 -2.45479e-05 561.606L2.99998 561.606ZM-2.48105e-05 567.612C-2.48467e-05 568.44 0.671548 569.112 1.49998 569.112C2.3284 569.112 2.99998 568.44 2.99998 567.612L-2.48105e-05 567.612ZM2.99997 573.618C2.99997 572.79 2.3284 572.118 1.49997 572.118C0.671548 572.118 -2.50368e-05 572.79 -2.5073e-05 573.618L2.99997 573.618ZM-2.53356e-05 579.625C-2.53718e-05 580.453 0.671547 581.125 1.49997 581.125C2.3284 581.125 2.99997 580.453 2.99997 579.625L-2.53356e-05 579.625ZM2.99997 585.631C2.99997 584.803 2.3284 584.131 1.49997 584.131C0.671547 584.131 -2.55619e-05 584.803 -2.55981e-05 585.631L2.99997 585.631ZM-2.58607e-05 591.637C-2.58969e-05 592.466 0.671547 593.137 1.49997 593.137C2.3284 593.137 2.99997 592.466 2.99997 591.637L-2.58607e-05 591.637ZM2.99997 597.644C2.99997 596.815 2.3284 596.144 1.49997 596.144C0.671547 596.144 -2.6087e-05 596.815 -2.61232e-05 597.644L2.99997 597.644ZM-2.63858e-05 603.65C-2.6422e-05 604.479 0.671546 605.15 1.49997 605.15C2.3284 605.15 2.99997 604.479 2.99997 603.65L-2.63858e-05 603.65ZM2.99997 609.656C2.99997 608.828 2.3284 608.156 1.49997 608.156C0.671546 608.156 -2.66121e-05 608.828 -2.66483e-05 609.656L2.99997 609.656ZM-2.69109e-05 615.663C-2.69471e-05 616.491 0.671546 617.163 1.49997 617.163C2.3284 617.163 2.99997 616.491 2.99997 615.663L-2.69109e-05 615.663ZM2.99997 621.669C2.99997 620.841 2.3284 620.169 1.49997 620.169C0.671546 620.169 -2.71372e-05 620.841 -2.71734e-05 621.669L2.99997 621.669ZM-2.7436e-05 627.676C-2.74722e-05 628.504 0.671545 629.176 1.49997 629.176C2.3284 629.176 2.99997 628.504 2.99997 627.676L-2.7436e-05 627.676ZM2.99997 633.682C2.99997 632.853 2.3284 632.182 1.49997 632.182C0.671545 632.182 -2.76623e-05 632.853 -2.76985e-05 633.682L2.99997 633.682ZM-2.7961e-05 639.688C-2.79973e-05 640.517 0.671545 641.188 1.49997 641.188C2.3284 641.188 2.99997 640.517 2.99997 639.688L-2.7961e-05 639.688ZM2.99997 645.695C2.99997 644.866 2.3284 644.195 1.49997 644.195C0.671545 644.195 -2.81874e-05 644.866 -2.82236e-05 645.695L2.99997 645.695ZM-2.84861e-05 651.701C-2.85223e-05 652.529 0.671544 653.201 1.49997 653.201C2.3284 653.201 2.99997 652.529 2.99997 651.701L-2.84861e-05 651.701ZM2.99997 657.707C2.99997 656.879 2.3284 656.207 1.49997 656.207C0.671544 656.207 -2.87125e-05 656.879 -2.87487e-05 657.707L2.99997 657.707ZM-2.90112e-05 663.714C-2.90474e-05 664.542 0.671544 665.214 1.49997 665.214C2.3284 665.214 2.99997 664.542 2.99997 663.714L-2.90112e-05 663.714ZM2.99997 669.72C2.99997 668.892 2.3284 668.22 1.49997 668.22C0.671544 668.22 -2.92376e-05 668.892 -2.92738e-05 669.72L2.99997 669.72ZM-2.95363e-05 675.726C-2.95725e-05 676.555 0.671543 677.226 1.49997 677.226C2.3284 677.226 2.99997 676.555 2.99997 675.726L-2.95363e-05 675.726ZM2.99997 681.733C2.99997 680.904 2.3284 680.233 1.49997 680.233C0.671543 680.233 -2.97627e-05 680.904 -2.97989e-05 681.733L2.99997 681.733ZM-3.00614e-05 687.739C-3.00976e-05 688.567 0.671543 689.239 1.49997 689.239C2.3284 689.239 2.99997 688.567 2.99997 687.739L-3.00614e-05 687.739ZM2.99997 693.745C2.99997 692.917 2.3284 692.245 1.49997 692.245C0.671543 692.245 -3.02877e-05 692.917 -3.0324e-05 693.745L2.99997 693.745ZM-3.05865e-05 699.752C-3.06227e-05 700.58 0.671542 701.252 1.49997 701.252C2.3284 701.252 2.99997 700.58 2.99997 699.752L-3.05865e-05 699.752ZM2.99997 705.758C2.99997 704.93 2.3284 704.258 1.49997 704.258C0.671542 704.258 -3.08128e-05 704.93 -3.0849e-05 705.758L2.99997 705.758ZM-3.11116e-05 711.764C-3.11478e-05 712.593 0.671542 713.264 1.49997 713.264C2.3284 713.264 2.99997 712.593 2.99997 711.764L-3.11116e-05 711.764ZM2.99997 717.771C2.99997 716.942 2.3284 716.271 1.49997 716.271C0.671542 716.271 -3.13379e-05 716.942 -3.13741e-05 717.771L2.99997 717.771ZM-3.16367e-05 723.777C-3.16729e-05 724.606 0.671541 725.277 1.49997 725.277C2.3284 725.277 2.99997 724.606 2.99997 723.777L-3.16367e-05 723.777ZM2.99997 729.783C2.99997 728.955 2.3284 728.283 1.49997 728.283C0.671541 728.283 -3.1863e-05 728.955 -3.18992e-05 729.783L2.99997 729.783ZM-3.21618e-05 735.79C-3.2198e-05 736.618 0.671541 737.29 1.49997 737.29C2.32839 737.29 2.99997 736.618 2.99997 735.79L-3.21618e-05 735.79ZM2.99997 741.796C2.99997 740.968 2.32839 740.296 1.49997 740.296C0.671541 740.296 -3.23881e-05 740.968 -3.24243e-05 741.796L2.99997 741.796ZM-3.26869e-05 747.802C-3.27231e-05 748.631 0.67154 749.302 1.49997 749.302C2.32839 749.302 2.99997 748.631 2.99997 747.802L-3.26869e-05 747.802ZM2.99997 753.809C2.99997 752.98 2.32839 752.309 1.49997 752.309C0.67154 752.309 -3.29132e-05 752.98 -3.29494e-05 753.809L2.99997 753.809ZM-3.3212e-05 759.815C-3.32482e-05 760.644 0.67154 761.315 1.49997 761.315C2.32839 761.315 2.99997 760.644 2.99997 759.815L-3.3212e-05 759.815ZM2.99997 765.822C2.99997 764.993 2.32839 764.322 1.49997 764.322C0.671539 764.322 -3.34383e-05 764.993 -3.34745e-05 765.822L2.99997 765.822ZM-3.3737e-05 771.828C-3.37733e-05 772.656 0.671539 773.328 1.49997 773.328C2.32839 773.328 2.99997 772.656 2.99997 771.828L-3.3737e-05 771.828ZM2.99997 777.834C2.99997 777.006 2.32839 776.334 1.49997 776.334C0.671539 776.334 -3.39634e-05 777.006 -3.39996e-05 777.834L2.99997 777.834ZM-3.42621e-05 783.841C-3.42984e-05 784.669 0.671539 785.341 1.49997 785.341C2.32839 785.341 2.99997 784.669 2.99997 783.841L-3.42621e-05 783.841ZM2.99997 789.847C2.99997 789.018 2.32839 788.347 1.49997 788.347C0.671538 788.347 -3.44885e-05 789.018 -3.45247e-05 789.847L2.99997 789.847ZM-3.47872e-05 795.853C-3.48234e-05 796.682 0.671538 797.353 1.49997 797.353C2.32839 797.353 2.99997 796.682 2.99997 795.853L-3.47872e-05 795.853ZM2.99996 801.86C2.99996 801.031 2.32839 800.36 1.49997 800.36C0.671538 800.36 -3.50136e-05 801.031 -3.50498e-05 801.86L2.99996 801.86ZM-3.53123e-05 807.866C-3.53485e-05 808.694 0.671537 809.366 1.49996 809.366C2.32839 809.366 2.99996 808.694 2.99996 807.866L-3.53123e-05 807.866ZM2.99996 813.872C2.99996 813.044 2.32839 812.372 1.49996 812.372C0.671537 812.372 -3.55387e-05 813.044 -3.55749e-05 813.872L2.99996 813.872ZM-3.58374e-05 819.879C-3.58736e-05 820.707 0.671537 821.379 1.49996 821.379C2.32839 821.379 2.99996 820.707 2.99996 819.879L-3.58374e-05 819.879ZM2.99996 825.885C2.99996 825.057 2.32839 824.385 1.49996 824.385C0.671537 824.385 -3.60637e-05 825.057 -3.61e-05 825.885L2.99996 825.885ZM-3.63625e-05 831.891C-3.63987e-05 832.72 0.671536 833.391 1.49996 833.391C2.32839 833.391 2.99996 832.72 2.99996 831.891L-3.63625e-05 831.891ZM2.99996 837.898C2.99996 837.069 2.32839 836.398 1.49996 836.398C0.671536 836.398 -3.65888e-05 837.069 -3.66251e-05 837.898L2.99996 837.898ZM-3.68876e-05 843.904C-3.69238e-05 844.732 0.671536 845.404 1.49996 845.404C2.32839 845.404 2.99996 844.732 2.99996 843.904L-3.68876e-05 843.904ZM2.99996 849.91C2.99996 849.082 2.32839 848.41 1.49996 848.41C0.671536 848.41 -3.71139e-05 849.082 -3.71501e-05 849.91L2.99996 849.91ZM-3.74127e-05 855.917C-3.74489e-05 856.745 0.671535 857.417 1.49996 857.417C2.32839 857.417 2.99996 856.745 2.99996 855.917L-3.74127e-05 855.917ZM2.99996 861.923C2.99996 861.095 2.32839 860.423 1.49996 860.423C0.671535 860.423 -3.7639e-05 861.095 -3.76752e-05 861.923L2.99996 861.923ZM-3.79378e-05 867.93C-3.7974e-05 868.758 0.671535 869.43 1.49996 869.43C2.32839 869.43 2.99996 868.758 2.99996 867.93L-3.79378e-05 867.93ZM2.99996 873.936C2.99996 873.107 2.32839 872.436 1.49996 872.436C0.671535 872.436 -3.81641e-05 873.107 -3.82003e-05 873.936L2.99996 873.936ZM-3.84629e-05 879.942C-3.84991e-05 880.771 0.671534 881.442 1.49996 881.442C2.32839 881.442 2.99996 880.771 2.99996 879.942L-3.84629e-05 879.942ZM2.99996 885.948C2.99996 885.12 2.32839 884.448 1.49996 884.448C0.671534 884.448 -3.86892e-05 885.12 -3.87254e-05 885.948L2.99996 885.948ZM-3.8988e-05 891.955C-3.90242e-05 892.783 0.671534 893.455 1.49996 893.455C2.32839 893.455 2.99996 892.783 2.99996 891.955L-3.8988e-05 891.955ZM2.99996 897.961C2.99996 897.133 2.32839 896.461 1.49996 896.461C0.671534 896.461 -3.92143e-05 897.133 -3.92505e-05 897.961L2.99996 897.961ZM-3.95131e-05 903.968C-3.95493e-05 904.796 0.671533 905.468 1.49996 905.468C2.32839 905.468 2.99996 904.796 2.99996 903.968L-3.95131e-05 903.968ZM2.99996 909.974C2.99996 909.145 2.32839 908.474 1.49996 908.474C0.671533 908.474 -3.97394e-05 909.145 -3.97756e-05 909.974L2.99996 909.974ZM-4.00381e-05 915.98C-4.00744e-05 916.809 0.671533 917.48 1.49996 917.48C2.32839 917.48 2.99996 916.809 2.99996 915.98L-4.00381e-05 915.98ZM2.99996 921.987C2.99996 921.158 2.32839 920.487 1.49996 920.487C0.671533 920.487 -4.02645e-05 921.158 -4.03007e-05 921.987L2.99996 921.987ZM-4.05632e-05 927.993C-4.05995e-05 928.821 0.671532 929.493 1.49996 929.493C2.32839 929.493 2.99996 928.821 2.99996 927.993L-4.05632e-05 927.993ZM2.99996 933.999C2.99996 933.171 2.32839 932.499 1.49996 932.499C0.671532 932.499 -4.07896e-05 933.171 -4.08258e-05 933.999L2.99996 933.999ZM-4.10883e-05 940.006C-4.11245e-05 940.834 0.671532 941.506 1.49996 941.506C2.32839 941.506 2.99996 940.834 2.99996 940.006L-4.10883e-05 940.006ZM2.99996 946.012C2.99996 945.184 2.32839 944.512 1.49996 944.512C0.671532 944.512 -4.13147e-05 945.184 -4.13509e-05 946.012L2.99996 946.012ZM-4.16134e-05 952.018C-4.16496e-05 952.847 0.671531 953.518 1.49996 953.518C2.32839 953.518 2.99996 952.847 2.99996 952.018L-4.16134e-05 952.018ZM2.99996 958.025C2.99996 957.196 2.32839 956.525 1.49996 956.525C0.671531 956.525 -4.18398e-05 957.196 -4.1876e-05 958.025L2.99996 958.025ZM-4.21385e-05 964.031C-4.21747e-05 964.859 0.671531 965.531 1.49996 965.531C2.32838 965.531 2.99996 964.859 2.99996 964.031L-4.21385e-05 964.031ZM2.99996 970.037C2.99996 969.209 2.32838 968.537 1.49996 968.537C0.671531 968.537 -4.23648e-05 969.209 -4.24011e-05 970.037L2.99996 970.037ZM-4.26636e-05 976.044C-4.26998e-05 976.872 0.67153 977.544 1.49996 977.544C2.32838 977.544 2.99996 976.872 2.99996 976.044L-4.26636e-05 976.044ZM2.99996 982.05C2.99996 981.222 2.32838 980.55 1.49996 980.55C0.67153 980.55 -4.28899e-05 981.222 -4.29262e-05 982.05L2.99996 982.05ZM-4.31887e-05 988.056C-4.32249e-05 988.885 0.67153 989.556 1.49996 989.556C2.32838 989.556 2.99996 988.885 2.99996 988.056L-4.31887e-05 988.056ZM2.99996 994.063C2.99996 993.234 2.32838 992.563 1.49996 992.563C0.671529 992.563 -4.3415e-05 993.234 -4.34512e-05 994.063L2.99996 994.063ZM-4.37138e-05 1000.07C-4.375e-05 1000.9 0.671529 1001.57 1.49996 1001.57C2.32838 1001.57 2.99996 1000.9 2.99996 1000.07L-4.37138e-05 1000.07ZM2.99996 1006.08C2.99996 1005.25 2.32838 1004.58 1.49996 1004.58C0.671529 1004.58 -4.39401e-05 1005.25 -4.39763e-05 1006.08L2.99996 1006.08ZM-4.42389e-05 1012.08C-4.42751e-05 1012.91 0.671529 1013.58 1.49996 1013.58C2.32838 1013.58 2.99996 1012.91 2.99996 1012.08L-4.42389e-05 1012.08ZM2.99996 1018.09C2.99996 1017.26 2.32838 1016.59 1.49996 1016.59C0.671528 1016.59 -4.44652e-05 1017.26 -4.45014e-05 1018.09L2.99996 1018.09ZM-4.4764e-05 1024.09C-4.48002e-05 1024.92 0.671528 1025.59 1.49996 1025.59C2.32838 1025.59 2.99996 1024.92 2.99996 1024.09L-4.4764e-05 1024.09ZM2.99995 1030.1C2.99996 1029.27 2.32838 1028.6 1.49996 1028.6C0.671528 1028.6 -4.49903e-05 1029.27 -4.50265e-05 1030.1L2.99995 1030.1ZM-4.52891e-05 1036.11C-4.53253e-05 1036.94 0.671528 1037.61 1.49995 1037.61C2.32838 1037.61 2.99995 1036.94 2.99995 1036.11L-4.52891e-05 1036.11ZM2.99995 1042.11C2.99995 1041.29 2.32838 1040.61 1.49995 1040.61C0.671527 1040.61 -4.55154e-05 1041.29 -4.55516e-05 1042.11L2.99995 1042.11ZM-4.58142e-05 1048.12C-4.58504e-05 1048.95 0.671527 1049.62 1.49995 1049.62C2.32838 1049.62 2.99995 1048.95 2.99995 1048.12L-4.58142e-05 1048.12ZM2.99995 1054.13C2.99995 1053.3 2.32838 1052.63 1.49995 1052.63C0.671527 1052.63 -4.60405e-05 1053.3 -4.60767e-05 1054.13L2.99995 1054.13ZM-4.63392e-05 1060.13C-4.63755e-05 1060.96 0.671526 1061.63 1.49995 1061.63C2.32838 1061.63 2.99995 1060.96 2.99995 1060.13L-4.63392e-05 1060.13ZM2.99995 1066.14C2.99995 1065.31 2.32838 1064.64 1.49995 1064.64C0.671526 1064.64 -4.65656e-05 1065.31 -4.66018e-05 1066.14L2.99995 1066.14ZM-4.68643e-05 1072.15C-4.69005e-05 1072.97 0.671526 1073.65 1.49995 1073.65C2.32838 1073.65 2.99995 1072.97 2.99995 1072.15L-4.68643e-05 1072.15ZM2.99995 1078.15C2.99995 1077.32 2.32838 1076.65 1.49995 1076.65C0.671526 1076.65 -4.70907e-05 1077.32 -4.71269e-05 1078.15L2.99995 1078.15ZM-4.73894e-05 1084.16C-4.74256e-05 1084.99 0.671525 1085.66 1.49995 1085.66C2.32838 1085.66 2.99995 1084.99 2.99995 1084.16L-4.73894e-05 1084.16ZM2.99995 1090.16C2.99995 1089.34 2.32838 1088.66 1.49995 1088.66C0.671525 1088.66 -4.76158e-05 1089.34 -4.7652e-05 1090.16L2.99995 1090.16ZM-4.79145e-05 1096.17C-4.79507e-05 1097 0.671525 1097.67 1.49995 1097.67C2.32838 1097.67 2.99995 1097 2.99995 1096.17L-4.79145e-05 1096.17ZM2.99995 1102.18C2.99995 1101.35 2.32838 1100.68 1.49995 1100.68C0.671525 1100.68 -4.81409e-05 1101.35 -4.81771e-05 1102.18L2.99995 1102.18ZM-4.84396e-05 1108.18C-4.84758e-05 1109.01 0.671524 1109.68 1.49995 1109.68C2.32838 1109.68 2.99995 1109.01 2.99995 1108.18L-4.84396e-05 1108.18ZM2.99995 1114.19C2.99995 1113.36 2.32838 1112.69 1.49995 1112.69C0.671524 1112.69 -4.8666e-05 1113.36 -4.87022e-05 1114.19L2.99995 1114.19ZM-4.89647e-05 1120.2C-4.90009e-05 1121.02 0.671524 1121.7 1.49995 1121.7C2.32838 1121.7 2.99995 1121.02 2.99995 1120.2L-4.89647e-05 1120.2ZM2.99995 1126.2C2.99995 1125.37 2.32838 1124.7 1.49995 1124.7C0.671524 1124.7 -4.9191e-05 1125.37 -4.92273e-05 1126.2L2.99995 1126.2ZM-4.94898e-05 1132.21C-4.9526e-05 1133.04 0.671523 1133.71 1.49995 1133.71C2.32838 1133.71 2.99995 1133.04 2.99995 1132.21L-4.94898e-05 1132.21ZM2.99995 1138.22C2.99995 1137.39 2.32838 1136.72 1.49995 1136.72C0.671523 1136.72 -4.97161e-05 1137.39 -4.97523e-05 1138.22L2.99995 1138.22ZM-5.00149e-05 1144.22C-5.00511e-05 1145.05 0.671523 1145.72 1.49995 1145.72C2.32838 1145.72 2.99995 1145.05 2.99995 1144.22L-5.00149e-05 1144.22ZM2.99995 1150.23C2.99995 1149.4 2.32838 1148.73 1.49995 1148.73C0.671523 1148.73 -5.02412e-05 1149.4 -5.02774e-05 1150.23L2.99995 1150.23ZM-5.054e-05 1156.23C-5.05762e-05 1157.06 0.671522 1157.73 1.49995 1157.73C2.32838 1157.73 2.99995 1157.06 2.99995 1156.23L-5.054e-05 1156.23ZM2.99995 1162.24C2.99995 1161.41 2.32838 1160.74 1.49995 1160.74C0.671522 1160.74 -5.07663e-05 1161.41 -5.08025e-05 1162.24L2.99995 1162.24ZM-5.10651e-05 1168.25C-5.11013e-05 1169.08 0.671522 1169.75 1.49995 1169.75C2.32838 1169.75 2.99995 1169.08 2.99995 1168.25L-5.10651e-05 1168.25ZM2.99995 1174.25C2.99995 1173.42 2.32838 1172.75 1.49995 1172.75C0.671522 1172.75 -5.12914e-05 1173.42 -5.13276e-05 1174.25L2.99995 1174.25ZM-5.15902e-05 1180.26C-5.16264e-05 1181.09 0.671521 1181.76 1.49995 1181.76C2.32838 1181.76 2.99995 1181.09 2.99995 1180.26L-5.15902e-05 1180.26ZM2.99995 1186.27C2.99995 1185.44 2.32838 1184.77 1.49995 1184.77C0.671521 1184.77 -5.18165e-05 1185.44 -5.18527e-05 1186.27L2.99995 1186.27ZM-5.21153e-05 1192.27C-5.21515e-05 1193.1 0.671521 1193.77 1.49995 1193.77C2.32837 1193.77 2.99995 1193.1 2.99995 1192.27L-5.21153e-05 1192.27ZM2.99995 1198.28C2.99995 1197.45 2.32837 1196.78 1.49995 1196.78C0.671521 1196.78 -5.23416e-05 1197.45 -5.23778e-05 1198.28L2.99995 1198.28ZM-5.26403e-05 1204.28C-5.26766e-05 1205.11 0.67152 1205.78 1.49995 1205.78C2.32837 1205.78 2.99995 1205.11 2.99995 1204.28L-5.26403e-05 1204.28ZM2.99995 1210.29C2.99995 1209.46 2.32837 1208.79 1.49995 1208.79C0.67152 1208.79 -5.28667e-05 1209.46 -5.29029e-05 1210.29L2.99995 1210.29ZM-5.31654e-05 1216.3C-5.32016e-05 1217.13 0.67152 1217.8 1.49995 1217.8C2.32837 1217.8 2.99995 1217.13 2.99995 1216.3L-5.31654e-05 1216.3ZM2.99995 1222.3C2.99995 1221.48 2.32837 1220.8 1.49995 1220.8C0.67152 1220.8 -5.33918e-05 1221.48 -5.3428e-05 1222.3L2.99995 1222.3ZM-5.36905e-05 1228.31C-5.37267e-05 1229.14 0.671519 1229.81 1.49995 1229.81C2.32837 1229.81 2.99995 1229.14 2.99995 1228.31L-5.36905e-05 1228.31ZM2.99995 1234.32C2.99995 1233.49 2.32837 1232.82 1.49995 1232.82C0.671519 1232.82 -5.39169e-05 1233.49 -5.39531e-05 1234.32L2.99995 1234.32ZM-5.42156e-05 1240.32C-5.42518e-05 1241.15 0.671519 1241.82 1.49995 1241.82C2.32837 1241.82 2.99995 1241.15 2.99995 1240.32L-5.42156e-05 1240.32ZM2.99995 1246.33C2.99995 1245.5 2.32837 1244.83 1.49995 1244.83C0.671518 1244.83 -5.4442e-05 1245.5 -5.44782e-05 1246.33L2.99995 1246.33ZM-5.47407e-05 1252.34C-5.47769e-05 1253.16 0.671518 1253.84 1.49995 1253.84C2.32837 1253.84 2.99995 1253.16 2.99995 1252.34L-5.47407e-05 1252.34ZM2.99994 1258.34C2.99995 1257.51 2.32837 1256.84 1.49995 1256.84C0.671518 1256.84 -5.4967e-05 1257.51 -5.50033e-05 1258.34L2.99994 1258.34ZM-5.52658e-05 1264.35C-5.5302e-05 1265.18 0.671518 1265.85 1.49994 1265.85C2.32837 1265.85 2.99994 1265.18 2.99994 1264.35L-5.52658e-05 1264.35ZM2.99994 1270.35C2.99994 1269.53 2.32837 1268.85 1.49994 1268.85C0.671517 1268.85 -5.54921e-05 1269.53 -5.55284e-05 1270.35L2.99994 1270.35ZM-5.57909e-05 1276.36C-5.58271e-05 1277.19 0.671517 1277.86 1.49994 1277.86C2.32837 1277.86 2.99994 1277.19 2.99994 1276.36L-5.57909e-05 1276.36ZM2.99994 1282.37C2.99994 1281.54 2.32837 1280.87 1.49994 1280.87C0.671517 1280.87 -5.60172e-05 1281.54 -5.60534e-05 1282.37L2.99994 1282.37ZM-5.6316e-05 1288.37C-5.63522e-05 1289.2 0.671516 1289.87 1.49994 1289.87C2.32837 1289.87 2.99994 1289.2 2.99994 1288.37L-5.6316e-05 1288.37ZM2.99994 1294.38C2.99994 1293.55 2.32837 1292.88 1.49994 1292.88C0.671516 1292.88 -5.65423e-05 1293.55 -5.65785e-05 1294.38L2.99994 1294.38ZM-5.68411e-05 1300.39C-5.68773e-05 1301.21 0.671516 1301.89 1.49994 1301.89C2.32837 1301.89 2.99994 1301.21 2.99994 1300.39L-5.68411e-05 1300.39ZM2.99994 1306.39C2.99994 1305.56 2.32837 1304.89 1.49994 1304.89C0.671516 1304.89 -5.70674e-05 1305.56 -5.71036e-05 1306.39L2.99994 1306.39ZM-5.73662e-05 1312.4C-5.74024e-05 1313.23 0.671515 1313.9 1.49994 1313.9C2.32837 1313.9 2.99994 1313.23 2.99994 1312.4L-5.73662e-05 1312.4ZM2.99994 1318.41C2.99994 1317.58 2.32837 1316.91 1.49994 1316.91C0.671515 1316.91 -5.75925e-05 1317.58 -5.76287e-05 1318.41L2.99994 1318.41ZM-5.78913e-05 1324.41C-5.79275e-05 1325.24 0.671515 1325.91 1.49994 1325.91C2.32837 1325.91 2.99994 1325.24 2.99994 1324.41L-5.78913e-05 1324.41ZM2.99994 1330.42C2.99994 1329.59 2.32837 1328.92 1.49994 1328.92C0.671515 1328.92 -5.81176e-05 1329.59 -5.81538e-05 1330.42L2.99994 1330.42ZM-5.84164e-05 1336.42C-5.84526e-05 1337.25 0.671514 1337.92 1.49994 1337.92C2.32837 1337.92 2.99994 1337.25 2.99994 1336.42L-5.84164e-05 1336.42ZM2.99994 1342.43C2.99994 1341.6 2.32837 1340.93 1.49994 1340.93C0.671514 1340.93 -5.86427e-05 1341.6 -5.86789e-05 1342.43L2.99994 1342.43ZM-5.89414e-05 1348.44C-5.89777e-05 1349.27 0.671514 1349.94 1.49994 1349.94C2.32837 1349.94 2.99994 1349.27 2.99994 1348.44L-5.89414e-05 1348.44ZM2.99994 1354.44C2.99994 1353.62 2.32837 1352.94 1.49994 1352.94C0.671514 1352.94 -5.91678e-05 1353.62 -5.9204e-05 1354.44L2.99994 1354.44ZM-5.94665e-05 1360.45C-5.95027e-05 1361.28 0.671513 1361.95 1.49994 1361.95C2.32837 1361.95 2.99994 1361.28 2.99994 1360.45L-5.94665e-05 1360.45ZM2.99994 1366.46C2.99994 1365.63 2.32837 1364.96 1.49994 1364.96C0.671513 1364.96 -5.96929e-05 1365.63 -5.97291e-05 1366.46L2.99994 1366.46ZM-5.99916e-05 1372.46C-6.00278e-05 1373.29 0.671513 1373.96 1.49994 1373.96C2.32837 1373.96 2.99994 1373.29 2.99994 1372.46L-5.99916e-05 1372.46ZM2.99994 1378.47C2.99994 1377.64 2.32837 1376.97 1.49994 1376.97C0.671513 1376.97 -6.0218e-05 1377.64 -6.02542e-05 1378.47L2.99994 1378.47ZM-6.05167e-05 1384.48C-6.05529e-05 1385.3 0.671512 1385.98 1.49994 1385.98C2.32837 1385.98 2.99994 1385.3 2.99994 1384.48L-6.05167e-05 1384.48ZM2.99994 1390.48C2.99994 1389.65 2.32837 1388.98 1.49994 1388.98C0.671512 1388.98 -6.07431e-05 1389.65 -6.07793e-05 1390.48L2.99994 1390.48ZM-6.10418e-05 1396.49C-6.1078e-05 1397.32 0.671512 1397.99 1.49994 1397.99C2.32837 1397.99 2.99994 1397.32 2.99994 1396.49L-6.10418e-05 1396.49ZM2.99994 1402.49C2.99994 1401.67 2.32837 1400.99 1.49994 1400.99C0.671512 1400.99 -6.12681e-05 1401.67 -6.13044e-05 1402.49L2.99994 1402.49ZM-6.15669e-05 1408.5C-6.16031e-05 1409.33 0.671511 1410 1.49994 1410C2.32837 1410 2.99994 1409.33 2.99994 1408.5L-6.15669e-05 1408.5ZM2.99994 1414.51C2.99994 1413.68 2.32837 1413.01 1.49994 1413.01C0.671511 1413.01 -6.17932e-05 1413.68 -6.18294e-05 1414.51L2.99994 1414.51ZM-6.2092e-05 1420.51C-6.21282e-05 1421.34 0.671511 1422.01 1.49994 1422.01C2.32836 1422.01 2.99994 1421.34 2.99994 1420.51L-6.2092e-05 1420.51ZM2.99994 1426.52C2.99994 1425.69 2.32836 1425.02 1.49994 1425.02C0.671511 1425.02 -6.23183e-05 1425.69 -6.23545e-05 1426.52L2.99994 1426.52ZM-6.26171e-05 1432.53C-6.26533e-05 1433.35 0.67151 1434.03 1.49994 1434.03C2.32836 1434.03 2.99994 1433.35 2.99994 1432.53L-6.26171e-05 1432.53ZM2.99994 1438.53C2.99994 1437.7 2.32836 1437.03 1.49994 1437.03C0.67151 1437.03 -6.28434e-05 1437.7 -6.28796e-05 1438.53L2.99994 1438.53ZM-6.31422e-05 1444.54C-6.31784e-05 1445.37 0.67151 1446.04 1.49994 1446.04C2.32836 1446.04 2.99994 1445.37 2.99994 1444.54L-6.31422e-05 1444.54ZM2.99994 1450.55C2.99994 1449.72 2.32836 1449.05 1.49994 1449.05C0.67151 1449.05 -6.33685e-05 1449.72 -6.34047e-05 1450.55L2.99994 1450.55ZM-6.36673e-05 1456.55C-6.37035e-05 1457.38 0.671509 1458.05 1.49994 1458.05C2.32836 1458.05 2.99994 1457.38 2.99994 1456.55L-6.36673e-05 1456.55ZM2.99994 1462.56C2.99994 1461.73 2.32836 1461.06 1.49994 1461.06C0.671509 1461.06 -6.38936e-05 1461.73 -6.39298e-05 1462.56L2.99994 1462.56ZM-6.41924e-05 1468.56C-6.42286e-05 1469.39 0.671509 1470.06 1.49994 1470.06C2.32836 1470.06 2.99994 1469.39 2.99994 1468.56L-6.41924e-05 1468.56ZM2.99994 1474.57C2.99994 1473.74 2.32836 1473.07 1.49994 1473.07C0.671508 1473.07 -6.44187e-05 1473.74 -6.44549e-05 1474.57L2.99994 1474.57ZM-6.47175e-05 1480.58C-6.47537e-05 1481.41 0.671508 1482.08 1.49994 1482.08C2.32836 1482.08 2.99994 1481.41 2.99994 1480.58L-6.47175e-05 1480.58ZM2.99994 1486.58C2.99994 1485.75 2.32836 1485.08 1.49994 1485.08C0.671508 1485.08 -6.49438e-05 1485.75 -6.498e-05 1486.58L2.99994 1486.58ZM-6.52425e-05 1492.59C-6.52788e-05 1493.42 0.671508 1494.09 1.49993 1494.09C2.32836 1494.09 2.99993 1493.42 2.99993 1492.59L-6.52425e-05 1492.59ZM2.99993 1498.6C2.99993 1497.77 2.32836 1497.1 1.49993 1497.1C0.671507 1497.1 -6.54689e-05 1497.77 -6.55051e-05 1498.6L2.99993 1498.6ZM-6.57676e-05 1504.6C-6.58039e-05 1505.43 0.671507 1506.1 1.49993 1506.1C2.32836 1506.1 2.99993 1505.43 2.99993 1504.6L-6.57676e-05 1504.6ZM2.99993 1510.61C2.99993 1509.78 2.32836 1509.11 1.49993 1509.11C0.671507 1509.11 -6.5994e-05 1509.78 -6.60302e-05 1510.61L2.99993 1510.61ZM-6.62927e-05 1516.61C-6.63289e-05 1517.44 0.671507 1518.11 1.49993 1518.11C2.32836 1518.11 2.99993 1517.44 2.99993 1516.61L-6.62927e-05 1516.61ZM2.99993 1522.62C2.99993 1521.79 2.32836 1521.12 1.49993 1521.12C0.671506 1521.12 -6.65191e-05 1521.79 -6.65553e-05 1522.62L2.99993 1522.62ZM-6.68178e-05 1528.63C-6.6854e-05 1529.46 0.671506 1530.13 1.49993 1530.13C2.32836 1530.13 2.99993 1529.46 2.99993 1528.63L-6.68178e-05 1528.63ZM2.99993 1534.63C2.99993 1533.81 2.32836 1533.13 1.49993 1533.13C0.671506 1533.13 -6.70442e-05 1533.81 -6.70804e-05 1534.63L2.99993 1534.63ZM-6.73429e-05 1540.64C-6.73791e-05 1541.47 0.671505 1542.14 1.49993 1542.14C2.32836 1542.14 2.99993 1541.47 2.99993 1540.64L-6.73429e-05 1540.64ZM2.99993 1546.65C2.99993 1545.82 2.32836 1545.15 1.49993 1545.15C0.671505 1545.15 -6.75692e-05 1545.82 -6.76055e-05 1546.65L2.99993 1546.65ZM-6.7868e-05 1552.65C-6.79042e-05 1553.48 0.671505 1554.15 1.49993 1554.15C2.32836 1554.15 2.99993 1553.48 2.99993 1552.65L-6.7868e-05 1552.65ZM2.99993 1558.66C2.99993 1557.83 2.32836 1557.16 1.49993 1557.16C0.671505 1557.16 -6.80943e-05 1557.83 -6.81306e-05 1558.66L2.99993 1558.66ZM-6.83931e-05 1564.67C-6.84293e-05 1565.49 0.671504 1566.17 1.49993 1566.17C2.32836 1566.17 2.99993 1565.49 2.99993 1564.67L-6.83931e-05 1564.67ZM2.99993 1570.67C2.99993 1569.84 2.32836 1569.17 1.49993 1569.17C0.671504 1569.17 -6.86194e-05 1569.84 -6.86556e-05 1570.67L2.99993 1570.67ZM-6.89182e-05 1576.68C-6.89544e-05 1577.51 0.671504 1578.18 1.49993 1578.18C2.32836 1578.18 2.99993 1577.51 2.99993 1576.68L-6.89182e-05 1576.68ZM2.99993 1582.68C2.99993 1581.86 2.32836 1581.18 1.49993 1581.18C0.671504 1581.18 -6.91445e-05 1581.86 -6.91807e-05 1582.68L2.99993 1582.68ZM-6.94433e-05 1588.69C-6.94795e-05 1589.52 0.671503 1590.19 1.49993 1590.19C2.32836 1590.19 2.99993 1589.52 2.99993 1588.69L-6.94433e-05 1588.69ZM2.99993 1594.7C2.99993 1593.87 2.32836 1593.2 1.49993 1593.2C0.671503 1593.2 -6.96696e-05 1593.87 -6.97058e-05 1594.7L2.99993 1594.7ZM-6.99684e-05 1600.7C-7.00046e-05 1601.53 0.671503 1602.2 1.49993 1602.2C2.32836 1602.2 2.99993 1601.53 2.99993 1600.7L-6.99684e-05 1600.7ZM2.99993 1606.71C2.99993 1605.88 2.32836 1605.21 1.49993 1605.21C0.671503 1605.21 -7.01947e-05 1605.88 -7.02309e-05 1606.71L2.99993 1606.71ZM-7.04935e-05 1612.72C-7.05297e-05 1613.54 0.671502 1614.22 1.49993 1614.22C2.32836 1614.22 2.99993 1613.54 2.99993 1612.72L-7.04935e-05 1612.72ZM2.99993 1618.72C2.99993 1617.89 2.32836 1617.22 1.49993 1617.22C0.671502 1617.22 -7.07198e-05 1617.89 -7.0756e-05 1618.72L2.99993 1618.72ZM-7.10186e-05 1624.73C-7.10548e-05 1625.56 0.671502 1626.23 1.49993 1626.23C2.32836 1626.23 2.99993 1625.56 2.99993 1624.73L-7.10186e-05 1624.73ZM2.99993 1630.74C2.99993 1629.91 2.32836 1629.24 1.49993 1629.24C0.671502 1629.24 -7.12449e-05 1629.91 -7.12811e-05 1630.74L2.99993 1630.74ZM-7.15436e-05 1636.74C-7.15799e-05 1637.57 0.671501 1638.24 1.49993 1638.24C2.32836 1638.24 2.99993 1637.57 2.99993 1636.74L-7.15436e-05 1636.74ZM2.99993 1642.75C2.99993 1641.92 2.32836 1641.25 1.49993 1641.25C0.671501 1641.25 -7.177e-05 1641.92 -7.18062e-05 1642.75L2.99993 1642.75ZM-7.20687e-05 1648.75C-7.21049e-05 1649.58 0.671501 1650.25 1.49993 1650.25C2.32836 1650.25 2.99993 1649.58 2.99993 1648.75L-7.20687e-05 1648.75ZM2.99993 1654.76C2.99993 1653.93 2.32835 1653.26 1.49993 1653.26C0.671501 1653.26 -7.22951e-05 1653.93 -7.23313e-05 1654.76L2.99993 1654.76ZM-7.25938e-05 1660.77C-7.263e-05 1661.6 0.6715 1662.27 1.49993 1662.27C2.32835 1662.27 2.99993 1661.6 2.99993 1660.77L-7.25938e-05 1660.77ZM2.99993 1666.77C2.99993 1665.95 2.32835 1665.27 1.49993 1665.27C0.6715 1665.27 -7.28202e-05 1665.95 -7.28564e-05 1666.77L2.99993 1666.77ZM-7.31189e-05 1672.78C-7.31551e-05 1673.61 0.6715 1674.28 1.49993 1674.28C2.32835 1674.28 2.99993 1673.61 2.99993 1672.78L-7.31189e-05 1672.78ZM2.99993 1678.79C2.99993 1677.96 2.32835 1677.29 1.49993 1677.29C0.6715 1677.29 -7.33453e-05 1677.96 -7.33815e-05 1678.79L2.99993 1678.79ZM-7.3644e-05 1684.79C-7.36802e-05 1685.62 0.671499 1686.29 1.49993 1686.29C2.32835 1686.29 2.99993 1685.62 2.99993 1684.79L-7.3644e-05 1684.79ZM2.99993 1690.8C2.99993 1689.97 2.32835 1689.3 1.49993 1689.3C0.671499 1689.3 -7.38703e-05 1689.97 -7.39066e-05 1690.8L2.99993 1690.8ZM-7.41691e-05 1696.81C-7.42053e-05 1697.63 0.671499 1698.31 1.49993 1698.31C2.32835 1698.31 2.99993 1697.63 2.99993 1696.81L-7.41691e-05 1696.81ZM2.99993 1702.81C2.99993 1701.98 2.32835 1701.31 1.49993 1701.31C0.671498 1701.31 -7.43954e-05 1701.98 -7.44316e-05 1702.81L2.99993 1702.81ZM-7.46942e-05 1708.82C-7.47304e-05 1709.65 0.671498 1710.32 1.49993 1710.32C2.32835 1710.32 2.99993 1709.65 2.99993 1708.82L-7.46942e-05 1708.82ZM2.99993 1714.82C2.99993 1714 2.32835 1713.32 1.49993 1713.32C0.671498 1713.32 -7.49205e-05 1714 -7.49567e-05 1714.82L2.99993 1714.82ZM-7.52193e-05 1720.83C-7.52555e-05 1721.66 0.671498 1722.33 1.49992 1722.33C2.32835 1722.33 2.99992 1721.66 2.99992 1720.83L-7.52193e-05 1720.83ZM2.99992 1726.84C2.99992 1726.01 2.32835 1725.34 1.49992 1725.34C0.671497 1725.34 -7.54456e-05 1726.01 -7.54818e-05 1726.84L2.99992 1726.84ZM-7.57444e-05 1732.84C-7.57806e-05 1733.67 0.671497 1734.34 1.49992 1734.34C2.32835 1734.34 2.99992 1733.67 2.99992 1732.84L-7.57444e-05 1732.84ZM2.99992 1738.85C2.99992 1738.02 2.32835 1737.35 1.49992 1737.35C0.671497 1737.35 -7.59707e-05 1738.02 -7.60069e-05 1738.85L2.99992 1738.85ZM-7.62695e-05 1744.86C-7.63057e-05 1745.68 0.671497 1746.36 1.49992 1746.36C2.32835 1746.36 2.99992 1745.68 2.99992 1744.86L-7.62695e-05 1744.86ZM2.99992 1750.86C2.99992 1750.03 2.32835 1749.36 1.49992 1749.36C0.671496 1749.36 -7.64958e-05 1750.03 -7.6532e-05 1750.86L2.99992 1750.86ZM-7.67946e-05 1756.87C-7.68308e-05 1757.7 0.671496 1758.37 1.49992 1758.37C2.32835 1758.37 2.99992 1757.7 2.99992 1756.87L-7.67946e-05 1756.87ZM2.99992 1762.88C2.99992 1762.05 2.32835 1761.38 1.49992 1761.38C0.671496 1761.38 -7.70209e-05 1762.05 -7.70571e-05 1762.88L2.99992 1762.88ZM-7.73197e-05 1768.88C-7.73559e-05 1769.71 0.671495 1770.38 1.49992 1770.38C2.32835 1770.38 2.99992 1769.71 2.99992 1768.88L-7.73197e-05 1768.88ZM2.99992 1774.89C2.99992 1774.06 2.32835 1773.39 1.49992 1773.39C0.671495 1773.39 -7.7546e-05 1774.06 -7.75822e-05 1774.89L2.99992 1774.89ZM-7.78447e-05 1780.89C-7.7881e-05 1781.72 0.671495 1782.39 1.49992 1782.39C2.32835 1782.39 2.99992 1781.72 2.99992 1780.89L-7.78447e-05 1780.89ZM2.99992 1786.9C2.99992 1786.07 2.32835 1785.4 1.49992 1785.4C0.671495 1785.4 -7.80711e-05 1786.07 -7.81073e-05 1786.9L2.99992 1786.9ZM-7.83698e-05 1792.91C-7.8406e-05 1793.74 0.671494 1794.41 1.49992 1794.41C2.32835 1794.41 2.99992 1793.74 2.99992 1792.91L-7.83698e-05 1792.91ZM2.99992 1798.91C2.99992 1798.08 2.32835 1797.41 1.49992 1797.41C0.671494 1797.41 -7.85962e-05 1798.08 -7.86324e-05 1798.91L2.99992 1798.91ZM-7.88949e-05 1804.92C-7.89311e-05 1805.75 0.671494 1806.42 1.49992 1806.42C2.32835 1806.42 2.99992 1805.75 2.99992 1804.92L-7.88949e-05 1804.92ZM2.99992 1810.93C2.99992 1810.1 2.32835 1809.43 1.49992 1809.43C0.671494 1809.43 -7.91213e-05 1810.1 -7.91575e-05 1810.93L2.99992 1810.93ZM-7.942e-05 1816.93C-7.94562e-05 1817.76 0.671493 1818.43 1.49992 1818.43C2.32835 1818.43 2.99992 1817.76 2.99992 1816.93L-7.942e-05 1816.93ZM2.99992 1822.94C2.99992 1822.11 2.32835 1821.44 1.49992 1821.44C0.671493 1821.44 -7.96464e-05 1822.11 -7.96826e-05 1822.94L2.99992 1822.94ZM-7.99451e-05 1828.95C-7.99813e-05 1829.77 0.671493 1830.45 1.49992 1830.45C2.32835 1830.45 2.99992 1829.77 2.99992 1828.95L-7.99451e-05 1828.95ZM2.99992 1834.95C2.99992 1834.12 2.32835 1833.45 1.49992 1833.45C0.671493 1833.45 -8.01714e-05 1834.12 -8.02077e-05 1834.95L2.99992 1834.95ZM-8.04702e-05 1840.96C-8.05064e-05 1841.79 0.671492 1842.46 1.49992 1842.46C2.32835 1842.46 2.99992 1841.79 2.99992 1840.96L-8.04702e-05 1840.96ZM2.99992 1846.96C2.99992 1846.14 2.32835 1845.46 1.49992 1845.46C0.671492 1845.46 -8.06965e-05 1846.14 -8.07327e-05 1846.96L2.99992 1846.96ZM-8.09953e-05 1852.97C-8.10315e-05 1853.8 0.671492 1854.47 1.49992 1854.47C2.32835 1854.47 2.99992 1853.8 2.99992 1852.97L-8.09953e-05 1852.97ZM2.99992 1858.98C2.99992 1858.15 2.32835 1857.48 1.49992 1857.48C0.671492 1857.48 -8.12216e-05 1858.15 -8.12578e-05 1858.98L2.99992 1858.98ZM-8.15204e-05 1864.98C-8.15566e-05 1865.81 0.671491 1866.48 1.49992 1866.48C2.32835 1866.48 2.99992 1865.81 2.99992 1864.98L-8.15204e-05 1864.98ZM2.99992 1870.99C2.99992 1870.16 2.32835 1869.49 1.49992 1869.49C0.671491 1869.49 -8.17467e-05 1870.16 -8.17829e-05 1870.99L2.99992 1870.99ZM-8.20455e-05 1877C-8.20817e-05 1877.82 0.671491 1878.5 1.49992 1878.5C2.32835 1878.5 2.99992 1877.82 2.99992 1877L-8.20455e-05 1877ZM2.99992 1883C2.99992 1882.17 2.32834 1881.5 1.49992 1881.5C0.671491 1881.5 -8.22718e-05 1882.17 -8.2308e-05 1883L2.99992 1883ZM-8.25706e-05 1889.01C-8.26068e-05 1889.84 0.67149 1890.51 1.49992 1890.51C2.32834 1890.51 2.99992 1889.84 2.99992 1889.01L-8.25706e-05 1889.01ZM2.99992 1895.01C2.99992 1894.19 2.32834 1893.51 1.49992 1893.51C0.67149 1893.51 -8.27969e-05 1894.19 -8.28331e-05 1895.01L2.99992 1895.01ZM0 0.0141601L-1.31272e-07 3.01732L3 3.01732L3 0.0141602L0 0.0141601ZM-3.93817e-07 9.02365L-6.56362e-07 15.03L3 15.03L3 9.02365L-3.93817e-07 9.02365ZM-9.18907e-07 21.0363L-1.18145e-06 27.0426L3 27.0426L3 21.0363L-9.18907e-07 21.0363ZM-1.444e-06 33.049L-1.70654e-06 39.0553L3 39.0553L3 33.049L-1.444e-06 33.049ZM-1.96909e-06 45.0616L-2.23163e-06 51.068L3 51.068L3 45.0616L-1.96909e-06 45.0616ZM-2.49418e-06 57.0743L-2.75672e-06 63.0806L3 63.0806L3 57.0743L-2.49418e-06 57.0743ZM-3.01927e-06 69.0869L-3.28181e-06 75.0933L3 75.0933L3 69.0869L-3.01927e-06 69.0869ZM-3.54436e-06 81.0996L-3.8069e-06 87.1059L3 87.1059L3 81.0996L-3.54436e-06 81.0996ZM-4.06945e-06 93.1123L-4.33199e-06 99.1186L3 99.1186L3 93.1123L-4.06945e-06 93.1123ZM-4.59454e-06 105.125L-4.85708e-06 111.131L3 111.131L3 105.125L-4.59454e-06 105.125ZM-5.11963e-06 117.138L-5.38217e-06 123.144L2.99999 123.144L2.99999 117.138L-5.11963e-06 117.138ZM-5.64472e-06 129.15L-5.90726e-06 135.157L2.99999 135.157L2.99999 129.15L-5.64472e-06 129.15ZM-6.16981e-06 141.163L-6.43235e-06 147.169L2.99999 147.169L2.99999 141.163L-6.16981e-06 141.163ZM-6.6949e-06 153.176L-6.95744e-06 159.182L2.99999 159.182L2.99999 153.176L-6.6949e-06 153.176ZM-7.21999e-06 165.188L-7.48253e-06 171.195L2.99999 171.195L2.99999 165.188L-7.21999e-06 165.188ZM-7.74508e-06 177.201L-8.00762e-06 183.207L2.99999 183.207L2.99999 177.201L-7.74508e-06 177.201ZM-8.27017e-06 189.214L-8.53271e-06 195.22L2.99999 195.22L2.99999 189.214L-8.27017e-06 189.214ZM-8.79526e-06 201.226L-9.05781e-06 207.233L2.99999 207.233L2.99999 201.226L-8.79526e-06 201.226ZM-9.32035e-06 213.239L-9.5829e-06 219.245L2.99999 219.245L2.99999 213.239L-9.32035e-06 213.239ZM-9.84544e-06 225.252L-1.0108e-05 231.258L2.99999 231.258L2.99999 225.252L-9.84544e-06 225.252ZM-1.03705e-05 237.264L-1.06331e-05 243.271L2.99999 243.271L2.99999 237.264L-1.03705e-05 237.264ZM-1.08956e-05 249.277L-1.11582e-05 255.283L2.99999 255.283L2.99999 249.277L-1.08956e-05 249.277ZM-1.14207e-05 261.29L-1.16833e-05 267.296L2.99999 267.296L2.99999 261.29L-1.14207e-05 261.29ZM-1.19458e-05 273.302L-1.22083e-05 279.309L2.99999 279.309L2.99999 273.302L-1.19458e-05 273.302ZM-1.24709e-05 285.315L-1.27334e-05 291.321L2.99999 291.321L2.99999 285.315L-1.24709e-05 285.315ZM-1.2996e-05 297.327L-1.32585e-05 303.334L2.99999 303.334L2.99999 297.327L-1.2996e-05 297.327ZM-1.35211e-05 309.34L-1.37836e-05 315.346L2.99999 315.346L2.99999 309.34L-1.35211e-05 309.34ZM-1.40462e-05 321.353L-1.43087e-05 327.359L2.99999 327.359L2.99999 321.353L-1.40462e-05 321.353ZM-1.45712e-05 333.365L-1.48338e-05 339.372L2.99999 339.372L2.99999 333.365L-1.45712e-05 333.365ZM-1.50963e-05 345.378L-1.53589e-05 351.384L2.99998 351.384L2.99998 345.378L-1.50963e-05 345.378ZM-1.56214e-05 357.391L-1.5884e-05 363.397L2.99998 363.397L2.99998 357.391L-1.56214e-05 357.391ZM-1.61465e-05 369.403L-1.64091e-05 375.41L2.99998 375.41L2.99998 369.403L-1.61465e-05 369.403ZM-1.66716e-05 381.416L-1.69341e-05 387.422L2.99998 387.422L2.99998 381.416L-1.66716e-05 381.416ZM-1.71967e-05 393.429L-1.74592e-05 399.435L2.99998 399.435L2.99998 393.429L-1.71967e-05 393.429ZM-1.77218e-05 405.441L-1.79843e-05 411.448L2.99998 411.448L2.99998 405.441L-1.77218e-05 405.441ZM-1.82469e-05 417.454L-1.85094e-05 423.46L2.99998 423.46L2.99998 417.454L-1.82469e-05 417.454ZM-1.8772e-05 429.466L-1.90345e-05 435.473L2.99998 435.473L2.99998 429.466L-1.8772e-05 429.466ZM-1.9297e-05 441.479L-1.95596e-05 447.485L2.99998 447.485L2.99998 441.479L-1.9297e-05 441.479ZM-1.98221e-05 453.492L-2.00847e-05 459.498L2.99998 459.498L2.99998 453.492L-1.98221e-05 453.492ZM-2.03472e-05 465.504L-2.06098e-05 471.511L2.99998 471.511L2.99998 465.504L-2.03472e-05 465.504ZM-2.08723e-05 477.517L-2.11349e-05 483.523L2.99998 483.523L2.99998 477.517L-2.08723e-05 477.517ZM-2.13974e-05 489.53L-2.16599e-05 495.536L2.99998 495.536L2.99998 489.53L-2.13974e-05 489.53ZM-2.19225e-05 501.542L-2.2185e-05 507.549L2.99998 507.549L2.99998 501.542L-2.19225e-05 501.542ZM-2.24476e-05 513.555L-2.27101e-05 519.561L2.99998 519.561L2.99998 513.555L-2.24476e-05 513.555ZM-2.29727e-05 525.568L-2.32352e-05 531.574L2.99998 531.574L2.99998 525.568L-2.29727e-05 525.568ZM-2.34978e-05 537.58L-2.37603e-05 543.587L2.99998 543.587L2.99998 537.58L-2.34978e-05 537.58ZM-2.40229e-05 549.593L-2.42854e-05 555.599L2.99998 555.599L2.99998 549.593L-2.40229e-05 549.593ZM-2.45479e-05 561.606L-2.48105e-05 567.612L2.99998 567.612L2.99998 561.606L-2.45479e-05 561.606ZM-2.5073e-05 573.618L-2.53356e-05 579.625L2.99997 579.625L2.99997 573.618L-2.5073e-05 573.618ZM-2.55981e-05 585.631L-2.58607e-05 591.637L2.99997 591.637L2.99997 585.631L-2.55981e-05 585.631ZM-2.61232e-05 597.644L-2.63858e-05 603.65L2.99997 603.65L2.99997 597.644L-2.61232e-05 597.644ZM-2.66483e-05 609.656L-2.69109e-05 615.663L2.99997 615.663L2.99997 609.656L-2.66483e-05 609.656ZM-2.71734e-05 621.669L-2.7436e-05 627.676L2.99997 627.676L2.99997 621.669L-2.71734e-05 621.669ZM-2.76985e-05 633.682L-2.7961e-05 639.688L2.99997 639.688L2.99997 633.682L-2.76985e-05 633.682ZM-2.82236e-05 645.695L-2.84861e-05 651.701L2.99997 651.701L2.99997 645.695L-2.82236e-05 645.695ZM-2.87487e-05 657.707L-2.90112e-05 663.714L2.99997 663.714L2.99997 657.707L-2.87487e-05 657.707ZM-2.92738e-05 669.72L-2.95363e-05 675.726L2.99997 675.726L2.99997 669.72L-2.92738e-05 669.72ZM-2.97989e-05 681.733L-3.00614e-05 687.739L2.99997 687.739L2.99997 681.733L-2.97989e-05 681.733ZM-3.0324e-05 693.745L-3.05865e-05 699.752L2.99997 699.752L2.99997 693.745L-3.0324e-05 693.745ZM-3.0849e-05 705.758L-3.11116e-05 711.764L2.99997 711.764L2.99997 705.758L-3.0849e-05 705.758ZM-3.13741e-05 717.771L-3.16367e-05 723.777L2.99997 723.777L2.99997 717.771L-3.13741e-05 717.771ZM-3.18992e-05 729.783L-3.21618e-05 735.79L2.99997 735.79L2.99997 729.783L-3.18992e-05 729.783ZM-3.24243e-05 741.796L-3.26869e-05 747.802L2.99997 747.802L2.99997 741.796L-3.24243e-05 741.796ZM-3.29494e-05 753.809L-3.3212e-05 759.815L2.99997 759.815L2.99997 753.809L-3.29494e-05 753.809ZM-3.34745e-05 765.822L-3.3737e-05 771.828L2.99997 771.828L2.99997 765.822L-3.34745e-05 765.822ZM-3.39996e-05 777.834L-3.42621e-05 783.841L2.99997 783.841L2.99997 777.834L-3.39996e-05 777.834ZM-3.45247e-05 789.847L-3.47872e-05 795.853L2.99997 795.853L2.99997 789.847L-3.45247e-05 789.847ZM-3.50498e-05 801.86L-3.53123e-05 807.866L2.99996 807.866L2.99996 801.86L-3.50498e-05 801.86ZM-3.55749e-05 813.872L-3.58374e-05 819.879L2.99996 819.879L2.99996 813.872L-3.55749e-05 813.872ZM-3.61e-05 825.885L-3.63625e-05 831.891L2.99996 831.891L2.99996 825.885L-3.61e-05 825.885ZM-3.66251e-05 837.898L-3.68876e-05 843.904L2.99996 843.904L2.99996 837.898L-3.66251e-05 837.898ZM-3.71501e-05 849.91L-3.74127e-05 855.917L2.99996 855.917L2.99996 849.91L-3.71501e-05 849.91ZM-3.76752e-05 861.923L-3.79378e-05 867.93L2.99996 867.93L2.99996 861.923L-3.76752e-05 861.923ZM-3.82003e-05 873.936L-3.84629e-05 879.942L2.99996 879.942L2.99996 873.936L-3.82003e-05 873.936ZM-3.87254e-05 885.948L-3.8988e-05 891.955L2.99996 891.955L2.99996 885.948L-3.87254e-05 885.948ZM-3.92505e-05 897.961L-3.95131e-05 903.968L2.99996 903.968L2.99996 897.961L-3.92505e-05 897.961ZM-3.97756e-05 909.974L-4.00381e-05 915.98L2.99996 915.98L2.99996 909.974L-3.97756e-05 909.974ZM-4.03007e-05 921.987L-4.05632e-05 927.993L2.99996 927.993L2.99996 921.987L-4.03007e-05 921.987ZM-4.08258e-05 933.999L-4.10883e-05 940.006L2.99996 940.006L2.99996 933.999L-4.08258e-05 933.999ZM-4.13509e-05 946.012L-4.16134e-05 952.018L2.99996 952.018L2.99996 946.012L-4.13509e-05 946.012ZM-4.1876e-05 958.025L-4.21385e-05 964.031L2.99996 964.031L2.99996 958.025L-4.1876e-05 958.025ZM-4.24011e-05 970.037L-4.26636e-05 976.044L2.99996 976.044L2.99996 970.037L-4.24011e-05 970.037ZM-4.29262e-05 982.05L-4.31887e-05 988.056L2.99996 988.056L2.99996 982.05L-4.29262e-05 982.05ZM-4.34512e-05 994.063L-4.37138e-05 1000.07L2.99996 1000.07L2.99996 994.063L-4.34512e-05 994.063ZM-4.39763e-05 1006.08L-4.42389e-05 1012.08L2.99996 1012.08L2.99996 1006.08L-4.39763e-05 1006.08ZM-4.45014e-05 1018.09L-4.4764e-05 1024.09L2.99996 1024.09L2.99996 1018.09L-4.45014e-05 1018.09ZM-4.50265e-05 1030.1L-4.52891e-05 1036.11L2.99995 1036.11L2.99995 1030.1L-4.50265e-05 1030.1ZM-4.55516e-05 1042.11L-4.58142e-05 1048.12L2.99995 1048.12L2.99995 1042.11L-4.55516e-05 1042.11ZM-4.60767e-05 1054.13L-4.63392e-05 1060.13L2.99995 1060.13L2.99995 1054.13L-4.60767e-05 1054.13ZM-4.66018e-05 1066.14L-4.68643e-05 1072.15L2.99995 1072.15L2.99995 1066.14L-4.66018e-05 1066.14ZM-4.71269e-05 1078.15L-4.73894e-05 1084.16L2.99995 1084.16L2.99995 1078.15L-4.71269e-05 1078.15ZM-4.7652e-05 1090.16L-4.79145e-05 1096.17L2.99995 1096.17L2.99995 1090.16L-4.7652e-05 1090.16ZM-4.81771e-05 1102.18L-4.84396e-05 1108.18L2.99995 1108.18L2.99995 1102.18L-4.81771e-05 1102.18ZM-4.87022e-05 1114.19L-4.89647e-05 1120.2L2.99995 1120.2L2.99995 1114.19L-4.87022e-05 1114.19ZM-4.92273e-05 1126.2L-4.94898e-05 1132.21L2.99995 1132.21L2.99995 1126.2L-4.92273e-05 1126.2ZM-4.97523e-05 1138.22L-5.00149e-05 1144.22L2.99995 1144.22L2.99995 1138.22L-4.97523e-05 1138.22ZM-5.02774e-05 1150.23L-5.054e-05 1156.23L2.99995 1156.23L2.99995 1150.23L-5.02774e-05 1150.23ZM-5.08025e-05 1162.24L-5.10651e-05 1168.25L2.99995 1168.25L2.99995 1162.24L-5.08025e-05 1162.24ZM-5.13276e-05 1174.25L-5.15902e-05 1180.26L2.99995 1180.26L2.99995 1174.25L-5.13276e-05 1174.25ZM-5.18527e-05 1186.27L-5.21153e-05 1192.27L2.99995 1192.27L2.99995 1186.27L-5.18527e-05 1186.27ZM-5.23778e-05 1198.28L-5.26403e-05 1204.28L2.99995 1204.28L2.99995 1198.28L-5.23778e-05 1198.28ZM-5.29029e-05 1210.29L-5.31654e-05 1216.3L2.99995 1216.3L2.99995 1210.29L-5.29029e-05 1210.29ZM-5.3428e-05 1222.3L-5.36905e-05 1228.31L2.99995 1228.31L2.99995 1222.3L-5.3428e-05 1222.3ZM-5.39531e-05 1234.32L-5.42156e-05 1240.32L2.99995 1240.32L2.99995 1234.32L-5.39531e-05 1234.32ZM-5.44782e-05 1246.33L-5.47407e-05 1252.34L2.99995 1252.34L2.99995 1246.33L-5.44782e-05 1246.33ZM-5.50033e-05 1258.34L-5.52658e-05 1264.35L2.99994 1264.35L2.99994 1258.34L-5.50033e-05 1258.34ZM-5.55284e-05 1270.35L-5.57909e-05 1276.36L2.99994 1276.36L2.99994 1270.35L-5.55284e-05 1270.35ZM-5.60534e-05 1282.37L-5.6316e-05 1288.37L2.99994 1288.37L2.99994 1282.37L-5.60534e-05 1282.37ZM-5.65785e-05 1294.38L-5.68411e-05 1300.39L2.99994 1300.39L2.99994 1294.38L-5.65785e-05 1294.38ZM-5.71036e-05 1306.39L-5.73662e-05 1312.4L2.99994 1312.4L2.99994 1306.39L-5.71036e-05 1306.39ZM-5.76287e-05 1318.41L-5.78913e-05 1324.41L2.99994 1324.41L2.99994 1318.41L-5.76287e-05 1318.41ZM-5.81538e-05 1330.42L-5.84164e-05 1336.42L2.99994 1336.42L2.99994 1330.42L-5.81538e-05 1330.42ZM-5.86789e-05 1342.43L-5.89414e-05 1348.44L2.99994 1348.44L2.99994 1342.43L-5.86789e-05 1342.43ZM-5.9204e-05 1354.44L-5.94665e-05 1360.45L2.99994 1360.45L2.99994 1354.44L-5.9204e-05 1354.44ZM-5.97291e-05 1366.46L-5.99916e-05 1372.46L2.99994 1372.46L2.99994 1366.46L-5.97291e-05 1366.46ZM-6.02542e-05 1378.47L-6.05167e-05 1384.48L2.99994 1384.48L2.99994 1378.47L-6.02542e-05 1378.47ZM-6.07793e-05 1390.48L-6.10418e-05 1396.49L2.99994 1396.49L2.99994 1390.48L-6.07793e-05 1390.48ZM-6.13044e-05 1402.49L-6.15669e-05 1408.5L2.99994 1408.5L2.99994 1402.49L-6.13044e-05 1402.49ZM-6.18294e-05 1414.51L-6.2092e-05 1420.51L2.99994 1420.51L2.99994 1414.51L-6.18294e-05 1414.51ZM-6.23545e-05 1426.52L-6.26171e-05 1432.53L2.99994 1432.53L2.99994 1426.52L-6.23545e-05 1426.52ZM-6.28796e-05 1438.53L-6.31422e-05 1444.54L2.99994 1444.54L2.99994 1438.53L-6.28796e-05 1438.53ZM-6.34047e-05 1450.55L-6.36673e-05 1456.55L2.99994 1456.55L2.99994 1450.55L-6.34047e-05 1450.55ZM-6.39298e-05 1462.56L-6.41924e-05 1468.56L2.99994 1468.56L2.99994 1462.56L-6.39298e-05 1462.56ZM-6.44549e-05 1474.57L-6.47175e-05 1480.58L2.99994 1480.58L2.99994 1474.57L-6.44549e-05 1474.57ZM-6.498e-05 1486.58L-6.52425e-05 1492.59L2.99993 1492.59L2.99994 1486.58L-6.498e-05 1486.58ZM-6.55051e-05 1498.6L-6.57676e-05 1504.6L2.99993 1504.6L2.99993 1498.6L-6.55051e-05 1498.6ZM-6.60302e-05 1510.61L-6.62927e-05 1516.61L2.99993 1516.61L2.99993 1510.61L-6.60302e-05 1510.61ZM-6.65553e-05 1522.62L-6.68178e-05 1528.63L2.99993 1528.63L2.99993 1522.62L-6.65553e-05 1522.62ZM-6.70804e-05 1534.63L-6.73429e-05 1540.64L2.99993 1540.64L2.99993 1534.63L-6.70804e-05 1534.63ZM-6.76055e-05 1546.65L-6.7868e-05 1552.65L2.99993 1552.65L2.99993 1546.65L-6.76055e-05 1546.65ZM-6.81306e-05 1558.66L-6.83931e-05 1564.67L2.99993 1564.67L2.99993 1558.66L-6.81306e-05 1558.66ZM-6.86556e-05 1570.67L-6.89182e-05 1576.68L2.99993 1576.68L2.99993 1570.67L-6.86556e-05 1570.67ZM-6.91807e-05 1582.68L-6.94433e-05 1588.69L2.99993 1588.69L2.99993 1582.68L-6.91807e-05 1582.68ZM-6.97058e-05 1594.7L-6.99684e-05 1600.7L2.99993 1600.7L2.99993 1594.7L-6.97058e-05 1594.7ZM-7.02309e-05 1606.71L-7.04935e-05 1612.72L2.99993 1612.72L2.99993 1606.71L-7.02309e-05 1606.71ZM-7.0756e-05 1618.72L-7.10186e-05 1624.73L2.99993 1624.73L2.99993 1618.72L-7.0756e-05 1618.72ZM-7.12811e-05 1630.74L-7.15436e-05 1636.74L2.99993 1636.74L2.99993 1630.74L-7.12811e-05 1630.74ZM-7.18062e-05 1642.75L-7.20687e-05 1648.75L2.99993 1648.75L2.99993 1642.75L-7.18062e-05 1642.75ZM-7.23313e-05 1654.76L-7.25938e-05 1660.77L2.99993 1660.77L2.99993 1654.76L-7.23313e-05 1654.76ZM-7.28564e-05 1666.77L-7.31189e-05 1672.78L2.99993 1672.78L2.99993 1666.77L-7.28564e-05 1666.77ZM-7.33815e-05 1678.79L-7.3644e-05 1684.79L2.99993 1684.79L2.99993 1678.79L-7.33815e-05 1678.79ZM-7.39066e-05 1690.8L-7.41691e-05 1696.81L2.99993 1696.81L2.99993 1690.8L-7.39066e-05 1690.8ZM-7.44316e-05 1702.81L-7.46942e-05 1708.82L2.99993 1708.82L2.99993 1702.81L-7.44316e-05 1702.81ZM-7.49567e-05 1714.82L-7.52193e-05 1720.83L2.99992 1720.83L2.99993 1714.82L-7.49567e-05 1714.82ZM-7.54818e-05 1726.84L-7.57444e-05 1732.84L2.99992 1732.84L2.99992 1726.84L-7.54818e-05 1726.84ZM-7.60069e-05 1738.85L-7.62695e-05 1744.86L2.99992 1744.86L2.99992 1738.85L-7.60069e-05 1738.85ZM-7.6532e-05 1750.86L-7.67946e-05 1756.87L2.99992 1756.87L2.99992 1750.86L-7.6532e-05 1750.86ZM-7.70571e-05 1762.88L-7.73197e-05 1768.88L2.99992 1768.88L2.99992 1762.88L-7.70571e-05 1762.88ZM-7.75822e-05 1774.89L-7.78447e-05 1780.89L2.99992 1780.89L2.99992 1774.89L-7.75822e-05 1774.89ZM-7.81073e-05 1786.9L-7.83698e-05 1792.91L2.99992 1792.91L2.99992 1786.9L-7.81073e-05 1786.9ZM-7.86324e-05 1798.91L-7.88949e-05 1804.92L2.99992 1804.92L2.99992 1798.91L-7.86324e-05 1798.91ZM-7.91575e-05 1810.93L-7.942e-05 1816.93L2.99992 1816.93L2.99992 1810.93L-7.91575e-05 1810.93ZM-7.96826e-05 1822.94L-7.99451e-05 1828.95L2.99992 1828.95L2.99992 1822.94L-7.96826e-05 1822.94ZM-8.02077e-05 1834.95L-8.04702e-05 1840.96L2.99992 1840.96L2.99992 1834.95L-8.02077e-05 1834.95ZM-8.07327e-05 1846.96L-8.09953e-05 1852.97L2.99992 1852.97L2.99992 1846.96L-8.07327e-05 1846.96ZM-8.12578e-05 1858.98L-8.15204e-05 1864.98L2.99992 1864.98L2.99992 1858.98L-8.12578e-05 1858.98ZM-8.17829e-05 1870.99L-8.20455e-05 1877L2.99992 1877L2.99992 1870.99L-8.17829e-05 1870.99ZM-8.2308e-05 1883L-8.25706e-05 1889.01L2.99992 1889.01L2.99992 1883L-8.2308e-05 1883ZM-8.28331e-05 1895.01L-8.29642e-05 1898.01L2.99992 1898.01L2.99992 1895.01L-8.28331e-05 1895.01Z" fill="url(#paint0_linear_1358_69399)"/>
<defs>
<linearGradient id="paint0_linear_1358_69399" x1="2" y1="0.0141602" x2="1.99992" y2="1898.01" gradientUnits="userSpaceOnUse">
<stop stop-color="#1B1B1B"/>
<stop offset="0.435352" stop-color="#BE281D"/>
<stop offset="1" stop-color="#1B1B1B"/>
</linearGradient>
</defs>
</svg>
