<svg width="53" height="47" viewBox="0 0 53 47" fill="none" xmlns="http://www.w3.org/2000/svg">
<path d="M42.9075 14.3993H50.6213M32.4483 8.17328H47.222H32.4483ZM28.6567 1.94727H36.3705H28.6567Z" stroke="white" stroke-width="2" stroke-linecap="round" stroke-linejoin="round"/>
<path d="M43.4941 22.9004C43.4941 34.4797 34.1557 43.8535 22.6201 43.8535C11.0845 43.8535 1.74609 34.4797 1.74609 22.9004C1.74609 11.3211 11.0845 1.94727 22.6201 1.94727" stroke="#C0C0C0" stroke-width="2" stroke-linecap="round" stroke-linejoin="round"/>
<path d="M27.2571 21.5623L21.9641 26.7101L18.7882 23.6214" stroke="#FAF27F" stroke-width="2" stroke-linecap="round" stroke-linejoin="round"/>
<path d="M45.1514 45.9692L38.0763 38.8682" stroke="#C0C0C0" stroke-width="2" stroke-linecap="round" stroke-linejoin="round"/>
<path d="M50.4827 28.8875C48.9248 29.6632 46.8572 28.6658 46.8572 28.6658C46.8572 28.6658 47.3167 26.4114 48.8754 25.6369C50.4332 24.8612 52.5001 25.8574 52.5001 25.8574C52.5001 25.8574 52.0406 28.1119 50.4827 28.8875Z" fill="url(#paint0_linear_1358_69369)"/>
<path d="M36.4171 45.9386C35.8312 45.9386 35.3562 45.4617 35.3562 44.8735C35.3562 44.2852 35.8312 43.8083 36.4171 43.8083C37.0029 43.8083 37.4779 44.2852 37.4779 44.8735C37.4779 45.4617 37.0029 45.9386 36.4171 45.9386Z" fill="#C0C0C0"/>
<path d="M44.5584 36.8679C43.9143 36.8679 43.3922 36.3437 43.3922 35.697C43.3922 35.0504 43.9143 34.5261 44.5584 34.5261C45.2025 34.5261 45.7246 35.0504 45.7246 35.697C45.7246 36.3437 45.2025 36.8679 44.5584 36.8679Z" fill="#C0C0C0"/>
<path d="M51.0022 21.7229C50.2861 21.7229 49.7056 21.1402 49.7056 20.4215C49.7056 19.7028 50.2861 19.1201 51.0022 19.1201C51.7183 19.1201 52.2988 19.7028 52.2988 20.4215C52.2988 21.1402 51.7183 21.7229 51.0022 21.7229Z" fill="#C0C0C0"/>
<defs>
<linearGradient id="paint0_linear_1358_69369" x1="44.5004" y1="31.3069" x2="57.386" y2="21.1517" gradientUnits="userSpaceOnUse">
<stop stop-color="white"/>
<stop offset="1" stop-color="#EEEEEE"/>
</linearGradient>
</defs>
</svg>
