<svg width="598" height="254" viewBox="0 0 598 254" fill="none" xmlns="http://www.w3.org/2000/svg">
<path d="M69.9391 118.399C91.8995 129.22 121.047 115.306 121.047 115.306C121.047 115.306 114.57 83.8531 92.5966 73.0467C70.6349 62.2239 41.5 76.1245 41.5 76.1245C41.5 76.1245 47.9774 107.577 69.9391 118.399V118.399Z" fill="#FBDE4B"/>
<g filter="url(#filter0_f_1358_69424)">
<rect x="70.9215" y="70.9333" width="456.578" height="78.4574" rx="39.2287" fill="#BE281D"/>
</g>
<path d="M238.733 61.2656L232.662 55.1714M215.663 57.609C226.393 57.609 235.09 48.8784 235.09 38.108C235.09 27.3379 226.393 18.6069 215.663 18.6069C204.933 18.6069 196.235 27.3379 196.235 38.108C196.235 48.8784 204.933 57.609 215.663 57.609Z" stroke="#C0C0C0" stroke-width="3" stroke-linecap="round" stroke-linejoin="round"/>
<path d="M413.083 185.961H445.927M413.083 207.72H445.927M413.083 196.84H437.716M413.083 218.962H426.68" stroke="#C0C0C0" stroke-width="3" stroke-linecap="round" stroke-linejoin="round"/>
<g filter="url(#filter1_bf_1358_69424)">
<path d="M429.428 117.051C412.577 117.051 398.917 103.338 398.917 86.4237C398.917 69.509 412.577 55.7969 429.428 55.7969C446.279 55.7969 459.939 69.509 459.939 86.4237C459.939 103.338 446.279 117.051 429.428 117.051Z" fill="#2062EF"/>
</g>
<g filter="url(#filter2_bf_1358_69424)">
<path d="M215.49 35.0154C218.3 35.0154 220.578 37.3019 220.578 40.1226C220.578 42.9432 218.3 45.2297 215.49 45.2297C212.68 45.2297 210.401 42.9432 210.401 40.1226C210.401 37.3019 212.68 35.0154 215.49 35.0154Z" fill="#BE281D"/>
</g>
<g filter="url(#filter3_bf_1358_69424)">
<path d="M163.308 211.119C168.593 211.119 172.878 215.419 172.878 220.725C172.878 226.03 168.593 230.331 163.308 230.331C158.022 230.331 153.738 226.03 153.738 220.725C153.738 215.419 158.022 211.119 163.308 211.119Z" fill="#FBDE4B"/>
</g>
<g filter="url(#filter4_bf_1358_69424)">
<path d="M329.904 196.171C332.713 196.171 334.99 193.886 334.99 191.066C334.99 188.247 332.713 185.961 329.904 185.961C327.095 185.961 324.818 188.247 324.818 191.066C324.818 193.886 327.095 196.171 329.904 196.171Z" fill="#BE281D"/>
</g>
<path d="M278.613 253.99C282.583 253.99 285.802 250.759 285.802 246.774C285.802 242.789 282.583 239.558 278.613 239.558C274.642 239.558 271.424 242.789 271.424 246.774C271.424 250.759 274.642 253.99 278.613 253.99Z" fill="#C0C0C0"/>
<path d="M299.211 57.9836C297.706 57.9836 296.487 56.7595 296.487 55.2494C296.487 53.7393 297.706 52.5151 299.211 52.5151C300.715 52.5151 301.935 53.7393 301.935 55.2494C301.935 56.7595 300.715 57.9836 299.211 57.9836Z" fill="#C0C0C0"/>
<path d="M398.917 26.2637C394.704 26.2637 391.289 22.8356 391.289 18.6069C391.289 14.3782 394.704 10.9502 398.917 10.9502C403.13 10.9502 406.545 14.3782 406.545 18.6069C406.545 22.8356 403.13 26.2637 398.917 26.2637Z" fill="#C0C0C0"/>
<path d="M490.129 216.984C489.103 220.827 491.375 224.777 495.204 225.807C499.033 226.837 502.968 224.556 503.994 220.713C505.02 216.87 502.748 212.919 498.919 211.889C495.09 210.86 491.155 213.14 490.129 216.984Z" fill="#2062EF"/>
<path d="M121.047 52.2502C121.047 58.7489 126.295 64.0171 132.769 64.0171C139.244 64.0171 144.492 58.7489 144.492 52.2502C144.492 45.7516 139.244 40.4834 132.769 40.4834C126.295 40.4834 121.047 45.7516 121.047 52.2502Z" fill="#FBDE4B"/>
<path d="M222.524 226.432C226.21 226.432 229.198 223.395 229.198 219.649C229.198 215.902 226.21 212.866 222.524 212.866C218.838 212.866 215.85 215.902 215.85 219.649C215.85 223.395 218.838 226.432 222.524 226.432ZM229.198 219.648V195.941V219.648ZM233.57 192.753L240.945 195.262C242.713 195.873 244.182 197.908 244.182 199.841V201.842C244.182 204.42 242.213 205.878 239.81 205.064L232.435 202.555C230.666 201.944 229.198 199.909 229.198 197.976V195.975C229.198 193.363 231.167 191.939 233.57 192.753V192.753Z" stroke="white" stroke-width="2" stroke-linecap="round" stroke-linejoin="round"/>
<path d="M347.953 53.6091C345.685 53.6091 343.846 51.8458 343.846 49.6704C343.846 47.4951 345.685 45.7318 347.953 45.7318C350.222 45.7318 352.061 47.4951 352.061 49.6704C352.061 51.8458 350.222 53.6091 347.953 53.6091ZM343.846 49.67V35.9043V49.67ZM341.156 34.0532L336.618 35.5105C335.529 35.865 334.626 37.0466 334.626 38.1691V39.3311C334.626 40.8278 335.837 41.6746 337.316 41.202L341.854 39.7447C342.943 39.3902 343.846 38.2085 343.846 37.086V35.9242C343.846 34.4078 342.635 33.5806 341.156 34.0532V34.0532Z" stroke="white" stroke-width="2" stroke-linecap="round" stroke-linejoin="round"/>
<path d="M70.9215 110.162C70.9215 88.4966 88.4848 70.9333 110.15 70.9333H488.271C509.937 70.9333 527.5 88.4966 527.5 110.162V110.162C527.5 131.827 509.937 149.391 488.271 149.391H110.15C88.4848 149.391 70.9215 131.827 70.9215 110.162V110.162Z" fill="white"/>
<path d="M106.542 105.712H102.052V118.162H99.7215V105.712H95.2215V103.762H106.542V105.712ZM107.916 109.852C108.236 109.205 108.623 108.699 109.076 108.332C109.53 107.959 110.073 107.772 110.706 107.772C110.926 107.772 111.133 107.799 111.326 107.852C111.52 107.899 111.693 107.972 111.846 108.072L111.696 109.692C111.67 109.805 111.626 109.885 111.566 109.932C111.513 109.972 111.44 109.992 111.346 109.992C111.246 109.992 111.103 109.975 110.916 109.942C110.73 109.902 110.533 109.882 110.326 109.882C110.026 109.882 109.76 109.925 109.526 110.012C109.3 110.099 109.093 110.225 108.906 110.392C108.726 110.559 108.566 110.762 108.426 111.002C108.286 111.242 108.156 111.515 108.036 111.822V118.162H105.886V107.962H107.136C107.363 107.962 107.52 108.005 107.606 108.092C107.693 108.172 107.753 108.315 107.786 108.522L107.916 109.852ZM122.169 107.962L116.549 121.062C116.476 121.215 116.386 121.335 116.279 121.422C116.179 121.509 116.022 121.552 115.809 121.552H114.219L116.099 117.472L111.939 107.962H113.809C113.989 107.962 114.126 108.005 114.219 108.092C114.319 108.172 114.392 108.269 114.439 108.382L116.869 114.172C116.929 114.339 116.982 114.505 117.029 114.672C117.082 114.832 117.132 114.999 117.179 115.172C117.232 114.999 117.286 114.829 117.339 114.662C117.392 114.495 117.452 114.329 117.519 114.162L119.849 108.382C119.896 108.262 119.972 108.162 120.079 108.082C120.192 108.002 120.316 107.962 120.449 107.962H122.169ZM129.46 103.762V106.642L129.27 108.202C129.23 108.455 129.157 108.655 129.05 108.802C128.944 108.942 128.767 109.012 128.52 109.012C128.307 109.012 128.144 108.942 128.03 108.802C127.917 108.655 127.837 108.455 127.79 108.202L127.6 106.642V103.762H129.46ZM132.97 103.762V106.642L132.78 108.202C132.74 108.455 132.667 108.655 132.56 108.802C132.454 108.942 132.277 109.012 132.03 109.012C131.817 109.012 131.654 108.942 131.54 108.802C131.427 108.655 131.347 108.455 131.3 108.202L131.11 106.642V103.762H132.97ZM175.052 103.762V106.642L174.862 108.202C174.822 108.455 174.748 108.655 174.642 108.802C174.535 108.942 174.358 109.012 174.112 109.012C173.898 109.012 173.735 108.942 173.622 108.802C173.508 108.655 173.428 108.455 173.382 108.202L173.192 106.642V103.762H175.052ZM178.562 103.762V106.642L178.372 108.202C178.332 108.455 178.258 108.655 178.152 108.802C178.045 108.942 177.868 109.012 177.622 109.012C177.408 109.012 177.245 108.942 177.132 108.802C177.018 108.655 176.938 108.455 176.892 108.202L176.702 106.642V103.762H178.562ZM190.118 107.802C190.871 107.802 191.551 107.925 192.158 108.172C192.771 108.419 193.291 108.769 193.718 109.222C194.151 109.675 194.485 110.225 194.718 110.872C194.951 111.519 195.068 112.245 195.068 113.052C195.068 113.859 194.951 114.585 194.718 115.232C194.485 115.879 194.151 116.432 193.718 116.892C193.291 117.345 192.771 117.695 192.158 117.942C191.551 118.189 190.871 118.312 190.118 118.312C189.358 118.312 188.671 118.189 188.058 117.942C187.451 117.695 186.931 117.345 186.498 116.892C186.065 116.432 185.731 115.879 185.498 115.232C185.265 114.585 185.148 113.859 185.148 113.052C185.148 112.245 185.265 111.519 185.498 110.872C185.731 110.225 186.065 109.675 186.498 109.222C186.931 108.769 187.451 108.419 188.058 108.172C188.671 107.925 189.358 107.802 190.118 107.802ZM190.118 116.632C191.038 116.632 191.721 116.325 192.168 115.712C192.621 115.092 192.848 114.209 192.848 113.062C192.848 111.915 192.621 111.032 192.168 110.412C191.721 109.785 191.038 109.472 190.118 109.472C189.185 109.472 188.491 109.785 188.038 110.412C187.585 111.032 187.358 111.915 187.358 113.062C187.358 114.209 187.585 115.092 188.038 115.712C188.491 116.325 189.185 116.632 190.118 116.632ZM199.014 109.852C199.334 109.205 199.721 108.699 200.174 108.332C200.627 107.959 201.171 107.772 201.804 107.772C202.024 107.772 202.231 107.799 202.424 107.852C202.617 107.899 202.791 107.972 202.944 108.072L202.794 109.692C202.767 109.805 202.724 109.885 202.664 109.932C202.611 109.972 202.537 109.992 202.444 109.992C202.344 109.992 202.201 109.975 202.014 109.942C201.827 109.902 201.631 109.882 201.424 109.882C201.124 109.882 200.857 109.925 200.624 110.012C200.397 110.099 200.191 110.225 200.004 110.392C199.824 110.559 199.664 110.762 199.524 111.002C199.384 111.242 199.254 111.515 199.134 111.822V118.162H196.984V107.962H198.234C198.461 107.962 198.617 108.005 198.704 108.092C198.791 108.172 198.851 108.315 198.884 108.522L199.014 109.852ZM210.317 103.762V106.642L210.127 108.202C210.087 108.455 210.014 108.655 209.907 108.802C209.801 108.942 209.624 109.012 209.377 109.012C209.164 109.012 209.001 108.942 208.887 108.802C208.774 108.655 208.694 108.455 208.647 108.202L208.457 106.642V103.762H210.317ZM213.827 103.762V106.642L213.637 108.202C213.597 108.455 213.524 108.655 213.417 108.802C213.311 108.942 213.134 109.012 212.887 109.012C212.674 109.012 212.511 108.942 212.397 108.802C212.284 108.655 212.204 108.455 212.157 108.202L211.967 106.642V103.762H213.827ZM329.924 103.762V106.642L329.734 108.202C329.694 108.455 329.62 108.655 329.514 108.802C329.407 108.942 329.23 109.012 328.984 109.012C328.77 109.012 328.607 108.942 328.494 108.802C328.38 108.655 328.3 108.455 328.254 108.202L328.064 106.642V103.762H329.924ZM333.434 103.762V106.642L333.244 108.202C333.204 108.455 333.13 108.655 333.024 108.802C332.917 108.942 332.74 109.012 332.494 109.012C332.28 109.012 332.117 108.942 332.004 108.802C331.89 108.655 331.81 108.455 331.764 108.202L331.574 106.642V103.762H333.434Z" fill="#827F7F"/>
<path d="M141.976 111.912C141.976 111.552 141.923 111.219 141.816 110.912C141.716 110.599 141.566 110.329 141.366 110.102C141.166 109.869 140.916 109.689 140.616 109.562C140.323 109.429 139.983 109.362 139.596 109.362C138.816 109.362 138.203 109.585 137.756 110.032C137.31 110.479 137.026 111.105 136.906 111.912H141.976ZM136.846 113.232C136.873 113.812 136.963 114.315 137.116 114.742C137.27 115.162 137.473 115.512 137.726 115.792C137.986 116.072 138.293 116.282 138.646 116.422C139.006 116.555 139.406 116.622 139.846 116.622C140.266 116.622 140.63 116.575 140.936 116.482C141.243 116.382 141.51 116.275 141.736 116.162C141.963 116.042 142.156 115.935 142.316 115.842C142.476 115.742 142.623 115.692 142.756 115.692C142.93 115.692 143.063 115.759 143.156 115.892L143.766 116.682C143.513 116.982 143.226 117.235 142.906 117.442C142.586 117.649 142.246 117.819 141.886 117.952C141.526 118.079 141.156 118.169 140.776 118.222C140.396 118.282 140.026 118.312 139.666 118.312C138.96 118.312 138.303 118.195 137.696 117.962C137.096 117.722 136.573 117.372 136.126 116.912C135.686 116.452 135.34 115.882 135.086 115.202C134.84 114.522 134.716 113.739 134.716 112.852C134.716 112.145 134.826 111.485 135.046 110.872C135.273 110.259 135.593 109.725 136.006 109.272C136.426 108.819 136.933 108.462 137.526 108.202C138.126 107.935 138.803 107.802 139.556 107.802C140.183 107.802 140.763 107.905 141.296 108.112C141.83 108.312 142.29 108.609 142.676 109.002C143.063 109.395 143.363 109.879 143.576 110.452C143.796 111.019 143.906 111.665 143.906 112.392C143.906 112.725 143.87 112.949 143.796 113.062C143.723 113.175 143.59 113.232 143.396 113.232H136.846ZM152.271 110.472C151.971 110.085 151.641 109.815 151.281 109.662C150.921 109.509 150.531 109.432 150.111 109.432C149.271 109.432 148.615 109.742 148.141 110.362C147.668 110.975 147.431 111.885 147.431 113.092C147.431 113.719 147.485 114.255 147.591 114.702C147.698 115.142 147.851 115.502 148.051 115.782C148.251 116.062 148.495 116.265 148.781 116.392C149.068 116.519 149.391 116.582 149.751 116.582C150.298 116.582 150.768 116.465 151.161 116.232C151.561 115.992 151.931 115.655 152.271 115.222V110.472ZM154.421 103.362V118.162H153.121C152.835 118.162 152.651 118.025 152.571 117.752L152.381 116.642C151.955 117.142 151.468 117.545 150.921 117.852C150.381 118.159 149.751 118.312 149.031 118.312C148.458 118.312 147.938 118.199 147.471 117.972C147.005 117.739 146.605 117.402 146.271 116.962C145.938 116.522 145.678 115.979 145.491 115.332C145.311 114.679 145.221 113.932 145.221 113.092C145.221 112.332 145.321 111.629 145.521 110.982C145.728 110.335 146.021 109.775 146.401 109.302C146.781 108.822 147.241 108.449 147.781 108.182C148.328 107.909 148.938 107.772 149.611 107.772C150.211 107.772 150.721 107.869 151.141 108.062C151.561 108.249 151.938 108.512 152.271 108.852V103.362H154.421ZM156.9 118.162V107.962H158.2C158.494 107.962 158.68 108.099 158.76 108.372L158.9 109.262C159.087 109.049 159.28 108.855 159.48 108.682C159.68 108.502 159.894 108.349 160.12 108.222C160.354 108.089 160.6 107.985 160.86 107.912C161.127 107.839 161.414 107.802 161.72 107.802C162.047 107.802 162.347 107.849 162.62 107.942C162.894 108.035 163.134 108.169 163.34 108.342C163.554 108.515 163.737 108.725 163.89 108.972C164.044 109.219 164.17 109.495 164.27 109.802C164.424 109.449 164.617 109.145 164.85 108.892C165.084 108.639 165.344 108.432 165.63 108.272C165.917 108.112 166.22 107.995 166.54 107.922C166.867 107.842 167.197 107.802 167.53 107.802C168.077 107.802 168.564 107.889 168.99 108.062C169.424 108.235 169.787 108.489 170.08 108.822C170.38 109.149 170.607 109.552 170.76 110.032C170.914 110.512 170.99 111.059 170.99 111.672V118.162H168.84V111.672C168.84 110.952 168.684 110.412 168.37 110.052C168.064 109.685 167.607 109.502 167 109.502C166.727 109.502 166.47 109.549 166.23 109.642C165.99 109.735 165.78 109.872 165.6 110.052C165.42 110.232 165.277 110.459 165.17 110.732C165.07 110.999 165.02 111.312 165.02 111.672V118.162H162.87V111.672C162.87 110.925 162.72 110.379 162.42 110.032C162.12 109.679 161.68 109.502 161.1 109.502C160.7 109.502 160.33 109.605 159.99 109.812C159.65 110.012 159.337 110.289 159.05 110.642V118.162H156.9ZM219.413 118.322C218.567 118.322 217.913 118.085 217.453 117.612C217 117.132 216.773 116.459 216.773 115.592V109.652H215.653C215.533 109.652 215.43 109.615 215.343 109.542C215.257 109.462 215.213 109.345 215.213 109.192V108.322L216.863 108.082L217.333 105.132C217.367 105.019 217.423 104.929 217.503 104.862C217.583 104.789 217.69 104.752 217.823 104.752H218.923V108.102H221.753V109.652H218.923V115.442C218.923 115.809 219.013 116.089 219.193 116.282C219.373 116.475 219.613 116.572 219.913 116.572C220.08 116.572 220.223 116.552 220.343 116.512C220.463 116.465 220.567 116.419 220.653 116.372C220.74 116.319 220.813 116.272 220.873 116.232C220.94 116.185 221.003 116.162 221.063 116.162C221.183 116.162 221.28 116.229 221.353 116.362L221.993 117.412C221.66 117.705 221.267 117.932 220.813 118.092C220.36 118.245 219.893 118.322 219.413 118.322ZM225.448 109.172C225.868 108.759 226.328 108.429 226.828 108.182C227.328 107.929 227.911 107.802 228.578 107.802C229.138 107.802 229.628 107.895 230.048 108.082C230.475 108.269 230.831 108.532 231.118 108.872C231.411 109.212 231.631 109.622 231.778 110.102C231.925 110.575 231.998 111.099 231.998 111.672V118.162H229.858V111.672C229.858 110.985 229.698 110.452 229.378 110.072C229.065 109.692 228.585 109.502 227.938 109.502C227.458 109.502 227.011 109.612 226.598 109.832C226.191 110.052 225.808 110.352 225.448 110.732V118.162H223.298V103.362H225.448V109.172ZM241.049 111.912C241.049 111.552 240.996 111.219 240.889 110.912C240.789 110.599 240.639 110.329 240.439 110.102C240.239 109.869 239.989 109.689 239.689 109.562C239.396 109.429 239.056 109.362 238.669 109.362C237.889 109.362 237.276 109.585 236.829 110.032C236.382 110.479 236.099 111.105 235.979 111.912H241.049ZM235.919 113.232C235.946 113.812 236.036 114.315 236.189 114.742C236.342 115.162 236.546 115.512 236.799 115.792C237.059 116.072 237.366 116.282 237.719 116.422C238.079 116.555 238.479 116.622 238.919 116.622C239.339 116.622 239.702 116.575 240.009 116.482C240.316 116.382 240.582 116.275 240.809 116.162C241.036 116.042 241.229 115.935 241.389 115.842C241.549 115.742 241.696 115.692 241.829 115.692C242.002 115.692 242.136 115.759 242.229 115.892L242.839 116.682C242.586 116.982 242.299 117.235 241.979 117.442C241.659 117.649 241.319 117.819 240.959 117.952C240.599 118.079 240.229 118.169 239.849 118.222C239.469 118.282 239.099 118.312 238.739 118.312C238.032 118.312 237.376 118.195 236.769 117.962C236.169 117.722 235.646 117.372 235.199 116.912C234.759 116.452 234.412 115.882 234.159 115.202C233.912 114.522 233.789 113.739 233.789 112.852C233.789 112.145 233.899 111.485 234.119 110.872C234.346 110.259 234.666 109.725 235.079 109.272C235.499 108.819 236.006 108.462 236.599 108.202C237.199 107.935 237.876 107.802 238.629 107.802C239.256 107.802 239.836 107.905 240.369 108.112C240.902 108.312 241.362 108.609 241.749 109.002C242.136 109.395 242.436 109.879 242.649 110.452C242.869 111.019 242.979 111.665 242.979 112.392C242.979 112.725 242.942 112.949 242.869 113.062C242.796 113.175 242.662 113.232 242.469 113.232H235.919ZM263.584 107.962L260.314 118.162H258.604C258.404 118.162 258.264 118.032 258.184 117.772L256.154 111.422C256.101 111.242 256.051 111.062 256.004 110.882C255.964 110.702 255.928 110.525 255.894 110.352C255.821 110.712 255.731 111.072 255.624 111.432L253.564 117.772C253.491 118.032 253.334 118.162 253.094 118.162H251.464L248.194 107.962H249.894C250.061 107.962 250.198 108.005 250.304 108.092C250.418 108.172 250.491 108.269 250.524 108.382L252.224 114.322C252.291 114.595 252.348 114.862 252.394 115.122C252.448 115.375 252.494 115.629 252.534 115.882C252.601 115.629 252.671 115.375 252.744 115.122C252.818 114.862 252.894 114.595 252.974 114.322L254.884 108.352C254.918 108.232 254.984 108.135 255.084 108.062C255.191 107.982 255.318 107.942 255.464 107.942H256.404C256.558 107.942 256.688 107.982 256.794 108.062C256.901 108.135 256.971 108.232 257.004 108.352L258.864 114.322C258.944 114.595 259.018 114.862 259.084 115.122C259.158 115.382 259.224 115.642 259.284 115.902C259.331 115.649 259.381 115.392 259.434 115.132C259.488 114.872 259.551 114.602 259.624 114.322L261.354 108.382C261.394 108.262 261.468 108.162 261.574 108.082C261.681 108.002 261.811 107.962 261.964 107.962H263.584ZM271.536 111.912C271.536 111.552 271.483 111.219 271.376 110.912C271.276 110.599 271.126 110.329 270.926 110.102C270.726 109.869 270.476 109.689 270.176 109.562C269.883 109.429 269.543 109.362 269.156 109.362C268.376 109.362 267.763 109.585 267.316 110.032C266.87 110.479 266.586 111.105 266.466 111.912H271.536ZM266.406 113.232C266.433 113.812 266.523 114.315 266.676 114.742C266.83 115.162 267.033 115.512 267.286 115.792C267.546 116.072 267.853 116.282 268.206 116.422C268.566 116.555 268.966 116.622 269.406 116.622C269.826 116.622 270.19 116.575 270.496 116.482C270.803 116.382 271.07 116.275 271.296 116.162C271.523 116.042 271.716 115.935 271.876 115.842C272.036 115.742 272.183 115.692 272.316 115.692C272.49 115.692 272.623 115.759 272.716 115.892L273.326 116.682C273.073 116.982 272.786 117.235 272.466 117.442C272.146 117.649 271.806 117.819 271.446 117.952C271.086 118.079 270.716 118.169 270.336 118.222C269.956 118.282 269.586 118.312 269.226 118.312C268.52 118.312 267.863 118.195 267.256 117.962C266.656 117.722 266.133 117.372 265.686 116.912C265.246 116.452 264.9 115.882 264.646 115.202C264.4 114.522 264.276 113.739 264.276 112.852C264.276 112.145 264.386 111.485 264.606 110.872C264.833 110.259 265.153 109.725 265.566 109.272C265.986 108.819 266.493 108.462 267.086 108.202C267.686 107.935 268.363 107.802 269.116 107.802C269.743 107.802 270.323 107.905 270.856 108.112C271.39 108.312 271.85 108.609 272.236 109.002C272.623 109.395 272.923 109.879 273.136 110.452C273.356 111.019 273.466 111.665 273.466 112.392C273.466 112.725 273.43 112.949 273.356 113.062C273.283 113.175 273.15 113.232 272.956 113.232H266.406ZM282.011 111.912C282.011 111.552 281.958 111.219 281.851 110.912C281.751 110.599 281.601 110.329 281.401 110.102C281.201 109.869 280.951 109.689 280.651 109.562C280.358 109.429 280.018 109.362 279.631 109.362C278.851 109.362 278.238 109.585 277.791 110.032C277.345 110.479 277.061 111.105 276.941 111.912H282.011ZM276.881 113.232C276.908 113.812 276.998 114.315 277.151 114.742C277.305 115.162 277.508 115.512 277.761 115.792C278.021 116.072 278.328 116.282 278.681 116.422C279.041 116.555 279.441 116.622 279.881 116.622C280.301 116.622 280.665 116.575 280.971 116.482C281.278 116.382 281.545 116.275 281.771 116.162C281.998 116.042 282.191 115.935 282.351 115.842C282.511 115.742 282.658 115.692 282.791 115.692C282.965 115.692 283.098 115.759 283.191 115.892L283.801 116.682C283.548 116.982 283.261 117.235 282.941 117.442C282.621 117.649 282.281 117.819 281.921 117.952C281.561 118.079 281.191 118.169 280.811 118.222C280.431 118.282 280.061 118.312 279.701 118.312C278.995 118.312 278.338 118.195 277.731 117.962C277.131 117.722 276.608 117.372 276.161 116.912C275.721 116.452 275.375 115.882 275.121 115.202C274.875 114.522 274.751 113.739 274.751 112.852C274.751 112.145 274.861 111.485 275.081 110.872C275.308 110.259 275.628 109.725 276.041 109.272C276.461 108.819 276.968 108.462 277.561 108.202C278.161 107.935 278.838 107.802 279.591 107.802C280.218 107.802 280.798 107.905 281.331 108.112C281.865 108.312 282.325 108.609 282.711 109.002C283.098 109.395 283.398 109.879 283.611 110.452C283.831 111.019 283.941 111.665 283.941 112.392C283.941 112.725 283.905 112.949 283.831 113.062C283.758 113.175 283.625 113.232 283.431 113.232H276.881ZM287.946 103.362V111.942H288.406C288.553 111.942 288.673 111.922 288.766 111.882C288.86 111.842 288.956 111.759 289.056 111.632L291.916 108.362C292.016 108.229 292.126 108.129 292.246 108.062C292.366 107.995 292.52 107.962 292.706 107.962H294.656L291.216 111.842C291.016 112.102 290.796 112.309 290.556 112.462C290.69 112.555 290.806 112.662 290.906 112.782C291.006 112.895 291.103 113.025 291.196 113.172L294.866 118.162H292.946C292.773 118.162 292.623 118.135 292.496 118.082C292.376 118.022 292.27 117.915 292.176 117.762L289.226 113.762C289.126 113.609 289.026 113.512 288.926 113.472C288.826 113.425 288.676 113.402 288.476 113.402H287.946V118.162H285.796V103.362H287.946ZM302.239 111.912C302.239 111.552 302.185 111.219 302.079 110.912C301.979 110.599 301.829 110.329 301.629 110.102C301.429 109.869 301.179 109.689 300.879 109.562C300.585 109.429 300.245 109.362 299.859 109.362C299.079 109.362 298.465 109.585 298.019 110.032C297.572 110.479 297.289 111.105 297.169 111.912H302.239ZM297.109 113.232C297.135 113.812 297.225 114.315 297.379 114.742C297.532 115.162 297.735 115.512 297.989 115.792C298.249 116.072 298.555 116.282 298.909 116.422C299.269 116.555 299.669 116.622 300.109 116.622C300.529 116.622 300.892 116.575 301.199 116.482C301.505 116.382 301.772 116.275 301.999 116.162C302.225 116.042 302.419 115.935 302.579 115.842C302.739 115.742 302.885 115.692 303.019 115.692C303.192 115.692 303.325 115.759 303.419 115.892L304.029 116.682C303.775 116.982 303.489 117.235 303.169 117.442C302.849 117.649 302.509 117.819 302.149 117.952C301.789 118.079 301.419 118.169 301.039 118.222C300.659 118.282 300.289 118.312 299.929 118.312C299.222 118.312 298.565 118.195 297.959 117.962C297.359 117.722 296.835 117.372 296.389 116.912C295.949 116.452 295.602 115.882 295.349 115.202C295.102 114.522 294.979 113.739 294.979 112.852C294.979 112.145 295.089 111.485 295.309 110.872C295.535 110.259 295.855 109.725 296.269 109.272C296.689 108.819 297.195 108.462 297.789 108.202C298.389 107.935 299.065 107.802 299.819 107.802C300.445 107.802 301.025 107.905 301.559 108.112C302.092 108.312 302.552 108.609 302.939 109.002C303.325 109.395 303.625 109.879 303.839 110.452C304.059 111.019 304.169 111.665 304.169 112.392C304.169 112.725 304.132 112.949 304.059 113.062C303.985 113.175 303.852 113.232 303.659 113.232H297.109ZM308.034 109.312C308.254 109.085 308.48 108.882 308.714 108.702C308.954 108.515 309.207 108.355 309.474 108.222C309.74 108.089 310.024 107.985 310.324 107.912C310.624 107.839 310.95 107.802 311.304 107.802C311.864 107.802 312.354 107.895 312.774 108.082C313.2 108.269 313.557 108.532 313.844 108.872C314.137 109.212 314.357 109.622 314.504 110.102C314.65 110.575 314.724 111.099 314.724 111.672V118.162H312.584V111.672C312.584 110.985 312.424 110.452 312.104 110.072C311.79 109.692 311.31 109.502 310.664 109.502C310.184 109.502 309.737 109.612 309.324 109.832C308.917 110.052 308.534 110.352 308.174 110.732V118.162H306.024V107.962H307.324C307.617 107.962 307.804 108.099 307.884 108.372L308.034 109.312ZM323.595 110.472C323.295 110.085 322.965 109.815 322.605 109.662C322.245 109.509 321.855 109.432 321.435 109.432C320.595 109.432 319.938 109.742 319.465 110.362C318.991 110.975 318.755 111.885 318.755 113.092C318.755 113.719 318.808 114.255 318.915 114.702C319.021 115.142 319.175 115.502 319.375 115.782C319.575 116.062 319.818 116.265 320.105 116.392C320.391 116.519 320.715 116.582 321.075 116.582C321.621 116.582 322.091 116.465 322.485 116.232C322.885 115.992 323.255 115.655 323.595 115.222V110.472ZM325.745 103.362V118.162H324.445C324.158 118.162 323.975 118.025 323.895 117.752L323.705 116.642C323.278 117.142 322.791 117.545 322.245 117.852C321.705 118.159 321.075 118.312 320.355 118.312C319.781 118.312 319.261 118.199 318.795 117.972C318.328 117.739 317.928 117.402 317.595 116.962C317.261 116.522 317.001 115.979 316.815 115.332C316.635 114.679 316.545 113.932 316.545 113.092C316.545 112.332 316.645 111.629 316.845 110.982C317.051 110.335 317.345 109.775 317.725 109.302C318.105 108.822 318.565 108.449 319.105 108.182C319.651 107.909 320.261 107.772 320.935 107.772C321.535 107.772 322.045 107.869 322.465 108.062C322.885 108.249 323.261 108.512 323.595 108.852V103.362H325.745Z" fill="#BE281D"/>
<path d="M463.5 110.162C463.5 94.6981 476.036 82.162 491.5 82.162V82.162C506.964 82.162 519.5 94.6981 519.5 110.162V110.162C519.5 125.626 506.964 138.162 491.5 138.162V138.162C476.036 138.162 463.5 125.626 463.5 110.162V110.162Z" fill="#BE281D"/>
<path d="M502.99 118.975L497.365 113.35C498.631 111.475 499.287 109.131 498.959 106.6C498.35 102.287 494.834 98.8183 490.568 98.2558C484.193 97.4589 478.803 102.85 479.6 109.225C480.162 113.49 483.631 117.006 487.943 117.615C490.475 117.943 492.818 117.287 494.74 116.021L500.318 121.646C501.068 122.35 502.24 122.35 502.99 121.646C503.693 120.896 503.693 119.725 502.99 118.975ZM483.256 107.912C483.256 104.631 485.928 101.912 489.256 101.912C492.537 101.912 495.256 104.631 495.256 107.912C495.256 111.24 492.537 113.912 489.256 113.912C485.928 113.912 483.256 111.24 483.256 107.912Z" fill="white"/>
<defs>
<filter id="filter0_f_1358_69424" x="0.921509" y="0.93335" width="596.578" height="218.457" filterUnits="userSpaceOnUse" color-interpolation-filters="sRGB">
<feFlood flood-opacity="0" result="BackgroundImageFix"/>
<feBlend mode="normal" in="SourceGraphic" in2="BackgroundImageFix" result="shape"/>
<feGaussianBlur stdDeviation="35" result="effect1_foregroundBlur_1358_69424"/>
</filter>
<filter id="filter1_bf_1358_69424" x="394.917" y="51.7969" width="69.0225" height="69.2537" filterUnits="userSpaceOnUse" color-interpolation-filters="sRGB">
<feFlood flood-opacity="0" result="BackgroundImageFix"/>
<feGaussianBlur in="BackgroundImage" stdDeviation="2"/>
<feComposite in2="SourceAlpha" operator="in" result="effect1_backgroundBlur_1358_69424"/>
<feBlend mode="normal" in="SourceGraphic" in2="effect1_backgroundBlur_1358_69424" result="shape"/>
<feGaussianBlur stdDeviation="2" result="effect2_foregroundBlur_1358_69424"/>
</filter>
<filter id="filter2_bf_1358_69424" x="206.401" y="31.0154" width="18.1769" height="18.2144" filterUnits="userSpaceOnUse" color-interpolation-filters="sRGB">
<feFlood flood-opacity="0" result="BackgroundImageFix"/>
<feGaussianBlur in="BackgroundImage" stdDeviation="2"/>
<feComposite in2="SourceAlpha" operator="in" result="effect1_backgroundBlur_1358_69424"/>
<feBlend mode="normal" in="SourceGraphic" in2="effect1_backgroundBlur_1358_69424" result="shape"/>
<feGaussianBlur stdDeviation="2" result="effect2_foregroundBlur_1358_69424"/>
</filter>
<filter id="filter3_bf_1358_69424" x="149.738" y="207.119" width="27.14" height="27.2124" filterUnits="userSpaceOnUse" color-interpolation-filters="sRGB">
<feFlood flood-opacity="0" result="BackgroundImageFix"/>
<feGaussianBlur in="BackgroundImage" stdDeviation="2"/>
<feComposite in2="SourceAlpha" operator="in" result="effect1_backgroundBlur_1358_69424"/>
<feBlend mode="normal" in="SourceGraphic" in2="effect1_backgroundBlur_1358_69424" result="shape"/>
<feGaussianBlur stdDeviation="2" result="effect2_foregroundBlur_1358_69424"/>
</filter>
<filter id="filter4_bf_1358_69424" x="320.818" y="181.961" width="18.1719" height="18.2102" filterUnits="userSpaceOnUse" color-interpolation-filters="sRGB">
<feFlood flood-opacity="0" result="BackgroundImageFix"/>
<feGaussianBlur in="BackgroundImage" stdDeviation="2"/>
<feComposite in2="SourceAlpha" operator="in" result="effect1_backgroundBlur_1358_69424"/>
<feBlend mode="normal" in="SourceGraphic" in2="effect1_backgroundBlur_1358_69424" result="shape"/>
<feGaussianBlur stdDeviation="2" result="effect2_foregroundBlur_1358_69424"/>
</filter>
</defs>
</svg>
