<svg width="104" height="76" viewBox="0 0 104 76" fill="none" xmlns="http://www.w3.org/2000/svg">
<path d="M86.8968 41.7445V19.6621C86.8968 5.87758 83.6817 2.42291 70.7523 2.42291H44.8937C31.9644 2.42291 28.7492 5.87758 28.7492 19.6621V58.1763C28.7492 67.2747 33.7431 69.4296 39.7974 62.9307L39.8315 62.8965C42.6362 59.9207 46.9117 60.1602 49.3403 63.4095H63.3778" stroke="#C0C0C0" stroke-width="3" stroke-linecap="round" stroke-linejoin="round"/>
<path d="M92.0277 70.8319L88.6072 67.4114M49.1079 19.5251H76.4715M49.1079 37.5851H67.2638M57.4085 28.5551H76.4715M49.1079 46.9162H60.4364M79.0299 68.7796C85.0751 68.7796 89.9754 63.8793 89.9754 57.8341C89.9754 51.7892 85.0751 46.8887 79.0299 46.8887C72.985 46.8887 68.0845 51.7892 68.0845 57.8341C68.0845 63.8793 72.985 68.7796 79.0299 68.7796Z" stroke="#C0C0C0" stroke-width="3" stroke-linecap="round" stroke-linejoin="round"/>
<g filter="url(#filter0_bf_277_2642)">
<path d="M27.4836 46.7897C17.3131 46.7897 9.06829 38.5449 9.06829 28.3744C9.06829 18.2039 17.3131 9.95905 27.4836 9.95905C37.6541 9.95905 45.8989 18.2039 45.8989 28.3744C45.8989 38.5449 37.6541 46.7897 27.4836 46.7897Z" fill="#BE281D"/>
</g>
<path d="M15.776 7.65331C18.4602 8.98485 22.0229 7.27273 22.0229 7.27273C22.0229 7.27273 21.2311 3.40257 18.5454 2.07288C15.861 0.741179 12.2999 2.45159 12.2999 2.45159C12.2999 2.45159 13.0916 6.32176 15.776 7.65331Z" fill="url(#paint0_linear_277_2642)"/>
<g filter="url(#filter1_bf_277_2642)">
<path d="M6.60169 12.2738C7.60847 12.2738 8.42463 13.09 8.42463 14.0967C8.42463 15.1035 7.60847 15.9197 6.60169 15.9197C5.59491 15.9197 4.77875 15.1035 4.77875 14.0967C4.77875 13.09 5.59491 12.2738 6.60169 12.2738Z" fill="#BE281D"/>
</g>
<g filter="url(#filter2_bf_277_2642)">
<path d="M94.6996 5.35527C95.7166 5.35527 96.5411 6.17975 96.5411 7.1968C96.5411 8.21385 95.7166 9.03833 94.6996 9.03833C93.6825 9.03833 92.858 8.21385 92.858 7.1968C92.858 6.17975 93.6825 5.35527 94.6996 5.35527Z" fill="#FBDE4B"/>
</g>
<g filter="url(#filter3_bf_277_2642)">
<path d="M95.6203 44.0274C97.6544 44.0274 99.3034 42.3784 99.3034 40.3443C99.3034 38.3102 97.6544 36.6613 95.6203 36.6613C93.5862 36.6613 91.9373 38.3102 91.9373 40.3443C91.9373 42.3784 93.5862 44.0274 95.6203 44.0274Z" fill="#BE281D"/>
</g>
<path d="M3.24954 31.8727C4.67189 31.8727 5.82494 30.7196 5.82494 29.2973C5.82494 27.8749 4.67189 26.7219 3.24954 26.7219C1.82718 26.7219 0.674133 27.8749 0.674133 29.2973C0.674133 30.7196 1.82718 31.8727 3.24954 31.8727Z" fill="#C0C0C0"/>
<path d="M45.121 75.2268C46.9089 75.2268 48.3582 73.7774 48.3582 71.9895C48.3582 70.2017 46.9089 68.7523 45.121 68.7523C43.3331 68.7523 41.8838 70.2017 41.8838 71.9895C41.8838 73.7774 43.3331 75.2268 45.121 75.2268Z" fill="#C0C0C0"/>
<path d="M95.2514 60.2356C94.8838 61.6073 95.6978 63.0172 97.0695 63.3847C98.4411 63.7523 99.851 62.9383 100.219 61.5666C100.586 60.195 99.7721 58.7851 98.4004 58.4175C97.0288 58.05 95.6189 58.864 95.2514 60.2356Z" fill="#2062EF"/>
<path d="M8.39498 49.6483C9.84811 49.6483 11.0261 48.7059 11.0261 47.5434C11.0261 46.3808 9.84811 45.4384 8.39498 45.4384C6.94185 45.4384 5.76385 46.3808 5.76385 47.5434C5.76385 48.7059 6.94185 49.6483 8.39498 49.6483Z" fill="#C0C0C0"/>
<path d="M12.7514 66.5862C12.7514 67.8575 13.782 68.8881 15.0533 68.8881C16.3246 68.8881 17.3552 67.8575 17.3552 66.5862C17.3552 65.3148 16.3246 64.2842 15.0533 64.2842C13.782 64.2842 12.7514 65.3148 12.7514 66.5862Z" fill="#FBDE4B"/>
<path d="M24.5619 34.8197C25.9994 34.8197 27.1648 33.7477 27.1648 32.4252C27.1648 31.1027 25.9994 30.0306 24.5619 30.0306C23.1244 30.0306 21.959 31.1027 21.959 32.4252C21.959 33.7477 23.1244 34.8197 24.5619 34.8197ZM27.1648 32.4249V24.0559V32.4249ZM28.8696 22.9305L31.7459 23.8165C32.4356 24.032 33.0082 24.7504 33.0082 25.4328V26.1393C33.0082 27.0492 32.2404 27.564 31.3033 27.2767L28.4271 26.3907C27.7374 26.1752 27.1648 25.4568 27.1648 24.7744V24.068C27.1648 23.1461 27.9326 22.6432 28.8696 22.9305V22.9305Z" stroke="white" stroke-linecap="round" stroke-linejoin="round"/>
<defs>
<filter id="filter0_bf_277_2642" x="5.0683" y="5.95905" width="44.8306" height="44.8306" filterUnits="userSpaceOnUse" color-interpolation-filters="sRGB">
<feFlood flood-opacity="0" result="BackgroundImageFix"/>
<feGaussianBlur in="BackgroundImage" stdDeviation="2"/>
<feComposite in2="SourceAlpha" operator="in" result="effect1_backgroundBlur_277_2642"/>
<feBlend mode="normal" in="SourceGraphic" in2="effect1_backgroundBlur_277_2642" result="shape"/>
<feGaussianBlur stdDeviation="2" result="effect2_foregroundBlur_277_2642"/>
</filter>
<filter id="filter1_bf_277_2642" x="0.778748" y="8.2738" width="11.6459" height="11.6459" filterUnits="userSpaceOnUse" color-interpolation-filters="sRGB">
<feFlood flood-opacity="0" result="BackgroundImageFix"/>
<feGaussianBlur in="BackgroundImage" stdDeviation="2"/>
<feComposite in2="SourceAlpha" operator="in" result="effect1_backgroundBlur_277_2642"/>
<feBlend mode="normal" in="SourceGraphic" in2="effect1_backgroundBlur_277_2642" result="shape"/>
<feGaussianBlur stdDeviation="2" result="effect2_foregroundBlur_277_2642"/>
</filter>
<filter id="filter2_bf_277_2642" x="88.858" y="1.35529" width="11.6831" height="11.683" filterUnits="userSpaceOnUse" color-interpolation-filters="sRGB">
<feFlood flood-opacity="0" result="BackgroundImageFix"/>
<feGaussianBlur in="BackgroundImage" stdDeviation="2"/>
<feComposite in2="SourceAlpha" operator="in" result="effect1_backgroundBlur_277_2642"/>
<feBlend mode="normal" in="SourceGraphic" in2="effect1_backgroundBlur_277_2642" result="shape"/>
<feGaussianBlur stdDeviation="2" result="effect2_foregroundBlur_277_2642"/>
</filter>
<filter id="filter3_bf_277_2642" x="87.9373" y="32.6613" width="15.3661" height="15.3661" filterUnits="userSpaceOnUse" color-interpolation-filters="sRGB">
<feFlood flood-opacity="0" result="BackgroundImageFix"/>
<feGaussianBlur in="BackgroundImage" stdDeviation="2"/>
<feComposite in2="SourceAlpha" operator="in" result="effect1_backgroundBlur_277_2642"/>
<feBlend mode="normal" in="SourceGraphic" in2="effect1_backgroundBlur_277_2642" result="shape"/>
<feGaussianBlur stdDeviation="2" result="effect2_foregroundBlur_277_2642"/>
</filter>
<linearGradient id="paint0_linear_277_2642" x1="26.0838" y1="11.8067" x2="3.94382" y2="-5.70596" gradientUnits="userSpaceOnUse">
<stop stop-color="white"/>
<stop offset="1" stop-color="#EEEEEE"/>
</linearGradient>
</defs>
</svg>
