<svg width="102" height="77" viewBox="0 0 102 77" fill="none" xmlns="http://www.w3.org/2000/svg">
<path d="M86.8968 42.7445V20.6621C86.8968 6.87758 83.6817 3.42291 70.7523 3.42291H44.8937C31.9644 3.42291 28.7492 6.87758 28.7492 20.6621V59.1763C28.7492 68.2747 33.7431 70.4296 39.7974 63.9307L39.8315 63.8965C42.6362 60.9207 46.9117 61.1602 49.3403 64.4095H63.3778" stroke="#C0C0C0" stroke-width="3" stroke-linecap="round" stroke-linejoin="round"/>
<path d="M49.1079 47.9162H60.4364M79.0299 69.7795C85.0751 69.7795 89.9754 64.8792 89.9754 58.8341C89.9754 52.7892 85.0751 47.8887 79.0299 47.8887C72.985 47.8887 68.0845 52.7892 68.0845 58.8341C68.0845 64.8792 72.985 69.7795 79.0299 69.7795ZM92.0277 71.8319L88.6072 68.4114L92.0277 71.8319ZM49.1079 20.5251H76.4715H49.1079ZM49.1079 38.5851H76.4715H49.1079ZM49.1079 29.5551H69.6306H49.1079Z" stroke="#C0C0C0" stroke-width="3" stroke-linecap="round" stroke-linejoin="round"/>
<g filter="url(#filter0_bf_277_2499)">
<path d="M27.2719 45.7824C18.2949 45.7824 11.0177 38.5051 11.0177 29.5282C11.0177 20.5512 18.2949 13.2739 27.2719 13.2739C36.2489 13.2739 43.5261 20.5512 43.5261 29.5282C43.5261 38.5051 36.2489 45.7824 27.2719 45.7824Z" fill="#BE281D"/>
</g>
<path d="M15.776 8.65331C18.4602 9.98485 22.0229 8.27273 22.0229 8.27273C22.0229 8.27273 21.2311 4.40257 18.5454 3.07288C15.861 1.74118 12.2999 3.45159 12.2999 3.45159C12.2999 3.45159 13.0916 7.32176 15.776 8.65331V8.65331Z" fill="url(#paint0_linear_277_2499)"/>
<g filter="url(#filter1_bf_277_2499)">
<path d="M6.60169 13.2738C7.60847 13.2738 8.42463 14.09 8.42463 15.0967C8.42463 16.1035 7.60847 16.9197 6.60169 16.9197C5.59491 16.9197 4.77875 16.1035 4.77875 15.0967C4.77875 14.09 5.59491 13.2738 6.60169 13.2738Z" fill="#BE281D"/>
</g>
<g filter="url(#filter2_bf_277_2499)">
<path d="M94.5667 4.73627C96.4602 4.73627 97.9952 6.27123 97.9952 8.1647C97.9952 10.0582 96.4602 11.5931 94.5667 11.5931C92.6733 11.5931 91.1383 10.0582 91.1383 8.1647C91.1383 6.27123 92.6733 4.73627 94.5667 4.73627Z" fill="#FBDE4B"/>
</g>
<g filter="url(#filter3_bf_277_2499)">
<path d="M95.9158 43.0227C96.922 43.0227 97.7378 42.207 97.7378 41.2007C97.7378 40.1945 96.922 39.3787 95.9158 39.3787C94.9095 39.3787 94.0938 40.1945 94.0938 41.2007C94.0938 42.207 94.9095 43.0227 95.9158 43.0227Z" fill="#BE281D"/>
</g>
<path d="M3.24954 32.8727C4.67189 32.8727 5.82494 31.7196 5.82494 30.2973C5.82494 28.8749 4.67189 27.7219 3.24954 27.7219C1.82718 27.7219 0.674133 28.8749 0.674133 30.2973C0.674133 31.7196 1.82718 32.8727 3.24954 32.8727Z" fill="#C0C0C0"/>
<path d="M45.121 76.2268C46.9089 76.2268 48.3582 74.7774 48.3582 72.9895C48.3582 71.2017 46.9089 69.7523 45.121 69.7523C43.3331 69.7523 41.8838 71.2017 41.8838 72.9895C41.8838 74.7774 43.3331 76.2268 45.121 76.2268Z" fill="#C0C0C0"/>
<path d="M95.2514 61.2356C94.8838 62.6073 95.6978 64.0172 97.0695 64.3847C98.4411 64.7523 99.851 63.9383 100.219 62.5666C100.586 61.195 99.7721 59.7851 98.4004 59.4175C97.0288 59.05 95.6189 59.864 95.2514 61.2356Z" fill="#2062EF"/>
<path d="M8.39498 50.6483C9.84811 50.6483 11.0261 49.7059 11.0261 48.5434C11.0261 47.3808 9.84811 46.4384 8.39498 46.4384C6.94185 46.4384 5.76385 47.3808 5.76385 48.5434C5.76385 49.7059 6.94185 50.6483 8.39498 50.6483Z" fill="#C0C0C0"/>
<path d="M11.0173 67.5487C11.0173 69.868 12.8975 71.7482 15.2169 71.7482C17.5362 71.7482 19.4164 69.868 19.4164 67.5487C19.4164 65.2294 17.5362 63.3492 15.2169 63.3492C12.8975 63.3492 11.0173 65.2294 11.0173 67.5487Z" fill="#FBDE4B"/>
<path d="M23.8039 37.7981C25.5204 37.7981 26.9118 36.408 26.9118 34.6931C26.9118 32.9783 25.5204 31.5882 23.8039 31.5882C22.0875 31.5882 20.6961 32.9783 20.6961 34.6931C20.6961 36.408 22.0875 37.7981 23.8039 37.7981ZM26.9118 34.6928V23.841V34.6928ZM28.9474 22.3818L32.3817 23.5306C33.2052 23.8101 33.889 24.7415 33.889 25.6264V26.5425C33.889 27.7224 32.9722 28.3899 31.8533 28.0173L28.4191 26.8685C27.5955 26.589 26.9118 25.6575 26.9118 24.7726V23.8567C26.9118 22.6613 27.8286 22.0092 28.9474 22.3818V22.3818Z" stroke="white" stroke-width="2" stroke-linecap="round" stroke-linejoin="round"/>
<defs>
<filter id="filter0_bf_277_2499" x="7.01764" y="9.27393" width="40.5085" height="40.5084" filterUnits="userSpaceOnUse" color-interpolation-filters="sRGB">
<feFlood flood-opacity="0" result="BackgroundImageFix"/>
<feGaussianBlur in="BackgroundImage" stdDeviation="2"/>
<feComposite in2="SourceAlpha" operator="in" result="effect1_backgroundBlur_277_2499"/>
<feBlend mode="normal" in="SourceGraphic" in2="effect1_backgroundBlur_277_2499" result="shape"/>
<feGaussianBlur stdDeviation="2" result="effect2_foregroundBlur_277_2499"/>
</filter>
<filter id="filter1_bf_277_2499" x="0.778748" y="9.2738" width="11.6459" height="11.6459" filterUnits="userSpaceOnUse" color-interpolation-filters="sRGB">
<feFlood flood-opacity="0" result="BackgroundImageFix"/>
<feGaussianBlur in="BackgroundImage" stdDeviation="2"/>
<feComposite in2="SourceAlpha" operator="in" result="effect1_backgroundBlur_277_2499"/>
<feBlend mode="normal" in="SourceGraphic" in2="effect1_backgroundBlur_277_2499" result="shape"/>
<feGaussianBlur stdDeviation="2" result="effect2_foregroundBlur_277_2499"/>
</filter>
<filter id="filter2_bf_277_2499" x="87.1383" y="0.736267" width="14.8568" height="14.8569" filterUnits="userSpaceOnUse" color-interpolation-filters="sRGB">
<feFlood flood-opacity="0" result="BackgroundImageFix"/>
<feGaussianBlur in="BackgroundImage" stdDeviation="2"/>
<feComposite in2="SourceAlpha" operator="in" result="effect1_backgroundBlur_277_2499"/>
<feBlend mode="normal" in="SourceGraphic" in2="effect1_backgroundBlur_277_2499" result="shape"/>
<feGaussianBlur stdDeviation="2" result="effect2_foregroundBlur_277_2499"/>
</filter>
<filter id="filter3_bf_277_2499" x="90.0938" y="35.3787" width="11.644" height="11.644" filterUnits="userSpaceOnUse" color-interpolation-filters="sRGB">
<feFlood flood-opacity="0" result="BackgroundImageFix"/>
<feGaussianBlur in="BackgroundImage" stdDeviation="2"/>
<feComposite in2="SourceAlpha" operator="in" result="effect1_backgroundBlur_277_2499"/>
<feBlend mode="normal" in="SourceGraphic" in2="effect1_backgroundBlur_277_2499" result="shape"/>
<feGaussianBlur stdDeviation="2" result="effect2_foregroundBlur_277_2499"/>
</filter>
<linearGradient id="paint0_linear_277_2499" x1="26.0838" y1="12.8067" x2="3.94382" y2="-4.70596" gradientUnits="userSpaceOnUse">
<stop stop-color="white"/>
<stop offset="1" stop-color="#EEEEEE"/>
</linearGradient>
</defs>
</svg>
