<svg width="155" height="120" viewBox="0 0 155 120" fill="none" xmlns="http://www.w3.org/2000/svg">
<g filter="url(#filter0_f_1188_44227)">
<path d="M14.6222 112.302C8.7557 112.302 4 108.113 4 102.947C4 97.7807 8.7557 93.5925 14.6222 93.5925C20.4886 93.5925 25.2443 97.7807 25.2443 102.947C25.2443 108.113 20.4886 112.302 14.6222 112.302Z" fill="#2062EF"/>
</g>
<path d="M116.967 14.4586C114.546 22.4179 119.909 30.599 128.947 32.7316C137.985 34.8643 147.274 30.141 149.696 22.1817C152.118 14.2225 146.754 6.04139 137.716 3.90872C128.679 1.77604 119.389 6.49939 116.967 14.4586Z" fill="#FBDE4B"/>
<path d="M98.1247 118.538C90.14 118.538 83.667 112.58 83.667 105.23C83.667 97.881 90.14 91.9232 98.1247 91.9232C106.109 91.9232 112.582 97.881 112.582 105.23C112.582 112.58 106.109 118.538 98.1247 118.538ZM83.667 105.229V58.7195V105.229ZM74.1974 52.4655L58.2213 57.3892C54.3903 58.5869 51.2096 62.579 51.2096 66.3716V70.2976C51.2096 75.3546 55.4746 78.2155 60.6796 76.6186L76.6553 71.6949C80.4866 70.4972 83.667 66.5048 83.667 62.7122V58.7868C83.667 53.6634 79.402 50.8686 74.1974 52.4655V52.4655Z" stroke="white" stroke-width="2" stroke-linecap="round" stroke-linejoin="round"/>
<defs>
<filter id="filter0_f_1188_44227" x="0" y="89.5925" width="29.2443" height="26.709" filterUnits="userSpaceOnUse" color-interpolation-filters="sRGB">
<feFlood flood-opacity="0" result="BackgroundImageFix"/>
<feBlend mode="normal" in="SourceGraphic" in2="BackgroundImageFix" result="shape"/>
<feGaussianBlur stdDeviation="2" result="effect1_foregroundBlur_1188_44227"/>
</filter>
</defs>
</svg>
