<svg width="37" height="44" viewBox="0 0 37 44" fill="none" xmlns="http://www.w3.org/2000/svg">
<path d="M9.50932 42.5061C13.9328 42.5061 17.5188 38.8202 17.5188 34.273C17.5188 29.726 13.9328 26.0401 9.50932 26.0401C5.08583 26.0401 1.5 29.726 1.5 34.273C1.5 38.8202 5.08583 42.5061 9.50932 42.5061ZM17.5188 34.2721V5.49767V34.2721ZM22.7649 1.62846L31.6156 4.67468C33.7379 5.41564 35.5 7.8855 35.5 10.2319V12.6608C35.5 15.7894 33.1372 17.5594 30.2537 16.5715L21.4032 13.5253C19.2807 12.7843 17.5188 10.3143 17.5188 7.9679V5.53931C17.5188 2.3696 19.8816 0.640515 22.7649 1.62846V1.62846Z" stroke="#BE281D" stroke-width="2" stroke-linecap="round" stroke-linejoin="round"/>
</svg>
