<svg width="96" height="81" viewBox="0 0 96 81" fill="none" xmlns="http://www.w3.org/2000/svg">
<path d="M82.9486 36.834V33.5929C82.9486 17.3875 76.4664 10.9053 60.261 10.9053H40.8145C24.6092 10.9053 18.127 17.3875 18.127 33.5929V53.0393C18.127 69.2447 24.6092 75.7269 40.8145 75.7269H47.2966" stroke="#C0C0C0" stroke-width="3" stroke-linecap="round" stroke-linejoin="round"/>
<path d="M76.691 67.547C76.691 68.9712 75.5256 70.1258 74.0881 70.1258C72.6505 70.1258 71.4852 68.9712 71.4852 67.547C71.4852 66.1228 72.6505 64.9682 74.0881 64.9682C75.5256 64.9682 76.691 66.1228 76.691 67.547ZM76.691 67.547V58.5339M78.3958 57.322L81.2721 58.2761C81.9618 58.5082 82.5344 59.2818 82.5344 60.0168V60.7776C82.5344 61.7575 81.7666 62.3119 80.8295 62.0025L77.9533 61.0483C77.2635 60.8163 76.691 60.0426 76.691 59.3077V58.547C76.691 57.5541 77.4588 57.0126 78.3958 57.322Z" stroke="#827F7F" stroke-linecap="round" stroke-linejoin="round"/>
<g filter="url(#filter0_bf_277_2690)">
<path d="M37.262 60.4266C52.4055 60.4266 64.6817 48.1504 64.6817 33.0069C64.6817 17.8635 52.4055 5.58728 37.262 5.58728C22.1186 5.58728 9.84241 17.8635 9.84241 33.0069C9.84241 48.1504 22.1186 60.4266 37.262 60.4266Z" fill="#BE281D"/>
<path d="M37.262 60.4266C52.4055 60.4266 64.6817 48.1504 64.6817 33.0069C64.6817 17.8635 52.4055 5.58728 37.262 5.58728C22.1186 5.58728 9.84241 17.8635 9.84241 33.0069C9.84241 48.1504 22.1186 60.4266 37.262 60.4266Z" stroke="#BE281D" stroke-width="3"/>
</g>
<path d="M48.8916 32.4741C49.5519 32.8389 49.5519 33.7513 48.8916 34.1161L30.6155 44.2159C29.9554 44.5807 29.13 44.1247 29.13 43.3949V23.1953C29.13 22.4655 29.9554 22.0095 30.6155 22.3743L48.8916 32.4741Z" fill="white"/>
<path d="M92.9126 33.6108C90.909 34.6046 88.2499 33.3267 88.2499 33.3267C88.2499 33.3267 88.8409 30.4379 90.8454 29.4456C92.849 28.4517 95.5071 29.7282 95.5071 29.7282C95.5071 29.7282 94.9161 32.6169 92.9126 33.6108Z" fill="url(#paint0_linear_277_2690)"/>
<path d="M5.70036 54.3269C8.5377 56.0275 12.6081 54.4554 12.6081 54.4554C12.6081 54.4554 12.0759 50.1271 9.23697 48.4287C6.39977 46.7281 2.33093 48.2982 2.33093 48.2982C2.33093 48.2982 2.86315 52.6265 5.70036 54.3269Z" fill="url(#paint1_linear_277_2690)"/>
<g filter="url(#filter1_bf_277_2690)">
<path d="M72.8664 26.8498C72.1036 26.8498 71.4853 27.4681 71.4853 28.2309C71.4853 28.9937 72.1036 29.6121 72.8664 29.6121C73.6292 29.6121 74.2476 28.9937 74.2476 28.2309C74.2476 27.4681 73.6292 26.8498 72.8664 26.8498Z" fill="#BE281D"/>
</g>
<g filter="url(#filter2_bf_277_2690)">
<path d="M14.5186 31.2911C13.4159 31.2911 12.522 32.185 12.522 33.2877C12.522 34.3904 13.4159 35.2843 14.5186 35.2843C15.6213 35.2843 16.5153 34.3904 16.5153 33.2877C16.5153 32.185 15.6213 31.2911 14.5186 31.2911Z" fill="#BE281D"/>
</g>
<g filter="url(#filter3_bf_277_2690)">
<path d="M43.9859 69.1496C42.73 69.1496 41.712 68.1315 41.712 66.8757C41.712 65.6199 42.73 64.6018 43.9859 64.6018C45.2417 64.6018 46.2598 65.6199 46.2598 66.8757C46.2598 68.1315 45.2417 69.1496 43.9859 69.1496Z" fill="#BE281D"/>
</g>
<g filter="url(#filter4_bf_277_2690)">
<path d="M89.7949 44.1777C89.2088 44.1777 88.7337 43.7026 88.7337 43.1165C88.7337 42.5304 89.2088 42.0553 89.7949 42.0553C90.381 42.0553 90.8561 42.5304 90.8561 43.1165C90.8561 43.7026 90.381 44.1777 89.7949 44.1777Z" fill="#BE281D"/>
</g>
<path d="M4.37434 65.1317C3.28593 65.1317 2.40359 64.2494 2.40359 63.1609C2.40359 62.0725 3.28593 61.1902 4.37434 61.1902C5.46276 61.1902 6.34509 62.0725 6.34509 63.1609C6.34509 64.2494 5.46276 65.1317 4.37434 65.1317Z" fill="#C0C0C0"/>
<path d="M60.8965 80.2542C59.6251 80.2542 58.5945 79.2236 58.5945 77.9522C58.5945 76.6809 59.6251 75.6503 60.8965 75.6503C62.1678 75.6503 63.1984 76.6809 63.1984 77.9522C63.1984 79.2236 62.1678 80.2542 60.8965 80.2542Z" fill="#FBDE4B"/>
<path d="M88.5194 17.6421C86.7395 17.6421 85.2967 16.1993 85.2967 14.4195C85.2967 12.6396 86.7395 11.1968 88.5194 11.1968C90.2992 11.1968 91.7421 12.6396 91.7421 14.4195C91.7421 16.1993 90.2992 17.6421 88.5194 17.6421Z" fill="#FBDE4B"/>
<path d="M4.25395 36.6783C4.468 37.4771 3.99393 38.2982 3.19509 38.5123C2.39624 38.7263 1.57513 38.2522 1.36108 37.4534C1.14703 36.6546 1.6211 35.8334 2.41995 35.6194C3.21879 35.4053 4.0399 35.8794 4.25395 36.6783Z" fill="#C0C0C0"/>
<path d="M15.9317 8.29518C15.5875 8.29518 15.3085 8.01615 15.3085 7.67194C15.3085 7.32774 15.5875 7.04871 15.9317 7.04871C16.2759 7.04871 16.5549 7.32774 16.5549 7.67194C16.5549 8.01615 16.2759 8.29518 15.9317 8.29518Z" fill="#2062EF"/>
<path d="M88.1476 68.0794C87.3013 68.0794 86.6152 67.5305 86.6152 66.8535C86.6152 66.1765 87.3013 65.6277 88.1476 65.6277C88.9939 65.6277 89.6799 66.1765 89.6799 66.8535C89.6799 67.5305 88.9939 68.0794 88.1476 68.0794Z" fill="#C0C0C0"/>
<path d="M61.1448 6.61245C61.2998 7.1907 60.9566 7.78507 60.3784 7.94001C59.8001 8.09495 59.2058 7.75179 59.0508 7.17354C58.8959 6.59529 59.239 6.00092 59.8173 5.84598C60.3955 5.69104 60.9899 6.0342 61.1448 6.61245Z" fill="#C0C0C0"/>
<path d="M75.6628 43.2986C68.6205 43.2986 63.0144 48.9483 63.0144 55.9117V67.4737C63.0144 72.6963 67.2635 76.9335 72.5007 76.9335C77.7379 76.9335 81.987 72.6963 81.987 67.4737V66.825C85.7684 64.6423 88.3112 60.5759 88.3112 55.9117C88.3112 48.9483 82.5865 43.2986 75.6628 43.2986ZM81.4007 65.9168L80.933 66.219V67.4737C80.933 72.1103 77.1503 75.8824 72.5007 75.8824C67.8511 75.8824 64.0684 72.1103 64.0684 67.4737V55.9117C64.0684 49.5362 69.2694 44.3497 75.6628 44.3497C82.0562 44.3497 87.2572 49.5362 87.2572 55.9117C87.2572 60.0175 85.0371 63.8475 81.4007 65.9168ZM81.4666 49.8095C79.7735 48.2059 77.5601 47.3913 75.2109 47.5142C70.8077 47.7461 67.2305 51.7139 67.2305 56.3584V60.1161H68.6838C69.6285 60.1161 70.3926 60.8781 70.3926 61.8175C70.3926 62.2712 70.2146 62.7005 69.8924 63.0224L67.3851 65.5226C67.1792 65.7279 67.1792 66.0605 67.3851 66.2656C67.4881 66.3701 67.6225 66.4226 67.7576 66.4226C67.8926 66.4226 68.0273 66.3713 68.1302 66.2686L70.6374 63.7684C71.1568 63.2497 71.4467 62.5533 71.4467 61.8175C71.4467 60.3 70.2082 59.065 68.6838 59.065H68.2846V56.3584C68.2846 52.2631 71.4157 48.7643 75.2083 48.5672C77.236 48.442 79.1998 49.1729 80.6833 50.5748C82.2242 51.9767 83.0411 53.8161 83.0411 55.9117C83.0411 56.2012 83.2768 56.4373 83.5681 56.4373C83.8594 56.4373 84.0951 56.2008 84.0951 55.9117C84.0951 53.5796 83.1596 51.4117 81.4666 49.8095Z" fill="#C0C0C0"/>
<defs>
<filter id="filter0_bf_277_2690" x="4.34241" y="0.0872803" width="65.8392" height="65.8393" filterUnits="userSpaceOnUse" color-interpolation-filters="sRGB">
<feFlood flood-opacity="0" result="BackgroundImageFix"/>
<feGaussianBlur in="BackgroundImage" stdDeviation="2"/>
<feComposite in2="SourceAlpha" operator="in" result="effect1_backgroundBlur_277_2690"/>
<feBlend mode="normal" in="SourceGraphic" in2="effect1_backgroundBlur_277_2690" result="shape"/>
<feGaussianBlur stdDeviation="2" result="effect2_foregroundBlur_277_2690"/>
</filter>
<filter id="filter1_bf_277_2690" x="67.4852" y="22.8497" width="10.7623" height="10.7623" filterUnits="userSpaceOnUse" color-interpolation-filters="sRGB">
<feFlood flood-opacity="0" result="BackgroundImageFix"/>
<feGaussianBlur in="BackgroundImage" stdDeviation="2"/>
<feComposite in2="SourceAlpha" operator="in" result="effect1_backgroundBlur_277_2690"/>
<feBlend mode="normal" in="SourceGraphic" in2="effect1_backgroundBlur_277_2690" result="shape"/>
<feGaussianBlur stdDeviation="2" result="effect2_foregroundBlur_277_2690"/>
</filter>
<filter id="filter2_bf_277_2690" x="8.52197" y="27.2911" width="11.9933" height="11.9932" filterUnits="userSpaceOnUse" color-interpolation-filters="sRGB">
<feFlood flood-opacity="0" result="BackgroundImageFix"/>
<feGaussianBlur in="BackgroundImage" stdDeviation="2"/>
<feComposite in2="SourceAlpha" operator="in" result="effect1_backgroundBlur_277_2690"/>
<feBlend mode="normal" in="SourceGraphic" in2="effect1_backgroundBlur_277_2690" result="shape"/>
<feGaussianBlur stdDeviation="2" result="effect2_foregroundBlur_277_2690"/>
</filter>
<filter id="filter3_bf_277_2690" x="37.712" y="60.6018" width="12.5477" height="12.5478" filterUnits="userSpaceOnUse" color-interpolation-filters="sRGB">
<feFlood flood-opacity="0" result="BackgroundImageFix"/>
<feGaussianBlur in="BackgroundImage" stdDeviation="2"/>
<feComposite in2="SourceAlpha" operator="in" result="effect1_backgroundBlur_277_2690"/>
<feBlend mode="normal" in="SourceGraphic" in2="effect1_backgroundBlur_277_2690" result="shape"/>
<feGaussianBlur stdDeviation="2" result="effect2_foregroundBlur_277_2690"/>
</filter>
<filter id="filter4_bf_277_2690" x="84.7336" y="38.0553" width="10.1224" height="10.1224" filterUnits="userSpaceOnUse" color-interpolation-filters="sRGB">
<feFlood flood-opacity="0" result="BackgroundImageFix"/>
<feGaussianBlur in="BackgroundImage" stdDeviation="2"/>
<feComposite in2="SourceAlpha" operator="in" result="effect1_backgroundBlur_277_2690"/>
<feBlend mode="normal" in="SourceGraphic" in2="effect1_backgroundBlur_277_2690" result="shape"/>
<feGaussianBlur stdDeviation="2" result="effect2_foregroundBlur_277_2690"/>
</filter>
<linearGradient id="paint0_linear_277_2690" x1="85.2188" y1="36.7108" x2="101.744" y2="23.6394" gradientUnits="userSpaceOnUse">
<stop stop-color="white"/>
<stop offset="1" stop-color="#EEEEEE"/>
</linearGradient>
<linearGradient id="paint1_linear_277_2690" x1="16.6798" y1="59.8007" x2="-6.14956" y2="38.5892" gradientUnits="userSpaceOnUse">
<stop stop-color="white"/>
<stop offset="1" stop-color="#EEEEEE"/>
</linearGradient>
</defs>
</svg>
