<svg width="146" height="111" viewBox="0 0 146 111" fill="none" xmlns="http://www.w3.org/2000/svg">
<path d="M116.143 24.1581C106.994 38.2106 105.321 51.229 105.917 58.7601C143.22 58.1457 140.568 97.9915 114.373 97.9915C103.24 97.9915 91.25 89.852 91.25 71.9853C91.25 55.4143 99.8397 36.4282 116.143 24.1581ZM37.0597 24.1581C27.9103 38.2106 26.2374 51.229 26.8336 58.7601C64.1366 58.1457 61.4843 97.9915 35.2894 97.9915C24.1569 97.9915 12.1667 89.852 12.1667 71.9853C12.1667 55.4143 20.7563 36.4282 37.0597 24.1581ZM139.917 0.658203C102.76 7.9947 79.0833 40.7109 79.0833 71.9853C79.0833 96.1361 96.0315 110.158 114.373 110.158C130.281 110.158 146 99.2265 146 79.8693C146 64.0465 134.411 50.9309 119.258 48.5462C120.578 36.3552 132.428 18.671 145.903 13.5914L139.917 0.658203ZM60.8333 0.658203C23.6763 7.9947 0 40.7109 0 71.9853C0 96.1361 16.9482 110.158 35.2894 110.158C51.1973 110.158 66.9167 99.2265 66.9167 79.8693C66.9167 64.0465 55.3279 50.9309 40.1743 48.5462C41.4944 36.3552 53.3448 18.671 66.8193 13.5914L60.8333 0.658203Z" fill="#BE281D"/>
</svg>
