<svg width="31" height="31" viewBox="0 0 31 31" fill="none" xmlns="http://www.w3.org/2000/svg">
<g opacity="0.2" clip-path="url(#clip0_2021_1963)">
<path d="M24.1983 9.17055C22.3183 12.058 21.9746 14.733 22.0971 16.2805C29.7621 16.1543 29.2171 24.3418 23.8346 24.3418C21.5471 24.3418 19.0833 22.6693 19.0833 18.998C19.0833 15.593 20.8483 11.6918 24.1983 9.17055ZM7.94831 9.17055C6.06831 12.058 5.72456 14.733 5.84706 16.2805C13.5121 16.1543 12.9671 24.3418 7.58456 24.3418C5.29706 24.3418 2.83331 22.6693 2.83331 18.998C2.83331 15.593 4.59831 11.6918 7.94831 9.17055ZM29.0833 4.3418C21.4483 5.8493 16.5833 12.5718 16.5833 18.998C16.5833 23.9605 20.0658 26.8418 23.8346 26.8418C27.1033 26.8418 30.3333 24.5955 30.3333 20.618C30.3333 17.3668 27.9521 14.6718 24.8383 14.1818C25.1096 11.6768 27.5446 8.04305 30.3133 6.9993L29.0833 4.3418ZM12.8333 4.3418C5.19831 5.8493 0.333313 12.5718 0.333313 18.998C0.333313 23.9605 3.81581 26.8418 7.58456 26.8418C10.8533 26.8418 14.0833 24.5955 14.0833 20.618C14.0833 17.3668 11.7021 14.6718 8.58831 14.1818C8.85956 11.6768 11.2946 8.04305 14.0633 6.9993L12.8333 4.3418Z" fill="#BE281D"/>
</g>
<defs>
<clipPath id="clip0_2021_1963">
<rect width="30" height="30" fill="white" transform="translate(0.333313 0.591797)"/>
</clipPath>
</defs>
</svg>
