<svg width="297" height="62" viewBox="0 0 297 62" fill="none" xmlns="http://www.w3.org/2000/svg">
<path d="M296.378 13.842L290.604 3.04087L279.803 8.8145L285.577 19.6157L296.378 13.842ZM3.30854 24.2355C3.9822 24.7176 4.91917 24.5624 5.40132 23.8887C5.88347 23.215 5.72821 22.2781 5.05454 21.7959L3.30854 24.2355ZM10.0127 25.2912C9.33214 24.8189 8.39752 24.9877 7.92521 25.6683C7.4529 26.3489 7.62175 27.2836 8.30235 27.7559L10.0127 25.2912ZM13.1641 31.0755C13.8519 31.5373 14.7838 31.3541 15.2456 30.6663C15.7074 29.9785 15.5242 29.0466 14.8364 28.5848L13.1641 31.0755ZM19.8759 31.9057C19.1801 31.456 18.2516 31.6556 17.8019 32.3514C17.3523 33.0472 17.5519 33.9757 18.2476 34.4253L19.8759 31.9057ZM23.3615 37.6614C24.0659 38.0975 24.9904 37.8799 25.4265 37.1756C25.8625 36.4712 25.645 35.5467 24.9406 35.1106L23.3615 37.6614ZM29.9123 38.1181C29.1989 37.6969 28.2792 37.9338 27.858 38.6471C27.4368 39.3605 27.6736 40.2802 28.387 40.7014L29.9123 38.1181ZM33.752 43.782C34.4755 44.1854 35.3891 43.9259 35.7926 43.2023C36.196 42.4788 35.9364 41.5652 35.2129 41.1618L33.752 43.782ZM40.3315 43.9289C39.5974 43.5448 38.6911 43.8285 38.307 44.5626C37.923 45.2966 38.2067 46.203 38.9407 46.587L40.3315 43.9289ZM44.4367 49.3558C45.1824 49.7167 46.0794 49.4046 46.4402 48.6589C46.801 47.9132 46.489 47.0161 45.7433 46.6553L44.4367 49.3558ZM51.0457 49.1112C50.2879 48.7764 49.4022 49.1192 49.0674 49.8769C48.7325 50.6347 49.0754 51.5204 49.8331 51.8552L51.0457 49.1112ZM55.4968 54.2243C56.2675 54.5279 57.1385 54.1493 57.4422 53.3785C57.7459 52.6078 57.3672 51.7368 56.5964 51.4331L55.4968 54.2243ZM62.0361 53.4387C61.2524 53.1701 60.3994 53.5878 60.1309 54.3715C59.8623 55.1552 60.2799 56.0082 61.0636 56.2767L62.0361 53.4387ZM66.9656 58.1261C67.7627 58.3518 68.5918 57.8886 68.8175 57.0915C69.0432 56.2944 68.58 55.4653 67.7829 55.2396L66.9656 58.1261ZM73.4566 56.666C72.6473 56.489 71.8478 57.0017 71.6709 57.811C71.4939 58.6203 72.0065 59.4198 72.8159 59.5968L73.4566 56.666ZM78.7941 60.6916C79.6138 60.8117 80.3756 60.2446 80.4958 59.425C80.6159 58.6053 80.0488 57.8434 79.2292 57.7233L78.7941 60.6916ZM85.1049 58.3518C84.2783 58.2971 83.5639 58.9229 83.5092 59.7495C83.4545 60.5761 84.0802 61.2906 84.9069 61.3453L85.1049 58.3518ZM91.0077 61.4868C91.836 61.4695 92.4934 60.784 92.4761 59.9558C92.4587 59.1275 91.7733 58.4701 90.945 58.4874L91.0077 61.4868ZM96.7535 58.0981C95.9304 58.1921 95.3393 58.9355 95.4333 59.7586C95.5273 60.5817 96.2707 61.1727 97.0938 61.0787L96.7535 58.0981ZM103.141 60.0942C103.951 59.9222 104.469 59.1258 104.297 58.3154C104.125 57.5051 103.328 56.9875 102.518 57.1595L103.141 60.0942ZM108.188 55.6745C107.397 55.9212 106.956 56.7622 107.203 57.5531C107.449 58.3439 108.29 58.7851 109.081 58.5385L108.188 55.6745ZM114.836 56.4648C115.603 56.1514 115.97 55.2757 115.657 54.5088C115.344 53.7419 114.468 53.3743 113.701 53.6877L114.836 56.4648ZM119.05 51.2589C118.308 51.6285 118.007 52.5292 118.377 53.2706C118.746 54.012 119.647 54.3134 120.388 53.9438L119.05 51.2589ZM125.742 51.0588C126.459 50.6443 126.704 49.7269 126.29 49.0096C125.876 48.2922 124.958 48.0467 124.241 48.4611L125.742 51.0588ZM129.294 45.371C128.597 45.8191 128.395 46.7472 128.843 47.444C129.292 48.1408 130.22 48.3423 130.916 47.8942L129.294 45.371ZM135.946 44.529C136.627 44.0573 136.796 43.1229 136.325 42.4418C135.853 41.7608 134.919 41.591 134.238 42.0627L135.946 44.529ZM139.1 38.6104C138.429 39.0966 138.279 40.0344 138.765 40.7052C139.251 41.376 140.189 41.5257 140.86 41.0395L139.1 38.6104ZM145.699 37.4899C146.365 36.9973 146.505 36.058 146.012 35.392C145.52 34.7259 144.581 34.5854 143.915 35.0781L145.699 37.4899ZM148.73 31.5127C148.064 32.0048 147.923 32.944 148.415 33.6104C148.907 34.2769 149.846 34.4183 150.512 33.9262L148.73 31.5127ZM155.339 30.3964C156.011 29.9115 156.162 28.9739 155.678 28.3022C155.193 27.6305 154.255 27.4791 153.583 27.964L155.339 30.3964ZM158.506 24.478C157.825 24.9496 157.655 25.8841 158.127 26.5652C158.598 27.2462 159.533 27.416 160.214 26.9444L158.506 24.478ZM165.153 23.6201C165.847 23.1675 166.043 22.2381 165.59 21.5443C165.137 20.8504 164.208 20.6548 163.514 21.1073L165.153 23.6201ZM168.623 17.8966C167.914 18.3247 167.686 19.2467 168.114 19.9559C168.542 20.6652 169.464 20.893 170.174 20.4649L168.623 17.8966ZM175.309 17.504C176.035 17.1054 176.301 16.1936 175.902 15.4673C175.504 14.7411 174.592 14.4754 173.866 14.874L175.309 17.504ZM179.258 12.0731C178.514 12.4375 178.206 13.336 178.571 14.08C178.935 14.824 179.834 15.1317 180.578 14.7673L179.258 12.0731ZM185.952 12.2987C186.714 11.9722 187.066 11.0903 186.74 10.3289C186.414 9.56756 185.532 9.21499 184.77 9.54146L185.952 12.2987ZM190.391 7.30445C189.614 7.59015 189.215 8.45213 189.501 9.22973C189.786 10.0073 190.648 10.4061 191.426 10.1204L190.391 7.30445ZM197.037 8.23076C197.829 7.98802 198.275 7.14914 198.032 6.35707C197.789 5.56501 196.95 5.11969 196.158 5.36243L197.037 8.23076ZM202.026 3.73944C201.222 3.93826 200.731 4.75139 200.93 5.5556C201.129 6.35982 201.942 6.85059 202.746 6.65176L202.026 3.73944ZM208.481 5.39696C209.295 5.24161 209.829 4.45601 209.673 3.64228C209.518 2.82855 208.732 2.29483 207.919 2.45019L208.481 5.39696ZM213.951 1.46377C213.13 1.57599 212.556 2.33234 212.668 3.15313C212.78 3.97393 213.536 4.54834 214.357 4.43612L213.951 1.46377ZM220.201 3.78613C221.027 3.7149 221.638 2.98808 221.567 2.16272C221.495 1.33736 220.769 0.726015 219.943 0.79724L220.201 3.78613ZM225.994 0.420649C225.166 0.452715 224.521 1.14978 224.553 1.97759C224.585 2.80539 225.282 3.45047 226.11 3.4184L225.994 0.420649ZM232.051 3.32218C232.879 3.327 233.554 2.65934 233.559 1.83093C233.564 1.00251 232.896 0.327046 232.068 0.322231L232.051 3.32218ZM238.084 0.482473C237.257 0.443591 236.554 1.08291 236.515 1.91042C236.476 2.73794 237.116 3.44029 237.943 3.47916L238.084 0.482473ZM243.901 3.87601C244.727 3.94681 245.453 3.33509 245.524 2.5097C245.595 1.6843 244.983 0.957791 244.158 0.88699L243.901 3.87601ZM250.13 1.50686C249.307 1.40701 248.56 1.99274 248.46 2.81513C248.36 3.63752 248.946 4.38514 249.768 4.485L250.13 1.50686ZM255.67 5.30166C256.489 5.42849 257.256 4.86765 257.382 4.04899C257.509 3.23033 256.948 2.46386 256.13 2.33703L255.67 5.30166ZM262.088 3.35405C261.274 3.20248 260.491 3.73985 260.339 4.55429C260.188 5.36873 260.725 6.15184 261.54 6.30341L262.088 3.35405ZM267.328 7.46493C268.138 7.63901 268.935 7.12356 269.109 6.31363C269.283 5.5037 268.768 4.706 267.958 4.53191L267.328 7.46493ZM273.964 5.90686C273.159 5.7115 272.348 6.20576 272.152 7.01082C271.957 7.81588 272.451 8.62689 273.256 8.82225L273.964 5.90686ZM278.888 10.2593C279.688 10.4733 280.51 9.99808 280.724 9.19778C280.938 8.39748 280.463 7.57519 279.663 7.36115L278.888 10.2593ZM285.529 9.0014C284.733 8.76953 283.901 9.2263 283.669 10.0216C283.437 10.8169 283.894 11.6496 284.689 11.8815L285.529 9.0014ZM0.761112 22.3987C1.61593 23.0196 2.46505 23.6318 3.30854 24.2355L5.05454 21.7959C4.2168 21.1963 3.37332 20.5882 2.52404 19.9714L0.761112 22.3987ZM8.30235 27.7559C9.94477 28.8956 11.5652 30.002 13.1641 31.0755L14.8364 28.5848C13.2506 27.5201 11.6429 26.4225 10.0127 25.2912L8.30235 27.7559ZM18.2476 34.4253C19.9779 35.5435 21.6823 36.6219 23.3615 37.6614L24.9406 35.1106C23.2784 34.0816 21.5904 33.0136 19.8759 31.9057L18.2476 34.4253ZM28.387 40.7014C30.2054 41.7751 31.9934 42.8015 33.752 43.782L35.2129 41.1618C33.4767 40.1937 31.7101 39.1796 29.9123 38.1181L28.387 40.7014ZM38.9407 46.587C40.8063 47.5631 42.6379 48.4855 44.4367 49.3558L45.7433 46.6553C43.9738 45.7992 42.1703 44.891 40.3315 43.9289L38.9407 46.587ZM49.8331 51.8552C51.759 52.7063 53.6463 53.4952 55.4968 54.2243L56.5964 51.4331C54.7854 50.7196 52.9358 49.9464 51.0457 49.1112L49.8331 51.8552ZM61.0636 56.2767C63.0747 56.9658 65.0412 57.5812 66.9656 58.1261L67.7829 55.2396C65.9128 54.71 63.998 54.1109 62.0361 53.4387L61.0636 56.2767ZM72.8159 59.5968C74.8559 60.0428 76.8475 60.4063 78.7941 60.6916L79.2292 57.7233C77.3538 57.4484 75.4309 57.0976 73.4566 56.666L72.8159 59.5968ZM84.9069 61.3453C86.9917 61.4832 89.0237 61.5283 91.0077 61.4868L90.945 58.4874C89.0494 58.5271 87.1044 58.4841 85.1049 58.3518L84.9069 61.3453ZM97.0938 61.0787C99.1602 60.8428 101.174 60.5116 103.141 60.0942L102.518 57.1595C100.643 57.5575 98.7234 57.8732 96.7535 58.0981L97.0938 61.0787ZM109.081 58.5385C111.042 57.9271 112.957 57.2323 114.836 56.4648L113.701 53.6877C111.897 54.4248 110.062 55.0902 108.188 55.6745L109.081 58.5385ZM120.388 53.9438C122.2 53.0406 123.982 52.0753 125.742 51.0588L124.241 48.4611C122.529 49.4504 120.801 50.386 119.05 51.2589L120.388 53.9438ZM130.916 47.8942C132.604 46.8089 134.278 45.6838 135.946 44.529L134.238 42.0627C132.593 43.2018 130.947 44.3074 129.294 45.371L130.916 47.8942ZM140.86 41.0395C142.47 39.8732 144.081 38.6867 145.699 37.4899L143.915 35.0781C142.299 36.2727 140.697 37.4525 139.1 38.6104L140.86 41.0395ZM150.512 33.9262C152.106 32.7495 153.713 31.5706 155.339 30.3964L153.583 27.964C151.945 29.1469 150.329 30.3328 148.73 31.5127L150.512 33.9262ZM160.214 26.9444C161.835 25.8221 163.479 24.7118 165.153 23.6201L163.514 21.1073C161.814 22.2163 160.146 23.3423 158.506 24.478L160.214 26.9444ZM170.174 20.4649C171.851 19.4521 173.562 18.4631 175.309 17.504L173.866 14.874C172.079 15.8544 170.333 16.8642 168.623 17.8966L170.174 20.4649ZM180.578 14.7673C182.329 13.9095 184.119 13.0848 185.952 12.2987L184.77 9.54146C182.888 10.3484 181.052 11.1942 179.258 12.0731L180.578 14.7673ZM191.426 10.1204C193.252 9.44948 195.121 8.81802 197.037 8.23076L196.158 5.36243C194.189 5.9661 192.267 6.61509 190.391 7.30445L191.426 10.1204ZM202.746 6.65176C204.613 6.19026 206.524 5.77072 208.481 5.39696L207.919 2.45019C205.908 2.83408 203.945 3.26513 202.026 3.73944L202.746 6.65176ZM214.357 4.43612C216.261 4.17582 218.208 3.95812 220.201 3.78613L219.943 0.79724C217.901 0.973481 215.904 1.19668 213.951 1.46377L214.357 4.43612ZM226.11 3.4184C228.048 3.34333 230.027 3.31041 232.051 3.32218L232.068 0.322231C230.001 0.310207 227.977 0.343829 225.994 0.420649L226.11 3.4184ZM237.943 3.47916C239.89 3.57062 241.875 3.70224 243.901 3.87601L244.158 0.88699C242.094 0.709975 240.07 0.575777 238.084 0.482473L237.943 3.47916ZM249.768 4.485C251.7 4.71955 253.667 4.99125 255.67 5.30166L256.13 2.33703C254.094 2.02169 252.095 1.74546 250.13 1.50686L249.768 4.485ZM261.54 6.30341C263.437 6.65656 265.366 7.04335 267.328 7.46493L267.958 4.53191C265.97 4.10463 264.014 3.71238 262.088 3.35405L261.54 6.30341ZM273.256 8.82225C275.105 9.271 276.982 9.74971 278.888 10.2593L279.663 7.36115C277.735 6.84568 275.836 6.36121 273.964 5.90686L273.256 8.82225ZM284.689 11.8815C285.67 12.1676 286.659 12.4616 287.655 12.7637L288.526 9.89285C287.52 9.58766 286.521 9.29055 285.529 9.0014L284.689 11.8815Z" fill="#BE281D"/>
</svg>
