<svg width="18" height="24" viewBox="0 0 18 24" fill="none" xmlns="http://www.w3.org/2000/svg">
<path d="M10.5 0H7.5C3.35719 0 0 3.35766 0 7.5V16.5C0 20.6428 3.35766 24 7.5 24H10.5C14.6428 24 18 20.6423 18 16.5V7.5C18 3.35719 14.6438 0 10.5 0ZM16.5 16.5C16.4941 19.8108 13.8103 22.4953 10.5 22.5H7.5C4.18922 22.4941 1.50469 19.8103 1.5 16.5V7.5C1.50586 4.18922 4.18969 1.50469 7.5 1.5H10.5C13.8108 1.50586 16.4953 4.18969 16.5 7.5V16.5ZM9 4.45781C8.58544 4.45781 8.25 4.79325 8.25 5.20781V8.20781C8.25 8.6625 8.5875 9 9 9C9.4125 9 9.75 8.66456 9.75 8.25V5.25C9.75 4.8375 9.4125 4.45781 9 4.45781Z" fill="#BE281D"/>
<path d="M10.5 0H7.5C3.35719 0 0 3.35766 0 7.5V16.5C0 20.6428 3.35766 24 7.5 24H10.5C14.6428 24 18 20.6423 18 16.5V7.5C18 3.35719 14.6438 0 10.5 0ZM16.5 16.5C16.4941 19.8108 13.8103 22.4953 10.5 22.5H7.5C4.18922 22.4941 1.50469 19.8103 1.5 16.5V7.5C1.50586 4.18922 4.18969 1.50469 7.5 1.5H10.5C13.8108 1.50586 16.4953 4.18969 16.5 7.5V16.5Z" fill="white"/>
</svg>
