<svg width="96" height="92" viewBox="0 0 96 92" fill="none" xmlns="http://www.w3.org/2000/svg">
<path fill-rule="evenodd" clip-rule="evenodd" d="M56.0904 7.01625C54.3662 7.19732 53.6019 7.3075 51.6421 7.65871C50.935 7.78539 48.7973 8.35045 47.7962 8.67564C47.141 8.88809 46.0607 9.28045 45.6184 9.4664C45.4655 9.53078 45.0485 9.70302 44.6917 9.84969C37.6421 12.744 31.1949 18.5325 27.197 25.5559C26.748 26.3448 25.594 28.7129 25.3167 29.4144C25.2259 29.6445 25.0792 30.0001 24.9912 30.2047C24.4354 31.4945 23.4498 34.9448 23.1456 36.6665C23.0868 36.9989 23.0027 37.4591 22.9589 37.6892C22.8683 38.1636 22.7263 39.3953 22.5896 40.8897C22.4705 42.1925 22.47 45.1519 22.5889 46.3164C22.7786 48.1764 22.8868 49.0139 23.0657 50.0085C23.236 50.9545 23.6996 52.9821 23.8946 53.6346C24.1622 54.5297 24.934 56.8102 24.9958 56.8887C25.0359 56.9399 25.0998 57.0863 25.1376 57.2141C25.2032 57.4361 25.2706 57.5972 25.74 58.6553C29.9362 68.1107 39.3489 76.3356 48.6766 78.6976C48.8295 78.7362 49.4551 78.9001 50.0667 79.0614C55.551 80.5086 62.6217 80.5246 67.883 79.1021C68.1506 79.0298 68.6093 78.9063 68.9024 78.828C76.8546 76.7024 84.605 71.082 89.2838 64.0479C90.4883 62.2369 92.557 58.4319 92.557 58.0272C92.557 57.9584 92.5924 57.8624 92.6358 57.8138C92.8123 57.6163 93.8588 54.6654 94.1757 53.4719C94.2538 53.1778 94.3775 52.7162 94.4505 52.4459C95.8614 47.2188 95.8487 40.1689 94.4185 34.621C94.2668 34.0329 94.1162 33.4472 94.0835 33.3194C92.1963 25.9108 86.3581 17.8382 79.5828 13.2689C78.7921 12.7354 77.3645 11.8419 77.3031 11.8419C77.2806 11.8419 77.1027 11.7408 76.9076 11.6172C76.523 11.3738 74.7896 10.488 74.1152 10.1904C73.8858 10.0891 73.4271 9.89106 73.0958 9.74997C72.7645 9.60911 72.357 9.43386 72.1904 9.36087C71.8653 9.21838 69.8027 8.5213 69.3426 8.39857C64.4851 7.10156 59.8677 6.61994 56.0904 7.01625ZM58.5926 26.4445C60.5065 26.5826 63.4284 26.8912 64.6163 27.0809C64.9221 27.1297 65.477 27.2146 65.8493 27.2696C71.7643 28.1436 78.3336 30.3055 83.2434 32.9939C85.5118 34.2361 86.2731 35.8216 85.5187 37.7334C84.8376 39.4599 82.5081 40.3734 80.9266 39.5339C79.5815 38.8198 76.9808 37.5158 76.6173 37.3731C76.388 37.2829 76.0752 37.1546 75.9223 37.0884C74.4868 36.4645 71.3874 35.4659 69.4352 34.998C69.1804 34.9371 68.7425 34.83 68.4622 34.7605C67.8855 34.6171 65.9934 34.257 64.3382 33.9758C56.2878 32.6072 46.0959 32.9872 39.085 34.9169C37.9169 35.2384 37.6444 35.2821 36.9999 35.2505C33.7028 35.0891 32.5966 30.8167 35.3781 28.9871C36.7437 28.0888 43.293 26.8413 48.6766 26.4538C50.3232 26.3352 56.9912 26.3292 58.5926 26.4445ZM55.8587 38.9881C60.7748 39.2452 65.5307 40.1296 70.048 41.6267C75.1684 43.3238 79.7402 45.7105 80.3518 47.0059C81.6636 49.7849 78.5628 52.2702 75.9686 50.5187C75.176 49.9836 72.5536 48.6799 71.1033 48.1002C65.3479 45.799 59.2383 44.6594 52.6773 44.6636C48.3812 44.6664 44.628 45.1747 40.2898 46.3413C39.1191 46.6563 38.7199 46.6565 38.0123 46.3425C35.5658 45.2568 35.7305 41.8687 38.2723 41.0031C42.7463 39.4795 49.7989 38.6715 55.8587 38.9881ZM56.9903 50.9852C57.5148 51.0366 58.3817 51.1226 58.9169 51.1763C63.0374 51.5889 67.737 52.9175 71.5667 54.7521C72.8643 55.3739 75.0176 56.5796 75.2977 56.8413C77.0042 58.4363 75.6352 61.2342 73.358 60.8056C73.1871 60.7735 72.5474 60.4634 71.9362 60.1169C67.2055 57.4331 62.701 56.0817 56.8318 55.5847C54.3658 55.376 49.5656 55.4695 47.5798 55.7647C47.4186 55.7886 46.9529 55.8553 46.5451 55.9125C45.2401 56.0961 43.414 56.3918 42.7456 56.5278C42.3888 56.6005 41.6805 56.7476 41.1715 56.8548C39.0436 57.3032 37.8383 56.5429 37.8353 54.7503C37.8328 53.3563 38.44 52.7841 40.3824 52.3485C45.6024 51.1777 52.8696 50.5812 56.9903 50.9852Z" fill="#1DDA63"/>
<path d="M5.82726 60.8745C10.3128 63.5731 16.7483 61.0784 16.7483 61.0784C16.7483 61.0784 15.907 54.2093 11.4184 51.5138C6.9329 48.8152 0.5 51.3069 0.5 51.3069C0.5 51.3069 1.34151 58.1759 5.82726 60.8745Z" fill="url(#paint0_linear_1358_69380)"/>
<path d="M19.7415 80.1183C18.0207 80.1183 16.6257 78.7182 16.6257 76.991C16.6257 75.2639 18.0207 73.8638 19.7415 73.8638C21.4623 73.8638 22.8573 75.2639 22.8573 76.991C22.8573 78.7182 21.4623 80.1183 19.7415 80.1183Z" fill="#C0C0C0"/>
<path d="M13.8444 33.0606C14.1828 34.3282 13.4333 35.6311 12.1704 35.9708C10.9075 36.3104 9.60945 35.5582 9.27109 34.2907C8.93274 33.0232 9.68223 31.7202 10.9451 31.3806C12.208 31.0409 13.5061 31.7931 13.8444 33.0606Z" fill="#C0C0C0"/>
<path d="M32.4853 2.83716C31.9411 2.83716 31.5 2.39425 31.5 1.8479C31.5 1.30155 31.9411 0.858643 32.4853 0.858643C33.0295 0.858643 33.4706 1.30155 33.4706 1.8479C33.4706 2.39425 33.0295 2.83716 32.4853 2.83716Z" fill="#C0C0C0"/>
<path d="M39.0992 91.199C37.7612 91.199 36.6766 90.3281 36.6766 89.2538C36.6766 88.1795 37.7612 87.3086 39.0992 87.3086C40.4371 87.3086 41.5217 88.1795 41.5217 89.2538C41.5217 90.3281 40.4371 91.199 39.0992 91.199Z" fill="#C0C0C0"/>
<path d="M17.3268 21.9381C18.888 21.9381 20.1537 20.5896 20.1537 18.926C20.1537 17.2625 18.888 15.914 17.3268 15.914C15.7656 15.914 14.5 17.2625 14.5 18.926C14.5 20.5896 15.7656 21.9381 17.3268 21.9381ZM20.1537 18.9257V8.39848V18.9257ZM22.0053 6.98292L25.129 8.09739C25.8781 8.36847 26.5 9.27207 26.5 10.1305V11.0191C26.5 12.1637 25.6661 12.8113 24.6484 12.4499L21.5247 11.3354C20.7755 11.0643 20.1537 10.1606 20.1537 9.30222V8.41371C20.1537 7.25407 20.9876 6.62148 22.0053 6.98292V6.98292Z" stroke="white" stroke-linecap="round" stroke-linejoin="round"/>
<defs>
<linearGradient id="paint0_linear_1358_69380" x1="23.1855" y1="69.5612" x2="-13.0342" y2="36.0352" gradientUnits="userSpaceOnUse">
<stop stop-color="white"/>
<stop offset="1" stop-color="#EEEEEE"/>
</linearGradient>
</defs>
</svg>
