<svg width="98" height="88" viewBox="0 0 98 88" fill="none" xmlns="http://www.w3.org/2000/svg">
<circle opacity="0.1" cx="43.8679" cy="43.7041" r="43.7041" fill="white"/>
<circle opacity="0.1" cx="53.8679" cy="43.7041" r="43.2041" fill="white" stroke="white"/>
<path d="M48.7606 24.25C36.3856 24.25 27.1044 34.5625 26.7606 46.25V55.1875C26.7606 56.3906 27.62 57.25 28.7372 57.25C29.7684 57.25 30.8856 56.3906 30.8856 55.1875V46.25C30.8856 36.4531 38.8778 28.4609 48.7606 28.4609C58.5575 28.4609 66.6356 36.4531 66.6356 46.25V55.1875C66.6356 56.3906 67.495 57.25 68.6981 57.25C69.8153 57.25 70.7606 56.3906 70.7606 55.1875V46.25C70.3309 34.5625 61.0497 24.25 48.7606 24.25ZM40.5106 46.25H39.1356C36.0419 46.25 33.6356 48.7422 33.6356 51.8359V57.25C33.6356 60.3438 36.0419 62.75 39.1356 62.75H40.5106C41.9716 62.75 43.2606 61.5469 43.2606 60V49.0859C43.2606 47.5391 41.9716 46.25 40.5106 46.25ZM58.3856 46.25H57.0106C55.4637 46.25 54.2606 47.5391 54.2606 49.0859V60C54.2606 61.5469 55.4637 62.75 57.0106 62.75H58.3856C61.3934 62.75 63.8856 60.3438 63.8856 57.25V51.8359C63.8856 48.7422 61.3934 46.25 58.3856 46.25Z" fill="white"/>
</svg>
