<svg width="98" height="88" viewBox="0 0 98 88" fill="none" xmlns="http://www.w3.org/2000/svg">
<circle opacity="0.1" cx="44.2761" cy="43.7041" r="43.7041" fill="white"/>
<circle opacity="0.1" cx="54.2761" cy="43.7041" r="43.2041" fill="white" stroke="white"/>
<path d="M68.4188 23.5625C68.4188 22.4453 67.4735 21.5 66.3563 21.5H31.8954C30.7782 21.5 29.8329 22.4453 29.8329 23.5625V25.625H68.4188V23.5625ZM69.7938 30.4375C69.7938 29.3203 68.8485 28.375 67.7313 28.375H30.5204C29.4032 28.375 28.4579 29.3203 28.4579 30.4375V32.5H69.7938V30.4375ZM49.1688 59.1406C55.5282 59.1406 60.9423 55.4453 61.286 50.7188C61.6298 45.6484 56.2157 41.2656 49.1688 41.2656C42.036 41.2656 36.6219 45.6484 36.9657 50.7188C37.3094 55.4453 42.7235 59.1406 49.1688 59.1406ZM49.1688 49C50.5438 49 51.7469 49.9453 51.661 50.9766C51.661 52.0078 50.5438 52.7812 49.1688 52.7812C47.7079 52.7812 46.5907 52.0078 46.5907 50.9766C46.5048 49.8594 47.7079 49 49.1688 49ZM68.4188 35.25H29.8329C27.7704 35.25 26.9969 37.1406 27.1688 38.2578L29.1454 60.5156C29.4032 63.3516 31.8094 65.5 34.6454 65.5H63.6063C66.4423 65.5 68.8485 63.3516 69.1063 60.5156L71.0829 38.2578C71.2548 37.1406 70.4813 35.25 68.4188 35.25ZM64.9813 60.1719C64.8954 60.8594 64.2938 61.375 63.6063 61.375H34.6454C33.9579 61.375 33.3563 60.8594 33.2704 60.1719L31.3798 39.375H66.8719L64.9813 60.1719Z" fill="white"/>
</svg>
