<svg width="99" height="88" viewBox="0 0 99 88" fill="none" xmlns="http://www.w3.org/2000/svg">
<circle opacity="0.1" cx="44.4597" cy="43.7041" r="43.7041" fill="white"/>
<circle opacity="0.1" cx="54.4597" cy="43.7041" r="43.2041" fill="white" stroke="white"/>
<path d="M29.4149 29.75H50.0399C51.1571 29.75 52.1024 28.8906 52.1024 27.6875C52.1024 26.5703 51.1571 25.625 50.0399 25.625H29.4149C28.2118 25.625 27.3524 26.5703 27.3524 27.6875C27.3524 28.8906 28.2118 29.75 29.4149 29.75ZM70.1493 22.1016C69.4618 21.5859 68.6024 21.4141 67.743 21.6719L58.118 24.6797C57.0009 25.1094 56.2274 26.1406 56.2274 27.3438V53.0391C54.5946 52.2656 52.704 51.75 50.7274 51.75C45.3993 51.75 41.1024 54.8438 41.1024 58.625C41.1024 62.4922 45.3993 65.5 50.7274 65.5C55.9696 65.5 60.3524 62.4922 60.3524 58.625V38.3438L69.3759 35.5078C70.579 35.0781 71.3524 34.0469 71.3524 32.8438V24.25C71.3524 23.3906 70.9227 22.6172 70.1493 22.1016ZM50.7274 61.375C47.2899 61.375 45.2274 59.5703 45.2274 58.625C45.2274 57.6797 47.2899 55.875 50.7274 55.875C54.079 55.875 56.2274 57.6797 56.2274 58.625C56.2274 59.6562 54.079 61.375 50.7274 61.375ZM67.2274 31.8125L60.3524 33.9609V28.375L67.2274 26.1406V31.8125ZM29.4149 40.75H50.0399C51.1571 40.75 52.1024 39.8047 52.1024 38.6875C52.1024 37.4844 51.1571 36.625 50.0399 36.625H29.4149C28.2118 36.625 27.3524 37.4844 27.3524 38.6875C27.3524 39.8047 28.2118 40.75 29.4149 40.75ZM39.0399 47.625H29.4149C28.2118 47.625 27.3524 48.4844 27.3524 49.6875C27.3524 50.8047 28.2118 51.75 29.4149 51.75H39.0399C40.1571 51.75 41.1024 50.8047 41.1024 49.6875C41.1024 48.4844 40.1571 47.625 39.0399 47.625Z" fill="white"/>
</svg>
