<svg width="116" height="79" viewBox="0 0 116 79" fill="none" xmlns="http://www.w3.org/2000/svg">
<path d="M103.689 31.4997C100.384 33.1727 95.9982 31.0213 95.9982 31.0213C95.9982 31.0213 96.973 26.1581 100.279 24.4874C103.584 22.8142 107.968 24.9632 107.968 24.9632C107.968 24.9632 106.993 29.8264 103.689 31.4997Z" fill="url(#paint0_linear_277_2660)"/>
<path d="M98.6479 22.1031C97.3464 22.9373 95.7991 22.3217 93.5807 20.8474C91.9126 19.7384 90.3787 18.7506 89.1313 16.8526C88.258 15.5247 87.7675 14.0969 87.5265 12.8358C87.2652 11.4693 86.7708 9.8052 87.8761 9.0038C89.3948 7.90318 94.2553 8.88726 97.2328 13.1082C100.503 17.7454 99.9206 21.2883 98.6479 22.1031Z" fill="url(#paint1_linear_277_2660)"/>
<path d="M15.4989 53.0673C19.8202 55.5791 26.02 53.2571 26.02 53.2571C26.02 53.2571 25.2093 46.8636 20.8854 44.3545C16.5641 41.8427 10.3669 44.1619 10.3669 44.1619C10.3669 44.1619 11.1776 50.5555 15.4989 53.0673Z" fill="#FBDE4B"/>
<g filter="url(#filter0_bf_277_2660)">
<path d="M101.753 39.5569C100.224 39.5569 98.984 40.7965 98.984 42.3255C98.984 43.8546 100.224 45.0942 101.753 45.0942C103.282 45.0942 104.521 43.8546 104.521 42.3255C104.521 40.7965 103.282 39.5569 101.753 39.5569Z" fill="#BE281D"/>
</g>
<g filter="url(#filter1_bf_277_2660)">
<path d="M19.6708 32.129C18.412 32.129 17.3916 33.1495 17.3916 34.4083C17.3916 35.667 18.412 36.6875 19.6708 36.6875C20.9296 36.6875 21.9501 35.667 21.9501 34.4083C21.9501 33.1495 20.9296 32.129 19.6708 32.129Z" fill="#BE281D"/>
</g>
<g filter="url(#filter2_bf_277_2660)">
<path d="M24.1785 65.2843C23.1614 65.2843 22.337 64.4598 22.337 63.4427C22.337 62.4257 23.1614 61.6012 24.1785 61.6012C25.1955 61.6012 26.02 62.4257 26.02 63.4427C26.02 64.4598 25.1955 65.2843 24.1785 65.2843Z" fill="#BE281D"/>
</g>
<g filter="url(#filter3_bf_277_2660)">
<path d="M110.192 46.7351C109.523 46.7351 108.981 46.1929 108.981 45.5239C108.981 44.855 109.523 44.3127 110.192 44.3127C110.861 44.3127 111.403 44.855 111.403 45.5239C111.403 46.1929 110.861 46.7351 110.192 46.7351Z" fill="#2062EF"/>
</g>
<path d="M92.9508 59.4152C92.0906 59.4152 91.3934 58.7179 91.3934 57.8578C91.3934 56.9976 92.0906 56.3004 92.9508 56.3004C93.8109 56.3004 94.5082 56.9976 94.5082 57.8578C94.5082 58.7179 93.8109 59.4152 92.9508 59.4152Z" fill="#C0C0C0"/>
<path d="M19.697 76.2267C18.4546 76.2267 17.4475 75.2196 17.4475 73.9773C17.4475 72.735 18.4546 71.7278 19.697 71.7278C20.9393 71.7278 21.9464 72.735 21.9464 73.9773C21.9464 75.2196 20.9393 76.2267 19.697 76.2267Z" fill="#C0C0C0"/>
<path d="M91.8547 78.175C89.5664 78.175 87.7113 76.3199 87.7113 74.0316C87.7113 71.7432 89.5664 69.8881 91.8547 69.8881C94.1431 69.8881 95.9982 71.7432 95.9982 74.0316C95.9982 76.3199 94.1431 78.175 91.8547 78.175Z" fill="#FBDE4B"/>
<path d="M105.629 18.8122C104.577 18.8122 103.725 17.96 103.725 16.9088C103.725 15.8576 104.577 15.0054 105.629 15.0054C106.68 15.0054 107.532 15.8576 107.532 16.9088C107.532 17.96 106.68 18.8122 105.629 18.8122Z" fill="#C0C0C0"/>
<path d="M4.58362 38.7137C4.82796 39.6256 4.28681 40.5629 3.37492 40.8072C2.46304 41.0516 1.52574 40.5104 1.2814 39.5986C1.03706 38.6867 1.57822 37.7494 2.4901 37.505C3.40198 37.2607 4.33928 37.8018 4.58362 38.7137Z" fill="#C0C0C0"/>
<path d="M26.8345 15.3379C26.4416 15.3379 26.1231 15.0194 26.1231 14.6265C26.1231 14.2336 26.4416 13.9151 26.8345 13.9151C27.2274 13.9151 27.5459 14.2336 27.5459 14.6265C27.5459 15.0194 27.2274 15.3379 26.8345 15.3379Z" fill="#2062EF"/>
<path d="M103.741 60.5865C102.775 60.5865 101.991 59.96 101.991 59.1871C101.991 58.4143 102.775 57.7878 103.741 57.7878C104.707 57.7878 105.49 58.4143 105.49 59.1871C105.49 59.96 104.707 60.5865 103.741 60.5865Z" fill="#C0C0C0"/>
<path d="M73.0935 3.76072C73.2704 4.42085 72.8786 5.09938 72.2185 5.27627C71.5584 5.45315 70.8798 5.0614 70.703 4.40127C70.5261 3.74114 70.9178 3.0626 71.578 2.88572C72.2381 2.70884 72.9166 3.10059 73.0935 3.76072Z" fill="#C0C0C0"/>
<path d="M17.3787 16.9399H17.4035C17.5511 19.0306 19.1059 19.0629 19.1059 19.0629C19.1059 19.0629 17.3915 19.0963 17.3915 21.5118C17.3915 19.0963 15.677 19.0629 15.677 19.0629C15.677 19.0629 17.2311 19.0306 17.3787 16.9399Z" fill="#C0C0C0"/>
<path d="M70.3682 10.7604L80.9574 21.359C82.2012 22.604 82.9001 24.2918 82.9006 26.0518V67.9213C82.9006 71.5893 79.9328 74.5587 76.2699 74.5587H38.8258C35.1628 74.5587 32.1951 71.5893 32.1951 67.9213V15.4532C32.1951 11.785 35.1628 8.8158 38.8258 8.8158H65.6807C66.5515 8.8162 67.4136 8.98814 68.2179 9.3218C69.0222 9.65546 69.7529 10.1443 70.3682 10.7604V10.7604Z" stroke="#C0C0C0" stroke-width="3"/>
<path d="M43.4607 44.3549H58.2849M52.6364 53.6282H69.4344M43.4287 62.8325H63.9098" stroke="#C0C0C0" stroke-width="3" stroke-linecap="round" stroke-linejoin="round"/>
<path d="M42.4858 31.3034C42.4858 35.8162 45.9913 39.4389 50.2727 39.4389C54.554 39.4389 58.0596 35.8162 58.0596 31.3034C58.0596 26.7907 54.554 23.1679 50.2727 23.1679C45.9913 23.1679 42.4858 26.7907 42.4858 31.3034Z" stroke="#C0C0C0"/>
<path fill-rule="evenodd" clip-rule="evenodd" d="M53.1303 34.3246V34.7496C53.1302 34.8623 53.0872 34.9704 53.0106 35.0501C52.9341 35.1298 52.8303 35.1745 52.7221 35.1745H47.8234C47.7152 35.1745 47.6114 35.1298 47.5349 35.0501C47.4583 34.9704 47.4153 34.8623 47.4152 34.7496V34.3179C47.4152 33.0321 48.8269 32.1967 50.2727 32.1967C51.7187 32.1967 53.1303 33.0325 53.1303 34.3179V34.3246ZM51.2831 28.4639C51.841 29.0453 51.841 29.988 51.2831 30.5694C50.725 31.1509 49.8204 31.1509 49.2625 30.5694C48.7044 29.988 48.7044 29.0453 49.2625 28.4639C49.8204 27.8824 50.725 27.8824 51.2831 28.4639Z" fill="white"/>
<g filter="url(#filter4_bf_277_2660)">
<path fill-rule="evenodd" clip-rule="evenodd" d="M101.523 30.6838V14.9762C101.523 12.2729 99.8191 9.8596 97.2623 8.94326L87.4332 5.42346C84.0454 4.21049 80.3408 4.21049 76.953 5.42346L67.1109 8.9497C64.5564 9.86521 62.8527 12.2752 62.8506 14.9762V30.6838C62.8506 38.8452 74.3297 44.8846 79.6084 47.2377C80.4191 47.6016 81.2978 47.7897 82.1866 47.7897C83.0754 47.7897 83.9541 47.6016 84.7648 47.2377C90.0436 44.8847 101.523 38.8325 101.523 30.6838Z" fill="#BE281D"/>
</g>
<path d="M74.7107 21.9108H89.9067V35.1418H74.7107V21.9108Z" fill="white"/>
<path fill-rule="evenodd" clip-rule="evenodd" d="M82.3742 22.9215C80.4778 22.9215 78.7886 22.9963 77.4084 23.0915C76.0994 23.1817 75.0927 24.265 74.9988 25.6748C74.9318 26.6776 74.8853 27.7344 74.8853 28.7228C74.8853 29.7113 74.9318 30.7681 74.9988 31.7709C75.0927 33.1807 76.0994 34.2638 77.4084 34.3542C80.715 34.581 84.0333 34.581 87.3399 34.3542C88.6491 34.2638 89.6556 33.1807 89.7496 31.7709C89.8165 30.7681 89.863 29.7113 89.863 28.7228C89.863 27.7344 89.8165 26.6776 89.7496 25.6748C89.6556 24.265 88.6491 23.1817 87.3399 23.0915C85.6871 22.9782 84.0309 22.9214 82.3742 22.9215ZM77.2727 20.7756C74.9 20.9391 73.0361 22.9358 72.8646 25.5074C72.7955 26.5455 72.7457 27.6611 72.7457 28.7228C72.7457 29.7845 72.7955 30.9002 72.8646 31.9381C73.0361 34.5099 74.9002 36.5064 77.2727 36.6701C80.6697 36.9031 84.0786 36.9031 87.4756 36.6701C89.8483 36.5064 91.7124 34.5099 91.8837 31.9381C91.9528 30.9002 92.0026 29.7845 92.0026 28.7228C92.0026 27.6611 91.9528 26.5455 91.8837 25.5074C91.7124 22.9358 89.8483 20.9391 87.4756 20.7756C84.0786 20.5426 80.6697 20.5426 77.2727 20.7756Z" fill="white"/>
<path fill-rule="evenodd" clip-rule="evenodd" d="M76.9989 15.9351C76.9989 12.9756 79.3979 10.5766 82.3572 10.5766C85.3166 10.5766 87.7157 12.239 87.7157 15.1985V15.4338C87.7174 15.5756 87.6909 15.7164 87.6378 15.8479C87.5848 15.9794 87.5061 16.0991 87.4064 16.2C87.3067 16.3009 87.188 16.381 87.0571 16.4357C86.9263 16.4903 86.7858 16.5185 86.644 16.5185C86.5022 16.5185 86.3617 16.4903 86.2309 16.4357C86.1 16.381 85.9813 16.3009 85.8816 16.2C85.7819 16.0991 85.7033 15.9794 85.6502 15.8479C85.5971 15.7164 85.5706 15.5756 85.5723 15.4338V15.1985C85.5723 13.4228 84.1329 12.72 82.3572 12.72C80.5817 12.72 79.1423 14.1594 79.1423 15.9351V20.2218C79.1389 20.5038 79.0245 20.7731 78.8238 20.9713C78.6232 21.1695 78.3526 21.2806 78.0706 21.2806C77.7886 21.2806 77.5179 21.1695 77.3173 20.9713C77.1167 20.7731 77.0023 20.5038 76.9989 20.2218V15.9351Z" fill="white"/>
<path fill-rule="evenodd" clip-rule="evenodd" d="M83.4291 29.6953C84.0698 29.3246 84.5009 28.632 84.5009 27.8387C84.5009 26.6549 83.5413 25.6953 82.3575 25.6953C81.1737 25.6953 80.214 26.6549 80.214 27.8387C80.214 28.632 80.645 29.3246 81.2857 29.6953V31.0538C81.2891 31.3358 81.4036 31.6051 81.6042 31.8033C81.8048 32.0015 82.0754 32.1126 82.3574 32.1126C82.6394 32.1126 82.9101 32.0015 83.1107 31.8033C83.3113 31.6051 83.4257 31.3358 83.4291 31.0538V29.6953Z" fill="#BE281D"/>
<defs>
<filter id="filter0_bf_277_2660" x="94.984" y="35.5569" width="13.5372" height="13.5373" filterUnits="userSpaceOnUse" color-interpolation-filters="sRGB">
<feFlood flood-opacity="0" result="BackgroundImageFix"/>
<feGaussianBlur in="BackgroundImage" stdDeviation="2"/>
<feComposite in2="SourceAlpha" operator="in" result="effect1_backgroundBlur_277_2660"/>
<feBlend mode="normal" in="SourceGraphic" in2="effect1_backgroundBlur_277_2660" result="shape"/>
<feGaussianBlur stdDeviation="2" result="effect2_foregroundBlur_277_2660"/>
</filter>
<filter id="filter1_bf_277_2660" x="13.3916" y="28.129" width="12.5585" height="12.5585" filterUnits="userSpaceOnUse" color-interpolation-filters="sRGB">
<feFlood flood-opacity="0" result="BackgroundImageFix"/>
<feGaussianBlur in="BackgroundImage" stdDeviation="2"/>
<feComposite in2="SourceAlpha" operator="in" result="effect1_backgroundBlur_277_2660"/>
<feBlend mode="normal" in="SourceGraphic" in2="effect1_backgroundBlur_277_2660" result="shape"/>
<feGaussianBlur stdDeviation="2" result="effect2_foregroundBlur_277_2660"/>
</filter>
<filter id="filter2_bf_277_2660" x="18.3369" y="57.6012" width="11.6831" height="11.683" filterUnits="userSpaceOnUse" color-interpolation-filters="sRGB">
<feFlood flood-opacity="0" result="BackgroundImageFix"/>
<feGaussianBlur in="BackgroundImage" stdDeviation="2"/>
<feComposite in2="SourceAlpha" operator="in" result="effect1_backgroundBlur_277_2660"/>
<feBlend mode="normal" in="SourceGraphic" in2="effect1_backgroundBlur_277_2660" result="shape"/>
<feGaussianBlur stdDeviation="2" result="effect2_foregroundBlur_277_2660"/>
</filter>
<filter id="filter3_bf_277_2660" x="104.981" y="40.3127" width="10.4225" height="10.4224" filterUnits="userSpaceOnUse" color-interpolation-filters="sRGB">
<feFlood flood-opacity="0" result="BackgroundImageFix"/>
<feGaussianBlur in="BackgroundImage" stdDeviation="2"/>
<feComposite in2="SourceAlpha" operator="in" result="effect1_backgroundBlur_277_2660"/>
<feBlend mode="normal" in="SourceGraphic" in2="effect1_backgroundBlur_277_2660" result="shape"/>
<feGaussianBlur stdDeviation="2" result="effect2_foregroundBlur_277_2660"/>
</filter>
<filter id="filter4_bf_277_2660" x="58.8506" y="0.513733" width="46.6721" height="51.276" filterUnits="userSpaceOnUse" color-interpolation-filters="sRGB">
<feFlood flood-opacity="0" result="BackgroundImageFix"/>
<feGaussianBlur in="BackgroundImage" stdDeviation="2"/>
<feComposite in2="SourceAlpha" operator="in" result="effect1_backgroundBlur_277_2660"/>
<feBlend mode="normal" in="SourceGraphic" in2="effect1_backgroundBlur_277_2660" result="shape"/>
<feGaussianBlur stdDeviation="2" result="effect2_foregroundBlur_277_2660"/>
</filter>
<linearGradient id="paint0_linear_277_2660" x1="90.9987" y1="36.7187" x2="118.683" y2="15.2643" gradientUnits="userSpaceOnUse">
<stop stop-color="white"/>
<stop offset="1" stop-color="#EEEEEE"/>
</linearGradient>
<linearGradient id="paint1_linear_277_2660" x1="90.0425" y1="27.4174" x2="98.3481" y2="-2.45372" gradientUnits="userSpaceOnUse">
<stop stop-color="white"/>
<stop offset="1" stop-color="#EEEEEE"/>
</linearGradient>
</defs>
</svg>
