<svg width="116" height="76" viewBox="0 0 116 76" fill="none" xmlns="http://www.w3.org/2000/svg">
<path d="M101.609 30.8879C99.0538 32.1555 95.6621 30.5255 95.6621 30.5255C95.6621 30.5255 96.4159 26.841 98.9727 25.5752C101.528 24.3075 104.919 25.9357 104.919 25.9357C104.919 25.9357 104.165 29.6202 101.609 30.8879Z" fill="url(#paint0_linear_277_2517)"/>
<path d="M98.6479 21.1031C97.3464 21.9373 95.7991 21.3217 93.5807 19.8474C91.9126 18.7384 90.3787 17.7506 89.1313 15.8526C88.258 14.5247 87.7675 13.0969 87.5265 11.8358C87.2652 10.4693 86.7708 8.8052 87.8761 8.0038C89.3948 6.90318 94.2553 7.88726 97.2328 12.1082C100.503 16.7454 99.9206 20.2883 98.6479 21.1031Z" fill="url(#paint1_linear_277_2517)"/>
<path d="M14.5223 52.6137C17.9012 54.6388 22.7489 52.7668 22.7489 52.7668C22.7489 52.7668 22.1151 47.612 18.7341 45.5891C15.3552 43.564 10.5095 45.4339 10.5095 45.4339C10.5095 45.4339 11.1434 50.5886 14.5223 52.6137Z" fill="#FBDE4B"/>
<g filter="url(#filter0_bf_277_2517)">
<path d="M101.753 38.5569C100.224 38.5569 98.984 39.7965 98.984 41.3255C98.984 42.8546 100.224 44.0942 101.753 44.0942C103.282 44.0942 104.521 42.8546 104.521 41.3255C104.521 39.7965 103.282 38.5569 101.753 38.5569Z" fill="#BE281D"/>
</g>
<g filter="url(#filter1_bf_277_2517)">
<path d="M19.6708 31.129C18.412 31.129 17.3916 32.1495 17.3916 33.4083C17.3916 34.667 18.412 35.6875 19.6708 35.6875C20.9296 35.6875 21.9501 34.667 21.9501 33.4083C21.9501 32.1495 20.9296 31.129 19.6708 31.129Z" fill="#BE281D"/>
</g>
<g filter="url(#filter2_bf_277_2517)">
<path d="M23.892 65.1399C22.4585 65.1399 21.2964 63.9778 21.2964 62.5443C21.2964 61.1108 22.4585 59.9487 23.892 59.9487C25.3256 59.9487 26.4877 61.1108 26.4877 62.5443C26.4877 63.9778 25.3256 65.1399 23.892 65.1399Z" fill="#BE281D"/>
</g>
<g filter="url(#filter3_bf_277_2517)">
<path d="M110.192 45.7351C109.523 45.7351 108.981 45.1929 108.981 44.5239C108.981 43.855 109.523 43.3127 110.192 43.3127C110.861 43.3127 111.403 43.855 111.403 44.5239C111.403 45.1929 110.861 45.7351 110.192 45.7351Z" fill="#2062EF"/>
</g>
<path d="M92.9508 58.4152C92.0906 58.4152 91.3934 57.7179 91.3934 56.8578C91.3934 55.9976 92.0906 55.3004 92.9508 55.3004C93.8109 55.3004 94.5082 55.9976 94.5082 56.8578C94.5082 57.7179 93.8109 58.4152 92.9508 58.4152Z" fill="#C0C0C0"/>
<path d="M19.697 75.2267C18.4546 75.2267 17.4475 74.2196 17.4475 72.9773C17.4475 71.735 18.4546 70.7278 19.697 70.7278C20.9393 70.7278 21.9464 71.735 21.9464 72.9773C21.9464 74.2196 20.9393 75.2267 19.697 75.2267Z" fill="#C0C0C0"/>
<path d="M91.4318 74.7149C90.4862 74.7149 89.7196 73.9483 89.7196 73.0027C89.7196 72.0571 90.4862 71.2906 91.4318 71.2906C92.3774 71.2906 93.1439 72.0571 93.1439 73.0027C93.1439 73.9483 92.3774 74.7149 91.4318 74.7149Z" fill="#FBDE4B"/>
<path d="M105.629 17.8122C104.577 17.8122 103.725 16.96 103.725 15.9088C103.725 14.8576 104.577 14.0054 105.629 14.0054C106.68 14.0054 107.532 14.8576 107.532 15.9088C107.532 16.96 106.68 17.8122 105.629 17.8122Z" fill="#C0C0C0"/>
<path d="M4.58362 37.7137C4.82796 38.6256 4.28681 39.5629 3.37492 39.8072C2.46304 40.0516 1.52574 39.5104 1.2814 38.5986C1.03706 37.6867 1.57822 36.7494 2.4901 36.505C3.40198 36.2607 4.33928 36.8018 4.58362 37.7137Z" fill="#C0C0C0"/>
<path d="M26.8345 14.3379C26.4416 14.3379 26.1231 14.0194 26.1231 13.6265C26.1231 13.2336 26.4416 12.9151 26.8345 12.9151C27.2274 12.9151 27.5459 13.2336 27.5459 13.6265C27.5459 14.0194 27.2274 14.3379 26.8345 14.3379Z" fill="#2062EF"/>
<path d="M103.741 59.5865C102.775 59.5865 101.991 58.96 101.991 58.1871C101.991 57.4143 102.775 56.7878 103.741 56.7878C104.707 56.7878 105.49 57.4143 105.49 58.1871C105.49 58.96 104.707 59.5865 103.741 59.5865Z" fill="#C0C0C0"/>
<path d="M73.0935 2.76072C73.2704 3.42085 72.8786 4.09938 72.2185 4.27627C71.5584 4.45315 70.8798 4.0614 70.703 3.40127C70.5261 2.74114 70.9178 2.0626 71.578 1.88572C72.2381 1.70884 72.9166 2.10059 73.0935 2.76072Z" fill="#C0C0C0"/>
<path d="M17.3787 15.9399H17.4035C17.5511 18.0306 19.1059 18.0629 19.1059 18.0629C19.1059 18.0629 17.3915 18.0963 17.3915 20.5118C17.3915 18.0963 15.677 18.0629 15.677 18.0629C15.677 18.0629 17.2311 18.0306 17.3787 15.9399Z" fill="#C0C0C0"/>
<path d="M70.3682 9.7604L80.9574 20.359C82.2012 21.604 82.9001 23.2918 82.9006 25.0518V66.9213C82.9006 70.5893 79.9328 73.5587 76.2699 73.5587H38.8258C35.1628 73.5587 32.1951 70.5893 32.1951 66.9213V14.4532C32.1951 10.785 35.1628 7.8158 38.8258 7.8158H65.6807C66.5515 7.8162 67.4136 7.98814 68.2179 8.3218C69.0222 8.65546 69.7529 9.1443 70.3682 9.7604V9.7604Z" stroke="#C0C0C0" stroke-width="3"/>
<path d="M43.4607 43.3549H58.2849M43.4287 52.6282H69.4344M43.4287 61.8325H69.4344" stroke="#C0C0C0" stroke-width="3" stroke-linecap="round" stroke-linejoin="round"/>
<path d="M42.4858 30.3034C42.4858 34.8162 45.9913 38.4389 50.2727 38.4389C54.554 38.4389 58.0596 34.8162 58.0596 30.3034C58.0596 25.7907 54.554 22.1679 50.2727 22.1679C45.9913 22.1679 42.4858 25.7907 42.4858 30.3034Z" stroke="#C0C0C0"/>
<path fill-rule="evenodd" clip-rule="evenodd" d="M53.1303 33.3246V33.7496C53.1302 33.8623 53.0872 33.9704 53.0106 34.0501C52.9341 34.1298 52.8303 34.1745 52.7221 34.1745H47.8234C47.7152 34.1745 47.6114 34.1298 47.5349 34.0501C47.4583 33.9704 47.4153 33.8623 47.4152 33.7496V33.3179C47.4152 32.0321 48.8269 31.1967 50.2727 31.1967C51.7187 31.1967 53.1303 32.0325 53.1303 33.3179V33.3246ZM51.2831 27.4639C51.841 28.0453 51.841 28.988 51.2831 29.5694C50.725 30.1509 49.8204 30.1509 49.2625 29.5694C48.7044 28.988 48.7044 28.0453 49.2625 27.4639C49.8204 26.8824 50.725 26.8824 51.2831 27.4639Z" fill="white"/>
<g filter="url(#filter4_bf_277_2517)">
<path fill-rule="evenodd" clip-rule="evenodd" d="M100.561 29.277V14.43C100.562 11.8748 98.9532 9.59366 96.54 8.72752L87.2629 5.40054C84.0654 4.25402 80.5689 4.25402 77.3714 5.40054L68.0821 8.7336C65.671 9.59896 64.0631 11.877 64.061 14.43V29.277C64.061 36.9914 74.8955 42.6999 79.8777 44.9241C80.6428 45.2681 81.4721 45.4459 82.311 45.4459C83.1499 45.4459 83.9793 45.2681 84.7444 44.9241C89.7267 42.7001 100.561 36.9793 100.561 29.277Z" fill="#BE281D"/>
</g>
<path d="M74.7107 20.9108H89.9067V34.1418H74.7107V20.9108Z" fill="white"/>
<path fill-rule="evenodd" clip-rule="evenodd" d="M82.3742 21.9215C80.4778 21.9215 78.7886 21.9963 77.4084 22.0915C76.0994 22.1817 75.0927 23.265 74.9988 24.6748C74.9318 25.6776 74.8853 26.7344 74.8853 27.7228C74.8853 28.7113 74.9318 29.7681 74.9988 30.7709C75.0927 32.1807 76.0994 33.2638 77.4084 33.3542C80.715 33.581 84.0333 33.581 87.3399 33.3542C88.6491 33.2638 89.6556 32.1807 89.7496 30.7709C89.8165 29.7681 89.863 28.7113 89.863 27.7228C89.863 26.7344 89.8165 25.6776 89.7496 24.6748C89.6556 23.265 88.6491 22.1817 87.3399 22.0915C85.6871 21.9782 84.0309 21.9214 82.3742 21.9215ZM77.2727 19.7756C74.9 19.9391 73.0361 21.9358 72.8646 24.5074C72.7955 25.5455 72.7457 26.6611 72.7457 27.7228C72.7457 28.7845 72.7955 29.9002 72.8646 30.9381C73.0361 33.5099 74.9002 35.5064 77.2727 35.6701C80.6697 35.9031 84.0786 35.9031 87.4756 35.6701C89.8483 35.5064 91.7124 33.5099 91.8837 30.9381C91.9528 29.9002 92.0026 28.7845 92.0026 27.7228C92.0026 26.6611 91.9528 25.5455 91.8837 24.5074C91.7124 21.9358 89.8483 19.9391 87.4756 19.7756C84.0786 19.5426 80.6697 19.5426 77.2727 19.7756Z" fill="white"/>
<path fill-rule="evenodd" clip-rule="evenodd" d="M76.9989 17.6973C76.9989 14.7379 79.3979 12.3389 82.3572 12.3389C85.3166 12.3389 87.7157 14.0013 87.7157 16.9607V17.1961C87.7174 17.3379 87.6909 17.4787 87.6378 17.6102C87.5848 17.7417 87.5061 17.8614 87.4064 17.9623C87.3067 18.0632 87.188 18.1433 87.0571 18.1979C86.9263 18.2526 86.7858 18.2808 86.644 18.2808C86.5022 18.2808 86.3617 18.2526 86.2309 18.1979C86.1 18.1433 85.9813 18.0632 85.8816 17.9623C85.7819 17.8614 85.7033 17.7417 85.6502 17.6102C85.5971 17.4787 85.5706 17.3379 85.5723 17.1961V16.9607C85.5723 15.1851 84.1329 14.4822 82.3572 14.4822C80.5817 14.4822 79.1423 15.9217 79.1423 17.6973V21.9841C79.1389 22.266 79.0245 22.5353 78.8238 22.7335C78.6232 22.9317 78.3526 23.0429 78.0706 23.0429C77.7886 23.0429 77.5179 22.9317 77.3173 22.7335C77.1167 22.5353 77.0023 22.266 76.9989 21.9841V17.6973Z" fill="white"/>
<path fill-rule="evenodd" clip-rule="evenodd" d="M83.4291 28.6953C84.0698 28.3246 84.5009 27.632 84.5009 26.8387C84.5009 25.6549 83.5413 24.6953 82.3575 24.6953C81.1737 24.6953 80.214 25.6549 80.214 26.8387C80.214 27.632 80.645 28.3246 81.2857 28.6953V30.0538C81.2891 30.3358 81.4036 30.6051 81.6042 30.8033C81.8048 31.0015 82.0754 31.1126 82.3574 31.1126C82.6394 31.1126 82.9101 31.0015 83.1107 30.8033C83.3113 30.6051 83.4257 30.3358 83.4291 30.0538V28.6953Z" fill="#BE281D"/>
<defs>
<filter id="filter0_bf_277_2517" x="94.984" y="34.5569" width="13.5372" height="13.5373" filterUnits="userSpaceOnUse" color-interpolation-filters="sRGB">
<feFlood flood-opacity="0" result="BackgroundImageFix"/>
<feGaussianBlur in="BackgroundImage" stdDeviation="2"/>
<feComposite in2="SourceAlpha" operator="in" result="effect1_backgroundBlur_277_2517"/>
<feBlend mode="normal" in="SourceGraphic" in2="effect1_backgroundBlur_277_2517" result="shape"/>
<feGaussianBlur stdDeviation="2" result="effect2_foregroundBlur_277_2517"/>
</filter>
<filter id="filter1_bf_277_2517" x="13.3916" y="27.129" width="12.5585" height="12.5585" filterUnits="userSpaceOnUse" color-interpolation-filters="sRGB">
<feFlood flood-opacity="0" result="BackgroundImageFix"/>
<feGaussianBlur in="BackgroundImage" stdDeviation="2"/>
<feComposite in2="SourceAlpha" operator="in" result="effect1_backgroundBlur_277_2517"/>
<feBlend mode="normal" in="SourceGraphic" in2="effect1_backgroundBlur_277_2517" result="shape"/>
<feGaussianBlur stdDeviation="2" result="effect2_foregroundBlur_277_2517"/>
</filter>
<filter id="filter2_bf_277_2517" x="17.2964" y="55.9487" width="13.1913" height="13.1912" filterUnits="userSpaceOnUse" color-interpolation-filters="sRGB">
<feFlood flood-opacity="0" result="BackgroundImageFix"/>
<feGaussianBlur in="BackgroundImage" stdDeviation="2"/>
<feComposite in2="SourceAlpha" operator="in" result="effect1_backgroundBlur_277_2517"/>
<feBlend mode="normal" in="SourceGraphic" in2="effect1_backgroundBlur_277_2517" result="shape"/>
<feGaussianBlur stdDeviation="2" result="effect2_foregroundBlur_277_2517"/>
</filter>
<filter id="filter3_bf_277_2517" x="104.981" y="39.3127" width="10.4225" height="10.4224" filterUnits="userSpaceOnUse" color-interpolation-filters="sRGB">
<feFlood flood-opacity="0" result="BackgroundImageFix"/>
<feGaussianBlur in="BackgroundImage" stdDeviation="2"/>
<feComposite in2="SourceAlpha" operator="in" result="effect1_backgroundBlur_277_2517"/>
<feBlend mode="normal" in="SourceGraphic" in2="effect1_backgroundBlur_277_2517" result="shape"/>
<feGaussianBlur stdDeviation="2" result="effect2_foregroundBlur_277_2517"/>
</filter>
<filter id="filter4_bf_277_2517" x="60.061" y="0.540649" width="44.5001" height="48.9053" filterUnits="userSpaceOnUse" color-interpolation-filters="sRGB">
<feFlood flood-opacity="0" result="BackgroundImageFix"/>
<feGaussianBlur in="BackgroundImage" stdDeviation="2"/>
<feComposite in2="SourceAlpha" operator="in" result="effect1_backgroundBlur_277_2517"/>
<feBlend mode="normal" in="SourceGraphic" in2="effect1_backgroundBlur_277_2517" result="shape"/>
<feGaussianBlur stdDeviation="2" result="effect2_foregroundBlur_277_2517"/>
</filter>
<linearGradient id="paint0_linear_277_2517" x1="91.796" y1="34.842" x2="112.874" y2="18.1696" gradientUnits="userSpaceOnUse">
<stop stop-color="white"/>
<stop offset="1" stop-color="#EEEEEE"/>
</linearGradient>
<linearGradient id="paint1_linear_277_2517" x1="90.0425" y1="26.4174" x2="98.3481" y2="-3.45372" gradientUnits="userSpaceOnUse">
<stop stop-color="white"/>
<stop offset="1" stop-color="#EEEEEE"/>
</linearGradient>
</defs>
</svg>
