<svg xmlns="http://www.w3.org/2000/svg" width="153.172" height="20.286" viewBox="0 0 153.172 20.286"><defs><style>.a{opacity:0.6;}.b{fill:#fff;}</style></defs><g class="a"><g transform="translate(0 0.444)"><path class="b" d="M333.55,409.5l5,11.437-10.318-7.065a3.734,3.734,0,0,1-.629-5.946,3.64,3.64,0,0,1,5.945,1.574Z" transform="translate(-323.55 -402.319)"/><path class="b" d="M344.62,403.912l-1.819,12.8-5.177-12.171a3.679,3.679,0,1,1,7-.63Z" transform="translate(-327.765 -399.425)"/><path class="b" d="M357.551,404.491,352.41,416.7l-1.644-11.018c-.14-1.679.909-1.714,1.294-2.028-.069-.245-.594-.245-.594-.245h-.98a3.648,3.648,0,0,1,3.953-3.987,3.712,3.712,0,0,1,3.113,5.071Z" transform="translate(-332.826 -399.409)"/><path class="b" d="M364.05,413.82l-10.318,7.1,4.862-11.3c1.469-3.568,4.9-2.868,6.121-1.5a3.678,3.678,0,0,1-.664,5.7Z" transform="translate(-334.078 -402.338)"/><path class="b" d="M364.806,427.039H352.879l9.688-6.75a3.689,3.689,0,1,1,2.239,6.75Z" transform="translate(-333.75 -407.197)"/><path class="b" d="M321.928,422.051a3.671,3.671,0,0,1,5.666-1.784l9.688,6.75H325.531a3.769,3.769,0,0,1-3.6-4.966Z" transform="translate(-321.756 -407.176)"/></g><g transform="translate(40.377)"><path class="b" d="M387.448,408.742c0,3.627,2.968,10.23,14.288,10.23,10.443,0,13.739-4.79,13.739-6.987H407.4s-.385,2.9-4.946,2.9-5.8-3.809-5.8-6.007a5.511,5.511,0,0,1,5.8-5.8c4.561,0,4.946,2.527,4.946,2.527h8.078c0-2.2-2.418-6.923-13.739-6.923s-14.288,7.033-14.288,10.056Z" transform="translate(-387.448 -398.686)"/><path class="b" d="M525.362,408.742c0,3.627,2.968,10.23,14.289,10.23,10.442,0,13.738-4.79,13.738-6.987H545.31s-.384,2.9-4.945,2.9-5.8-3.809-5.8-6.007a5.511,5.511,0,0,1,5.8-5.8c4.561,0,4.945,2.527,4.945,2.527h8.078c0-2.2-2.419-6.923-13.738-6.923s-14.289,7.033-14.289,10.056Z" transform="translate(-440.594 -398.686)"/><path class="b" d="M456.458,399.231v12.283l-9.4-12.283H436.469v19.455h7.252V406.264l9.241,12.422h10.75V399.231Z" transform="translate(-406.339 -398.896)"/><path class="b" d="M504.233,408.349a4.624,4.624,0,0,0,4.081-4.507c0-4.232-7.871-4.61-9.081-4.61h-14.51v19.455h14.51c6.979,0,9.782-2.2,9.782-5.887s-4.781-4.45-4.781-4.45Zm-11.925-5.331h5.824v.009a1.481,1.481,0,1,1,0,2.9v.006h-5.824v-2.912Zm5.99,11.02v.026h-6.044v-3.572H498.3v.015a1.834,1.834,0,1,1,0,3.531Z" transform="translate(-424.933 -398.896)"/></g></g></svg>